<?xml version="1.0" standalone="no"?>
 <!DOCTYPE svg PUBLIC "-//W3C//DTD SVG 1.1//EN" 
 "http://www.w3.org/Graphics/SVG/1.1/DTD/svg11.dtd"> 
<svg xmlns="http://www.w3.org/2000/svg" version="1.1" 
    width="29.7002cm" height="21.0007cm" viewBox="0 0 116930 82680 ">
<title>SVG Picture created as astabile-kippstufe.svg date 2019/12/03 01:04:32 </title>
  <desc>Picture generated by Eeschema-SVG </desc>
<g style="fill:#000000; fill-opacity:1;stroke:#000000; stroke-opacity:1;
stroke-linecap:round; stroke-linejoin:round; "
 transform="translate(0 0) scale(1 1)">
</g>
<g style="fill:#000000; fill-opacity:0.0; 
stroke:#000000; stroke-width:0; stroke-opacity:1; 
stroke-linecap:round; stroke-linejoin:round;">
<g >
</g>
<g style="fill:#840000; fill-opacity:0.0; 
stroke:#840000; stroke-width:0; stroke-opacity:1; 
stroke-linecap:round; stroke-linejoin:round;">
</g>
<g style="fill:#840000; fill-opacity:0.0; 
stroke:#840000; stroke-width:100; stroke-opacity:1; 
stroke-linecap:round; stroke-linejoin:round;">
<rect x="24600" y="24000" width="800" height="2000" rx="0" />
</g>
<g style="fill:#840000; fill-opacity:0.0; 
stroke:#840000; stroke-width:60; stroke-opacity:1; 
stroke-linecap:round; stroke-linejoin:round;">
<path d="M25000 24000
L25000 23500
" />
<path d="M25000 26000
L25000 26500
" />
</g>
<g style="fill:#008484; fill-opacity:0.0; 
stroke:#008484; stroke-width:60; stroke-opacity:1; 
stroke-linecap:round; stroke-linejoin:round;">
<path d="M26130 24780
L25970 24540
" />
<path d="M25850 24780
L25850 24280
L26040 24280
L26080 24310
L26110 24330
L26130 24380
L26130 24450
L26110 24500
L26080 24520
L26040 24540
L25850 24540
" />
<path d="M26320 24330
L26350 24310
L26390 24280
L26510 24280
L26560 24310
L26580 24330
L26610 24380
L26610 24420
L26580 24500
L26300 24780
L26610 24780
" />
<path d="M25800 25190
L26110 25190
L25940 25380
L26010 25380
L26060 25410
L26080 25430
L26110 25480
L26110 25600
L26080 25640
L26060 25670
L26010 25690
L25870 25690
L25820 25670
L25800 25640
" />
<path d="M26350 25690
L26440 25690
L26490 25670
L26510 25640
L26560 25570
L26580 25480
L26580 25290
L26560 25240
L26540 25220
L26490 25190
L26390 25190
L26350 25220
L26320 25240
L26300 25290
L26300 25410
L26320 25450
L26350 25480
L26390 25500
L26490 25500
L26540 25480
L26560 25450
L26580 25410
" />
<path d="M26800 25690
L26800 25190
" />
<path d="M26850 25500
L26990 25690
" />
<path d="M26990 25360
L26800 25550
" />
</g>
</g>
<g style="fill:#008484; fill-opacity:0.0; 
stroke:#008484; stroke-width:0; stroke-opacity:1; 
stroke-linecap:round; stroke-linejoin:round;">
<g >
</g>
<g style="fill:#840000; fill-opacity:0.0; 
stroke:#840000; stroke-width:0; stroke-opacity:1; 
stroke-linecap:round; stroke-linejoin:round;">
</g>
<g style="fill:#FFFFC2; fill-opacity:0.0; 
stroke:#FFFFC2; stroke-width:0; stroke-opacity:1; 
stroke-linecap:round; stroke-linejoin:round;">
</g>
<g style="fill:#FFFFC2; fill-opacity:0.6; 
stroke:#FFFFC2; stroke-width:0; stroke-opacity:1; 
stroke-linecap:round; stroke-linejoin:round;">
<rect x="42500" y="21500" width="1000" height="1000" rx="0" />
</g>
<g style="fill:#840000; fill-opacity:0.6; 
stroke:#840000; stroke-width:0; stroke-opacity:1; 
stroke-linecap:round; stroke-linejoin:round;">
</g>
<g style="fill:#840000; fill-opacity:0.0; 
stroke:#840000; stroke-width:100; stroke-opacity:1; 
stroke-linecap:round; stroke-linejoin:round;">
<rect x="42500" y="21500" width="1000" height="1000" rx="0" />
</g>
<g style="fill:#840000; fill-opacity:0.0; 
stroke:#840000; stroke-width:60; stroke-opacity:1; 
stroke-linecap:round; stroke-linejoin:round;">
<rect x="42500" y="21950" width="500" height="100" rx="0" />
<path d="M42500 22000
L41000 22000
" />
<path d="M41890 21870
L41600 21870
" />
<path d="M41750 21870
L41750 21370
L41700 21440
L41650 21490
L41600 21510
" />
</g>
<g style="fill:#008484; fill-opacity:0.0; 
stroke:#008484; stroke-width:60; stroke-opacity:1; 
stroke-linecap:round; stroke-linejoin:round;">
<path d="M43890 21320
L44220 21820
" />
<path d="M44220 21320
L43890 21820
" />
<path d="M44680 21820
L44390 21820
" />
<path d="M44530 21820
L44530 21320
L44490 21390
L44440 21440
L44390 21460
" />
<path d="M43940 22540
L44320 22540
" />
<path d="M44130 22730
L44130 22350
" />
<path d="M44560 22230
L44560 22640
L44590 22680
L44610 22710
L44660 22730
L44750 22730
L44800 22710
L44820 22680
L44850 22640
L44850 22230
" />
<path d="M45250 22470
L45320 22490
L45350 22520
L45370 22560
L45370 22640
L45350 22680
L45320 22710
L45280 22730
L45090 22730
L45090 22230
L45250 22230
L45300 22260
L45320 22280
L45350 22330
L45350 22370
L45320 22420
L45300 22450
L45250 22470
L45090 22470
" />
</g>
</g>
<g style="fill:#008484; fill-opacity:0.0; 
stroke:#008484; stroke-width:0; stroke-opacity:1; 
stroke-linecap:round; stroke-linejoin:round;">
<g >
</g>
<g style="fill:#840000; fill-opacity:0.0; 
stroke:#840000; stroke-width:0; stroke-opacity:1; 
stroke-linecap:round; stroke-linejoin:round;">
</g>
<g style="fill:#FFFFC2; fill-opacity:0.0; 
stroke:#FFFFC2; stroke-width:0; stroke-opacity:1; 
stroke-linecap:round; stroke-linejoin:round;">
</g>
<g style="fill:#FFFFC2; fill-opacity:0.6; 
stroke:#FFFFC2; stroke-width:0; stroke-opacity:1; 
stroke-linecap:round; stroke-linejoin:round;">
<rect x="42500" y="43000" width="1000" height="1000" rx="0" />
</g>
<g style="fill:#840000; fill-opacity:0.6; 
stroke:#840000; stroke-width:0; stroke-opacity:1; 
stroke-linecap:round; stroke-linejoin:round;">
</g>
<g style="fill:#840000; fill-opacity:0.0; 
stroke:#840000; stroke-width:100; stroke-opacity:1; 
stroke-linecap:round; stroke-linejoin:round;">
<rect x="42500" y="43000" width="1000" height="1000" rx="0" />
</g>
<g style="fill:#840000; fill-opacity:0.0; 
stroke:#840000; stroke-width:60; stroke-opacity:1; 
stroke-linecap:round; stroke-linejoin:round;">
<rect x="42500" y="43450" width="500" height="100" rx="0" />
<path d="M42500 43500
L41000 43500
" />
<path d="M41890 43370
L41600 43370
" />
<path d="M41750 43370
L41750 42870
L41700 42940
L41650 42990
L41600 43010
" />
</g>
<g style="fill:#008484; fill-opacity:0.0; 
stroke:#008484; stroke-width:60; stroke-opacity:1; 
stroke-linecap:round; stroke-linejoin:round;">
<path d="M43890 42820
L44220 43320
" />
<path d="M44220 42820
L43890 43320
" />
<path d="M44390 42870
L44410 42850
L44460 42820
L44580 42820
L44630 42850
L44650 42870
L44680 42920
L44680 42960
L44650 43040
L44370 43320
L44680 43320
" />
<path d="M44040 43730
L44080 43730
L44130 43760
L44160 43780
L44180 43830
L44200 43920
L44200 44040
L44180 44140
L44160 44180
L44130 44210
L44080 44230
L44040 44230
L43990 44210
L43970 44180
L43940 44140
L43920 44040
L43920 43920
L43940 43830
L43970 43780
L43990 43760
L44040 43730
" />
<path d="M44350 43730
L44510 44230
L44680 43730
" />
</g>
</g>
<g style="fill:#008484; fill-opacity:0.0; 
stroke:#008484; stroke-width:0; stroke-opacity:1; 
stroke-linecap:round; stroke-linejoin:round;">
<g >
</g>
<g style="fill:#840000; fill-opacity:0.0; 
stroke:#840000; stroke-width:0; stroke-opacity:1; 
stroke-linecap:round; stroke-linejoin:round;">
</g>
<g style="fill:#840000; fill-opacity:0.0; 
stroke:#840000; stroke-width:100; stroke-opacity:1; 
stroke-linecap:round; stroke-linejoin:round;">
<rect x="19600" y="24000" width="800" height="2000" rx="0" />
</g>
<g style="fill:#840000; fill-opacity:0.0; 
stroke:#840000; stroke-width:60; stroke-opacity:1; 
stroke-linecap:round; stroke-linejoin:round;">
<path d="M20000 24000
L20000 23500
" />
<path d="M20000 26000
L20000 26500
" />
</g>
<g style="fill:#008484; fill-opacity:0.0; 
stroke:#008484; stroke-width:60; stroke-opacity:1; 
stroke-linecap:round; stroke-linejoin:round;">
<path d="M21130 24780
L20970 24540
" />
<path d="M20850 24780
L20850 24280
L21040 24280
L21080 24310
L21110 24330
L21130 24380
L21130 24450
L21110 24500
L21080 24520
L21040 24540
L20850 24540
" />
<path d="M21610 24780
L21320 24780
" />
<path d="M21470 24780
L21470 24280
L21420 24350
L21370 24400
L21320 24420
" />
<path d="M21050 25190
L20960 25190
L20910 25220
L20890 25240
L20840 25310
L20820 25410
L20820 25600
L20840 25640
L20860 25670
L20910 25690
L21010 25690
L21050 25670
L21080 25640
L21100 25600
L21100 25480
L21080 25430
L21050 25410
L21010 25380
L20910 25380
L20860 25410
L20840 25430
L20820 25480
" />
<path d="M21390 25410
L21340 25380
L21320 25360
L21290 25310
L21290 25290
L21320 25240
L21340 25220
L21390 25190
L21480 25190
L21530 25220
L21550 25240
L21580 25290
L21580 25310
L21550 25360
L21530 25380
L21480 25410
L21390 25410
L21340 25430
L21320 25450
L21290 25500
L21290 25600
L21320 25640
L21340 25670
L21390 25690
L21480 25690
L21530 25670
L21550 25640
L21580 25600
L21580 25500
L21550 25450
L21530 25430
L21480 25410
" />
<path d="M21890 25190
L21940 25190
L21980 25220
L22010 25240
L22030 25290
L22050 25380
L22050 25500
L22030 25600
L22010 25640
L21980 25670
L21940 25690
L21890 25690
L21840 25670
L21820 25640
L21790 25600
L21770 25500
L21770 25380
L21790 25290
L21820 25240
L21840 25220
L21890 25190
" />
</g>
</g>
<g style="fill:#008484; fill-opacity:0.0; 
stroke:#008484; stroke-width:0; stroke-opacity:1; 
stroke-linecap:round; stroke-linejoin:round;">
<g >
</g>
<g style="fill:#840000; fill-opacity:0.0; 
stroke:#840000; stroke-width:0; stroke-opacity:1; 
stroke-linecap:round; stroke-linejoin:round;">
</g>
<g style="fill:#840000; fill-opacity:0.0; 
stroke:#840000; stroke-width:80; stroke-opacity:1; 
stroke-linecap:round; stroke-linejoin:round;">
<path style="fill:#840000; fill-opacity:0.0; 
stroke:#840000; stroke-width:80; stroke-opacity:1; 
stroke-linecap:round; stroke-linejoin:round;fill:none"
d="M 35500,40500
35500,39500
Z" /> 
</g>
<g style="fill:#840000; fill-opacity:0.0; 
stroke:#840000; stroke-width:60; stroke-opacity:1; 
stroke-linecap:round; stroke-linejoin:round;">
<path style="fill:#840000; fill-opacity:0.0; 
stroke:#840000; stroke-width:60; stroke-opacity:1; 
stroke-linecap:round; stroke-linejoin:round;fill:none"
d="M 34500,40000
35500,40000
Z" /> 
</g>
<g style="fill:#840000; fill-opacity:0.0; 
stroke:#840000; stroke-width:80; stroke-opacity:1; 
stroke-linecap:round; stroke-linejoin:round;">
<path style="fill:#840000; fill-opacity:0.0; 
stroke:#840000; stroke-width:80; stroke-opacity:1; 
stroke-linecap:round; stroke-linejoin:round;fill:none"
d="M 34500,40500
34500,39500
35500,40000
34500,40500
Z" /> 
</g>
<g style="fill:#840000; fill-opacity:0.0; 
stroke:#840000; stroke-width:60; stroke-opacity:1; 
stroke-linecap:round; stroke-linejoin:round;">
<path d="M35500 40000
L36500 40000
" />
<path d="M34500 40000
L33500 40000
" />
</g>
<g style="fill:#008484; fill-opacity:0.0; 
stroke:#008484; stroke-width:60; stroke-opacity:1; 
stroke-linecap:round; stroke-linejoin:round;">
<path d="M34630 38030
L34630 37530
L34750 37530
L34820 37560
L34860 37600
L34890 37650
L34910 37750
L34910 37820
L34890 37910
L34860 37960
L34820 38010
L34750 38030
L34630 38030
" />
<path d="M35340 37700
L35340 38030
" />
<path d="M35220 37510
L35100 37860
L35410 37860
" />
<path d="M33920 38940
L33640 38940
" />
<path d="M33780 38940
L33780 38440
L33730 38510
L33690 38560
L33640 38580
" />
<path d="M34140 38940
L34140 38440
L34420 38940
L34420 38440
" />
<path d="M34880 38610
L34880 38940
" />
<path d="M34760 38420
L34640 38770
L34950 38770
" />
<path d="M35400 38940
L35110 38940
" />
<path d="M35260 38940
L35260 38440
L35210 38510
L35160 38560
L35110 38580
" />
<path d="M35830 38610
L35830 38940
" />
<path d="M35710 38420
L35590 38770
L35900 38770
" />
<path d="M36160 38660
L36110 38630
L36090 38610
L36070 38560
L36070 38540
L36090 38490
L36110 38470
L36160 38440
L36260 38440
L36300 38470
L36330 38490
L36350 38540
L36350 38560
L36330 38610
L36300 38630
L36260 38660
L36160 38660
L36110 38680
L36090 38700
L36070 38750
L36070 38850
L36090 38890
L36110 38920
L36160 38940
L36260 38940
L36300 38920
L36330 38890
L36350 38850
L36350 38750
L36330 38700
L36300 38680
L36260 38660
" />
</g>
</g>
<g style="fill:#008484; fill-opacity:0.0; 
stroke:#008484; stroke-width:0; stroke-opacity:1; 
stroke-linecap:round; stroke-linejoin:round;">
<g >
</g>
<g style="fill:#840000; fill-opacity:0.0; 
stroke:#840000; stroke-width:0; stroke-opacity:1; 
stroke-linecap:round; stroke-linejoin:round;">
</g>
<g style="fill:#840000; fill-opacity:0.0; 
stroke:#840000; stroke-width:80; stroke-opacity:1; 
stroke-linecap:round; stroke-linejoin:round;">
<path style="fill:#840000; fill-opacity:0.0; 
stroke:#840000; stroke-width:80; stroke-opacity:1; 
stroke-linecap:round; stroke-linejoin:round;fill:none"
d="M 24500,39500
24500,40500
Z" /> 
</g>
<g style="fill:#840000; fill-opacity:0.0; 
stroke:#840000; stroke-width:60; stroke-opacity:1; 
stroke-linecap:round; stroke-linejoin:round;">
<path style="fill:#840000; fill-opacity:0.0; 
stroke:#840000; stroke-width:60; stroke-opacity:1; 
stroke-linecap:round; stroke-linejoin:round;fill:none"
d="M 25500,40000
24500,40000
Z" /> 
</g>
<g style="fill:#840000; fill-opacity:0.0; 
stroke:#840000; stroke-width:80; stroke-opacity:1; 
stroke-linecap:round; stroke-linejoin:round;">
<path style="fill:#840000; fill-opacity:0.0; 
stroke:#840000; stroke-width:80; stroke-opacity:1; 
stroke-linecap:round; stroke-linejoin:round;fill:none"
d="M 25500,39500
25500,40500
24500,40000
25500,39500
Z" /> 
</g>
<g style="fill:#840000; fill-opacity:0.0; 
stroke:#840000; stroke-width:60; stroke-opacity:1; 
stroke-linecap:round; stroke-linejoin:round;">
<path d="M24500 40000
L23500 40000
" />
<path d="M25500 40000
L26500 40000
" />
</g>
<g style="fill:#008484; fill-opacity:0.0; 
stroke:#008484; stroke-width:60; stroke-opacity:1; 
stroke-linecap:round; stroke-linejoin:round;">
<path d="M24630 38080
L24630 37580
L24750 37580
L24820 37610
L24860 37650
L24890 37700
L24910 37800
L24910 37870
L24890 37960
L24860 38010
L24820 38060
L24750 38080
L24630 38080
" />
<path d="M25080 37580
L25390 37580
L25220 37770
L25290 37770
L25340 37800
L25360 37820
L25390 37870
L25390 37990
L25360 38030
L25340 38060
L25290 38080
L25150 38080
L25100 38060
L25080 38030
" />
<path d="M23920 38990
L23640 38990
" />
<path d="M23780 38990
L23780 38490
L23730 38560
L23690 38610
L23640 38630
" />
<path d="M24140 38990
L24140 38490
L24420 38990
L24420 38490
" />
<path d="M24880 38660
L24880 38990
" />
<path d="M24760 38470
L24640 38820
L24950 38820
" />
<path d="M25400 38990
L25110 38990
" />
<path d="M25260 38990
L25260 38490
L25210 38560
L25160 38610
L25110 38630
" />
<path d="M25830 38660
L25830 38990
" />
<path d="M25710 38470
L25590 38820
L25900 38820
" />
<path d="M26160 38710
L26110 38680
L26090 38660
L26070 38610
L26070 38590
L26090 38540
L26110 38520
L26160 38490
L26260 38490
L26300 38520
L26330 38540
L26350 38590
L26350 38610
L26330 38660
L26300 38680
L26260 38710
L26160 38710
L26110 38730
L26090 38750
L26070 38800
L26070 38900
L26090 38940
L26110 38970
L26160 38990
L26260 38990
L26300 38970
L26330 38940
L26350 38900
L26350 38800
L26330 38750
L26300 38730
L26260 38710
" />
</g>
</g>
<g style="fill:#008484; fill-opacity:0.0; 
stroke:#008484; stroke-width:0; stroke-opacity:1; 
stroke-linecap:round; stroke-linejoin:round;">
<g >
</g>
<g style="fill:#840000; fill-opacity:0.0; 
stroke:#840000; stroke-width:0; stroke-opacity:1; 
stroke-linecap:round; stroke-linejoin:round;">
</g>
<g style="fill:#840000; fill-opacity:0.0; 
stroke:#840000; stroke-width:100; stroke-opacity:1; 
stroke-linecap:round; stroke-linejoin:round;">
<circle cx="20500" cy="40000" r="1110" /> 
</g>
<g style="fill:#840000; fill-opacity:0.0; 
stroke:#840000; stroke-width:60; stroke-opacity:1; 
stroke-linecap:round; stroke-linejoin:round;">
<path style="fill:#840000; fill-opacity:0.0; 
stroke:#840000; stroke-width:60; stroke-opacity:1; 
stroke-linecap:round; stroke-linejoin:round;fill:none"
d="M 21000,40000
20750,40000
Z" /> 
<path style="fill:#840000; fill-opacity:0.0; 
stroke:#840000; stroke-width:60; stroke-opacity:1; 
stroke-linecap:round; stroke-linejoin:round;fill:none"
d="M 20750,39750
20000,39000
Z" /> 
<path style="fill:#840000; fill-opacity:0.0; 
stroke:#840000; stroke-width:60; stroke-opacity:1; 
stroke-linecap:round; stroke-linejoin:round;fill:none"
d="M 20750,40250
20000,41000
20000,41000
Z" /> 
</g>
<g style="fill:#840000; fill-opacity:0.0; 
stroke:#840000; stroke-width:200; stroke-opacity:1; 
stroke-linecap:round; stroke-linejoin:round;">
<path style="fill:#840000; fill-opacity:0.0; 
stroke:#840000; stroke-width:200; stroke-opacity:1; 
stroke-linecap:round; stroke-linejoin:round;fill:none"
d="M 20750,39250
20750,40750
20750,40750
Z" /> 
</g>
<g style="fill:#840000; fill-opacity:1.0; 
stroke:#840000; stroke-width:60; stroke-opacity:1; 
stroke-linecap:round; stroke-linejoin:round;">
<path style="fill:#840000; fill-opacity:1.0; 
stroke:#840000; stroke-width:60; stroke-opacity:1; 
stroke-linecap:round; stroke-linejoin:round;fill-rule:evenodd;"
d="M 20500,40700
20300,40500
20100,40900
20500,40700
20500,40700
Z" /> 
</g>
<g style="fill:#840000; fill-opacity:0.0; 
stroke:#840000; stroke-width:60; stroke-opacity:1; 
stroke-linecap:round; stroke-linejoin:round;">
<path d="M20000 39000
L20000 38000
" />
<path d="M20570 38350
L20570 38640
" />
<path d="M20570 38500
L20070 38500
L20140 38540
L20190 38590
L20210 38640
" />
<path d="M21000 40000
L23000 40000
" />
<path d="M21850 40120
L21880 40100
L21920 40070
L22040 40070
L22090 40100
L22110 40120
L22140 40170
L22140 40210
L22110 40290
L21830 40570
L22140 40570
" />
<path d="M20000 41000
L20000 42000
" />
<path d="M20070 41660
L20070 41350
L20260 41520
L20260 41450
L20290 41400
L20310 41380
L20360 41350
L20480 41350
L20520 41380
L20550 41400
L20570 41450
L20570 41590
L20550 41640
L20520 41660
" />
</g>
<g style="fill:#008484; fill-opacity:0.0; 
stroke:#008484; stroke-width:60; stroke-opacity:1; 
stroke-linecap:round; stroke-linejoin:round;">
<path d="M18200 39280
L18370 39780
L18530 39280
" />
<path d="M18960 39780
L18680 39780
" />
<path d="M18820 39780
L18820 39280
L18770 39350
L18720 39400
L18680 39420
" />
<path d="M16910 40430
L16980 40450
L17000 40480
L17030 40520
L17030 40600
L17000 40640
L16980 40670
L16930 40690
L16740 40690
L16740 40190
L16910 40190
L16950 40220
L16980 40240
L17000 40290
L17000 40330
L16980 40380
L16950 40410
L16910 40430
L16740 40430
" />
<path d="M17530 40640
L17500 40670
L17430 40690
L17380 40690
L17310 40670
L17260 40620
L17240 40570
L17220 40480
L17220 40410
L17240 40310
L17260 40260
L17310 40220
L17380 40190
L17430 40190
L17500 40220
L17530 40240
" />
<path d="M17980 40190
L17740 40190
L17720 40430
L17740 40410
L17790 40380
L17910 40380
L17950 40410
L17980 40430
L18000 40480
L18000 40600
L17980 40640
L17950 40670
L17910 40690
L17790 40690
L17740 40670
L17720 40640
" />
<path d="M18430 40360
L18430 40690
" />
<path d="M18310 40170
L18190 40520
L18500 40520
" />
<path d="M18910 40190
L18810 40190
L18760 40220
L18740 40240
L18690 40310
L18670 40410
L18670 40600
L18690 40640
L18720 40670
L18760 40690
L18860 40690
L18910 40670
L18930 40640
L18950 40600
L18950 40480
L18930 40430
L18910 40410
L18860 40380
L18760 40380
L18720 40410
L18690 40430
L18670 40480
" />
</g>
</g>
<g style="fill:#008484; fill-opacity:0.0; 
stroke:#008484; stroke-width:0; stroke-opacity:1; 
stroke-linecap:round; stroke-linejoin:round;">
<g >
</g>
<g style="fill:#840000; fill-opacity:0.0; 
stroke:#840000; stroke-width:0; stroke-opacity:1; 
stroke-linecap:round; stroke-linejoin:round;">
</g>
<g style="fill:#840000; fill-opacity:0.0; 
stroke:#840000; stroke-width:100; stroke-opacity:1; 
stroke-linecap:round; stroke-linejoin:round;">
<circle cx="39500" cy="40000" r="1110" /> 
</g>
<g style="fill:#840000; fill-opacity:0.0; 
stroke:#840000; stroke-width:60; stroke-opacity:1; 
stroke-linecap:round; stroke-linejoin:round;">
<path style="fill:#840000; fill-opacity:0.0; 
stroke:#840000; stroke-width:60; stroke-opacity:1; 
stroke-linecap:round; stroke-linejoin:round;fill:none"
d="M 39000,40000
39250,40000
Z" /> 
<path style="fill:#840000; fill-opacity:0.0; 
stroke:#840000; stroke-width:60; stroke-opacity:1; 
stroke-linecap:round; stroke-linejoin:round;fill:none"
d="M 39250,39750
40000,39000
Z" /> 
<path style="fill:#840000; fill-opacity:0.0; 
stroke:#840000; stroke-width:60; stroke-opacity:1; 
stroke-linecap:round; stroke-linejoin:round;fill:none"
d="M 39250,40250
40000,41000
40000,41000
Z" /> 
</g>
<g style="fill:#840000; fill-opacity:0.0; 
stroke:#840000; stroke-width:200; stroke-opacity:1; 
stroke-linecap:round; stroke-linejoin:round;">
<path style="fill:#840000; fill-opacity:0.0; 
stroke:#840000; stroke-width:200; stroke-opacity:1; 
stroke-linecap:round; stroke-linejoin:round;fill:none"
d="M 39250,39250
39250,40750
39250,40750
Z" /> 
</g>
<g style="fill:#840000; fill-opacity:1.0; 
stroke:#840000; stroke-width:60; stroke-opacity:1; 
stroke-linecap:round; stroke-linejoin:round;">
<path style="fill:#840000; fill-opacity:1.0; 
stroke:#840000; stroke-width:60; stroke-opacity:1; 
stroke-linecap:round; stroke-linejoin:round;fill-rule:evenodd;"
d="M 39500,40700
39700,40500
39900,40900
39500,40700
39500,40700
Z" /> 
</g>
<g style="fill:#840000; fill-opacity:0.0; 
stroke:#840000; stroke-width:60; stroke-opacity:1; 
stroke-linecap:round; stroke-linejoin:round;">
<path d="M40000 39000
L40000 38000
" />
<path d="M40570 38350
L40570 38640
" />
<path d="M40570 38500
L40070 38500
L40140 38540
L40190 38590
L40210 38640
" />
<path d="M39000 40000
L37000 40000
" />
<path d="M37850 40120
L37880 40100
L37920 40070
L38040 40070
L38090 40100
L38110 40120
L38140 40170
L38140 40210
L38110 40290
L37830 40570
L38140 40570
" />
<path d="M40000 41000
L40000 42000
" />
<path d="M40070 41660
L40070 41350
L40260 41520
L40260 41450
L40290 41400
L40310 41380
L40360 41350
L40480 41350
L40520 41380
L40550 41400
L40570 41450
L40570 41590
L40550 41640
L40520 41660
" />
</g>
<g style="fill:#008484; fill-opacity:0.0; 
stroke:#008484; stroke-width:60; stroke-opacity:1; 
stroke-linecap:round; stroke-linejoin:round;">
<path d="M40980 39280
L41150 39780
L41310 39280
" />
<path d="M41460 39330
L41480 39310
L41530 39280
L41650 39280
L41690 39310
L41720 39330
L41740 39380
L41740 39420
L41720 39500
L41430 39780
L41740 39780
" />
<path d="M41220 40430
L41290 40450
L41310 40480
L41340 40520
L41340 40600
L41310 40640
L41290 40670
L41240 40690
L41050 40690
L41050 40190
L41220 40190
L41260 40220
L41290 40240
L41310 40290
L41310 40330
L41290 40380
L41260 40410
L41220 40430
L41050 40430
" />
<path d="M41840 40640
L41810 40670
L41740 40690
L41690 40690
L41620 40670
L41570 40620
L41550 40570
L41530 40480
L41530 40410
L41550 40310
L41570 40260
L41620 40220
L41690 40190
L41740 40190
L41810 40220
L41840 40240
" />
<path d="M42290 40190
L42050 40190
L42030 40430
L42050 40410
L42100 40380
L42220 40380
L42260 40410
L42290 40430
L42310 40480
L42310 40600
L42290 40640
L42260 40670
L42220 40690
L42100 40690
L42050 40670
L42030 40640
" />
<path d="M42740 40360
L42740 40690
" />
<path d="M42620 40170
L42500 40520
L42810 40520
" />
<path d="M43220 40190
L43120 40190
L43070 40220
L43050 40240
L43000 40310
L42980 40410
L42980 40600
L43000 40640
L43030 40670
L43070 40690
L43170 40690
L43220 40670
L43240 40640
L43260 40600
L43260 40480
L43240 40430
L43220 40410
L43170 40380
L43070 40380
L43030 40410
L43000 40430
L42980 40480
" />
</g>
</g>
<g style="fill:#008484; fill-opacity:0.0; 
stroke:#008484; stroke-width:0; stroke-opacity:1; 
stroke-linecap:round; stroke-linejoin:round;">
<g >
</g>
<g style="fill:#840000; fill-opacity:0.0; 
stroke:#840000; stroke-width:0; stroke-opacity:1; 
stroke-linecap:round; stroke-linejoin:round;">
</g>
<g style="fill:#840000; fill-opacity:0.0; 
stroke:#840000; stroke-width:60; stroke-opacity:1; 
stroke-linecap:round; stroke-linejoin:round;">
<rect x="22100" y="34100" width="200" height="1800" rx="0" />
</g>
<g style="fill:#840000; fill-opacity:1.0; 
stroke:#840000; stroke-width:60; stroke-opacity:1; 
stroke-linecap:round; stroke-linejoin:round;">
<rect x="22700" y="34100" width="200" height="1800" rx="0" />
</g>
<g style="fill:#840000; fill-opacity:0.0; 
stroke:#840000; stroke-width:60; stroke-opacity:1; 
stroke-linecap:round; stroke-linejoin:round;">
<path style="fill:#840000; fill-opacity:0.0; 
stroke:#840000; stroke-width:60; stroke-opacity:1; 
stroke-linecap:round; stroke-linejoin:round;fill:none"
d="M 21600,35700
21600,35300
Z" /> 
<path style="fill:#840000; fill-opacity:0.0; 
stroke:#840000; stroke-width:60; stroke-opacity:1; 
stroke-linecap:round; stroke-linejoin:round;fill:none"
d="M 21400,35500
21800,35500
Z" /> 
<path d="M22100 35000
L21000 35000
" />
<path d="M22900 35000
L24000 35000
" />
</g>
<g style="fill:#008484; fill-opacity:0.0; 
stroke:#008484; stroke-width:60; stroke-opacity:1; 
stroke-linecap:round; stroke-linejoin:round;">
<path d="M22410 32590
L22390 32620
L22320 32640
L22270 32640
L22200 32620
L22150 32570
L22130 32520
L22100 32430
L22100 32360
L22130 32260
L22150 32210
L22200 32170
L22270 32140
L22320 32140
L22390 32170
L22410 32190
" />
<path d="M22890 32640
L22600 32640
" />
<path d="M22750 32640
L22750 32140
L22700 32210
L22650 32260
L22600 32280
" />
<path d="M21890 33100
L21910 33080
L21960 33050
L22080 33050
L22130 33080
L22150 33100
L22170 33150
L22170 33190
L22150 33270
L21860 33550
L22170 33550
" />
<path d="M22360 33100
L22390 33080
L22440 33050
L22550 33050
L22600 33080
L22630 33100
L22650 33150
L22650 33190
L22630 33270
L22340 33550
L22650 33550
" />
<path d="M23080 33220
L23080 33550
" />
<path d="M22860 33220
L22860 33480
L22890 33530
L22940 33550
L23010 33550
L23050 33530
L23080 33500
" />
</g>
</g>
<g style="fill:#008484; fill-opacity:0.0; 
stroke:#008484; stroke-width:0; stroke-opacity:1; 
stroke-linecap:round; stroke-linejoin:round;">
<g >
</g>
<g style="fill:#840000; fill-opacity:0.0; 
stroke:#840000; stroke-width:0; stroke-opacity:1; 
stroke-linecap:round; stroke-linejoin:round;">
</g>
<g style="fill:#840000; fill-opacity:0.0; 
stroke:#840000; stroke-width:80; stroke-opacity:1; 
stroke-linecap:round; stroke-linejoin:round;">
<path style="fill:#840000; fill-opacity:0.0; 
stroke:#840000; stroke-width:80; stroke-opacity:1; 
stroke-linecap:round; stroke-linejoin:round;fill:none"
d="M 40500,30500
39500,30500
Z" /> 
</g>
<g style="fill:#840000; fill-opacity:0.0; 
stroke:#840000; stroke-width:60; stroke-opacity:1; 
stroke-linecap:round; stroke-linejoin:round;">
<path style="fill:#840000; fill-opacity:0.0; 
stroke:#840000; stroke-width:60; stroke-opacity:1; 
stroke-linecap:round; stroke-linejoin:round;fill:none"
d="M 40000,30500
40000,29500
Z" /> 
</g>
<g style="fill:#840000; fill-opacity:0.0; 
stroke:#840000; stroke-width:80; stroke-opacity:1; 
stroke-linecap:round; stroke-linejoin:round;">
<path style="fill:#840000; fill-opacity:0.0; 
stroke:#840000; stroke-width:80; stroke-opacity:1; 
stroke-linecap:round; stroke-linejoin:round;fill:none"
d="M 40500,29500
39500,29500
40000,30500
40500,29500
Z" /> 
</g>
<g style="fill:#840000; fill-opacity:0.0; 
stroke:#840000; stroke-width:60; stroke-opacity:1; 
stroke-linecap:round; stroke-linejoin:round;">
<path style="fill:#840000; fill-opacity:0.0; 
stroke:#840000; stroke-width:60; stroke-opacity:1; 
stroke-linecap:round; stroke-linejoin:round;fill:none"
d="M 40300,31200
40900,31800
40900,31500
40900,31800
40600,31800
Z" /> 
<path style="fill:#840000; fill-opacity:0.0; 
stroke:#840000; stroke-width:60; stroke-opacity:1; 
stroke-linecap:round; stroke-linejoin:round;fill:none"
d="M 40300,30700
40900,31300
40900,31000
40900,31300
40600,31300
Z" /> 
<path d="M40000 30500
L40000 31500
" />
<path d="M40000 29500
L40000 28500
" />
</g>
<g style="fill:#008484; fill-opacity:0.0; 
stroke:#008484; stroke-width:60; stroke-opacity:1; 
stroke-linecap:round; stroke-linejoin:round;">
<path d="M41330 29800
L41330 29300
L41450 29300
L41520 29330
L41560 29370
L41590 29420
L41610 29520
L41610 29590
L41590 29680
L41560 29730
L41520 29780
L41450 29800
L41330 29800
" />
<path d="M41800 29350
L41830 29330
L41870 29300
L41990 29300
L42040 29330
L42060 29350
L42090 29400
L42090 29440
L42060 29520
L41780 29800
L42090 29800
" />
<path d="M41330 30710
L41330 30380
" />
<path d="M41330 30470
L41350 30430
L41370 30400
L41420 30380
L41470 30380
" />
<path d="M41560 30380
L41760 30380
" />
<path d="M41640 30210
L41640 30640
L41660 30690
L41710 30710
L41760 30710
" />
</g>
</g>
<g style="fill:#008484; fill-opacity:0.0; 
stroke:#008484; stroke-width:0; stroke-opacity:1; 
stroke-linecap:round; stroke-linejoin:round;">
<g >
</g>
<g style="fill:#840000; fill-opacity:0.0; 
stroke:#840000; stroke-width:0; stroke-opacity:1; 
stroke-linecap:round; stroke-linejoin:round;">
</g>
<g style="fill:#840000; fill-opacity:0.0; 
stroke:#840000; stroke-width:80; stroke-opacity:1; 
stroke-linecap:round; stroke-linejoin:round;">
<path style="fill:#840000; fill-opacity:0.0; 
stroke:#840000; stroke-width:80; stroke-opacity:1; 
stroke-linecap:round; stroke-linejoin:round;fill:none"
d="M 20500,30500
19500,30500
Z" /> 
</g>
<g style="fill:#840000; fill-opacity:0.0; 
stroke:#840000; stroke-width:60; stroke-opacity:1; 
stroke-linecap:round; stroke-linejoin:round;">
<path style="fill:#840000; fill-opacity:0.0; 
stroke:#840000; stroke-width:60; stroke-opacity:1; 
stroke-linecap:round; stroke-linejoin:round;fill:none"
d="M 20000,30500
20000,29500
Z" /> 
</g>
<g style="fill:#840000; fill-opacity:0.0; 
stroke:#840000; stroke-width:80; stroke-opacity:1; 
stroke-linecap:round; stroke-linejoin:round;">
<path style="fill:#840000; fill-opacity:0.0; 
stroke:#840000; stroke-width:80; stroke-opacity:1; 
stroke-linecap:round; stroke-linejoin:round;fill:none"
d="M 20500,29500
19500,29500
20000,30500
20500,29500
Z" /> 
</g>
<g style="fill:#840000; fill-opacity:0.0; 
stroke:#840000; stroke-width:60; stroke-opacity:1; 
stroke-linecap:round; stroke-linejoin:round;">
<path style="fill:#840000; fill-opacity:0.0; 
stroke:#840000; stroke-width:60; stroke-opacity:1; 
stroke-linecap:round; stroke-linejoin:round;fill:none"
d="M 20300,31200
20900,31800
20900,31500
20900,31800
20600,31800
Z" /> 
<path style="fill:#840000; fill-opacity:0.0; 
stroke:#840000; stroke-width:60; stroke-opacity:1; 
stroke-linecap:round; stroke-linejoin:round;fill:none"
d="M 20300,30700
20900,31300
20900,31000
20900,31300
20600,31300
Z" /> 
<path d="M20000 30500
L20000 31500
" />
<path d="M20000 29500
L20000 28500
" />
</g>
<g style="fill:#008484; fill-opacity:0.0; 
stroke:#008484; stroke-width:60; stroke-opacity:1; 
stroke-linecap:round; stroke-linejoin:round;">
<path d="M21330 29800
L21330 29300
L21450 29300
L21520 29330
L21560 29370
L21590 29420
L21610 29520
L21610 29590
L21590 29680
L21560 29730
L21520 29780
L21450 29800
L21330 29800
" />
<path d="M22090 29800
L21800 29800
" />
<path d="M21950 29800
L21950 29300
L21900 29370
L21850 29420
L21800 29440
" />
<path d="M21330 30710
L21330 30380
" />
<path d="M21330 30470
L21350 30430
L21370 30400
L21420 30380
L21470 30380
" />
<path d="M21560 30380
L21760 30380
" />
<path d="M21640 30210
L21640 30640
L21660 30690
L21710 30710
L21760 30710
" />
</g>
</g>
<g style="fill:#008484; fill-opacity:0.0; 
stroke:#008484; stroke-width:0; stroke-opacity:1; 
stroke-linecap:round; stroke-linejoin:round;">
<g >
</g>
<g style="fill:#840000; fill-opacity:0.0; 
stroke:#840000; stroke-width:0; stroke-opacity:1; 
stroke-linecap:round; stroke-linejoin:round;">
</g>
<g style="fill:#840000; fill-opacity:0.0; 
stroke:#840000; stroke-width:100; stroke-opacity:1; 
stroke-linecap:round; stroke-linejoin:round;">
<rect x="39600" y="24000" width="800" height="2000" rx="0" />
</g>
<g style="fill:#840000; fill-opacity:0.0; 
stroke:#840000; stroke-width:60; stroke-opacity:1; 
stroke-linecap:round; stroke-linejoin:round;">
<path d="M40000 24000
L40000 23500
" />
<path d="M40000 26000
L40000 26500
" />
</g>
<g style="fill:#008484; fill-opacity:0.0; 
stroke:#008484; stroke-width:60; stroke-opacity:1; 
stroke-linecap:round; stroke-linejoin:round;">
<path d="M41130 24780
L40970 24540
" />
<path d="M40850 24780
L40850 24280
L41040 24280
L41080 24310
L41110 24330
L41130 24380
L41130 24450
L41110 24500
L41080 24520
L41040 24540
L40850 24540
" />
<path d="M41560 24450
L41560 24780
" />
<path d="M41440 24260
L41320 24610
L41630 24610
" />
<path d="M41050 25190
L40960 25190
L40910 25220
L40890 25240
L40840 25310
L40820 25410
L40820 25600
L40840 25640
L40860 25670
L40910 25690
L41010 25690
L41050 25670
L41080 25640
L41100 25600
L41100 25480
L41080 25430
L41050 25410
L41010 25380
L40910 25380
L40860 25410
L40840 25430
L40820 25480
" />
<path d="M41390 25410
L41340 25380
L41320 25360
L41290 25310
L41290 25290
L41320 25240
L41340 25220
L41390 25190
L41480 25190
L41530 25220
L41550 25240
L41580 25290
L41580 25310
L41550 25360
L41530 25380
L41480 25410
L41390 25410
L41340 25430
L41320 25450
L41290 25500
L41290 25600
L41320 25640
L41340 25670
L41390 25690
L41480 25690
L41530 25670
L41550 25640
L41580 25600
L41580 25500
L41550 25450
L41530 25430
L41480 25410
" />
<path d="M41890 25190
L41940 25190
L41980 25220
L42010 25240
L42030 25290
L42050 25380
L42050 25500
L42030 25600
L42010 25640
L41980 25670
L41940 25690
L41890 25690
L41840 25670
L41820 25640
L41790 25600
L41770 25500
L41770 25380
L41790 25290
L41820 25240
L41840 25220
L41890 25190
" />
</g>
</g>
<g style="fill:#008484; fill-opacity:0.0; 
stroke:#008484; stroke-width:0; stroke-opacity:1; 
stroke-linecap:round; stroke-linejoin:round;">
<g >
</g>
<g style="fill:#840000; fill-opacity:0.0; 
stroke:#840000; stroke-width:0; stroke-opacity:1; 
stroke-linecap:round; stroke-linejoin:round;">
</g>
<g style="fill:#840000; fill-opacity:0.0; 
stroke:#840000; stroke-width:60; stroke-opacity:1; 
stroke-linecap:round; stroke-linejoin:round;">
<rect x="37700" y="34100" width="200" height="1800" rx="0" />
</g>
<g style="fill:#840000; fill-opacity:1.0; 
stroke:#840000; stroke-width:60; stroke-opacity:1; 
stroke-linecap:round; stroke-linejoin:round;">
<rect x="37100" y="34100" width="200" height="1800" rx="0" />
</g>
<g style="fill:#840000; fill-opacity:0.0; 
stroke:#840000; stroke-width:60; stroke-opacity:1; 
stroke-linecap:round; stroke-linejoin:round;">
<path style="fill:#840000; fill-opacity:0.0; 
stroke:#840000; stroke-width:60; stroke-opacity:1; 
stroke-linecap:round; stroke-linejoin:round;fill:none"
d="M 38400,34300
38400,34700
Z" /> 
<path style="fill:#840000; fill-opacity:0.0; 
stroke:#840000; stroke-width:60; stroke-opacity:1; 
stroke-linecap:round; stroke-linejoin:round;fill:none"
d="M 38600,34500
38200,34500
Z" /> 
<path d="M37900 35000
L39000 35000
" />
<path d="M37100 35000
L36000 35000
" />
</g>
<g style="fill:#008484; fill-opacity:0.0; 
stroke:#008484; stroke-width:60; stroke-opacity:1; 
stroke-linecap:round; stroke-linejoin:round;">
<path d="M37410 32640
L37390 32670
L37320 32690
L37270 32690
L37200 32670
L37150 32620
L37130 32570
L37100 32480
L37100 32410
L37130 32310
L37150 32260
L37200 32220
L37270 32190
L37320 32190
L37390 32220
L37410 32240
" />
<path d="M37600 32240
L37630 32220
L37670 32190
L37790 32190
L37840 32220
L37860 32240
L37890 32290
L37890 32330
L37860 32410
L37580 32690
L37890 32690
" />
<path d="M36890 33150
L36910 33130
L36960 33100
L37080 33100
L37130 33130
L37150 33150
L37170 33200
L37170 33240
L37150 33320
L36860 33600
L37170 33600
" />
<path d="M37360 33150
L37390 33130
L37440 33100
L37550 33100
L37600 33130
L37630 33150
L37650 33200
L37650 33240
L37630 33320
L37340 33600
L37650 33600
" />
<path d="M38080 33270
L38080 33600
" />
<path d="M37860 33270
L37860 33530
L37890 33580
L37940 33600
L38010 33600
L38050 33580
L38080 33550
" />
</g>
</g>
<g style="fill:#008484; fill-opacity:0.0; 
stroke:#008484; stroke-width:0; stroke-opacity:1; 
stroke-linecap:round; stroke-linejoin:round;">
<g >
</g>
<g style="fill:#840000; fill-opacity:0.0; 
stroke:#840000; stroke-width:0; stroke-opacity:1; 
stroke-linecap:round; stroke-linejoin:round;">
</g>
<g style="fill:#840000; fill-opacity:0.0; 
stroke:#840000; stroke-width:100; stroke-opacity:1; 
stroke-linecap:round; stroke-linejoin:round;">
<rect x="34600" y="24000" width="800" height="2000" rx="0" />
</g>
<g style="fill:#840000; fill-opacity:0.0; 
stroke:#840000; stroke-width:60; stroke-opacity:1; 
stroke-linecap:round; stroke-linejoin:round;">
<path d="M35000 24000
L35000 23500
" />
<path d="M35000 26000
L35000 26500
" />
</g>
<g style="fill:#008484; fill-opacity:0.0; 
stroke:#008484; stroke-width:60; stroke-opacity:1; 
stroke-linecap:round; stroke-linejoin:round;">
<path d="M36130 24780
L35970 24540
" />
<path d="M35850 24780
L35850 24280
L36040 24280
L36080 24310
L36110 24330
L36130 24380
L36130 24450
L36110 24500
L36080 24520
L36040 24540
L35850 24540
" />
<path d="M36300 24280
L36610 24280
L36440 24470
L36510 24470
L36560 24500
L36580 24520
L36610 24570
L36610 24690
L36580 24730
L36560 24760
L36510 24780
L36370 24780
L36320 24760
L36300 24730
" />
<path d="M35800 25190
L36110 25190
L35940 25380
L36010 25380
L36060 25410
L36080 25430
L36110 25480
L36110 25600
L36080 25640
L36060 25670
L36010 25690
L35870 25690
L35820 25670
L35800 25640
" />
<path d="M36350 25690
L36440 25690
L36490 25670
L36510 25640
L36560 25570
L36580 25480
L36580 25290
L36560 25240
L36540 25220
L36490 25190
L36390 25190
L36350 25220
L36320 25240
L36300 25290
L36300 25410
L36320 25450
L36350 25480
L36390 25500
L36490 25500
L36540 25480
L36560 25450
L36580 25410
" />
<path d="M36800 25690
L36800 25190
" />
<path d="M36850 25500
L36990 25690
" />
<path d="M36990 25360
L36800 25550
" />
</g>
</g>
<g style="fill:#008484; fill-opacity:0.0; 
stroke:#008484; stroke-width:60; stroke-opacity:1; 
stroke-linecap:round; stroke-linejoin:round;">
</g>
<g style="fill:#008400; fill-opacity:0.0; 
stroke:#008400; stroke-width:60; stroke-opacity:1; 
stroke-linecap:round; stroke-linejoin:round;">
<path d="M37000 40000
L36500 40000
" />
<path d="M23500 40000
L23000 40000
" />
<path d="M40000 31500
L40000 35000
" />
<path d="M20000 35000
L20000 38000
" />
<path d="M20000 42000
L20000 43500
" />
<path d="M40000 42000
L40000 43500
" />
<path d="M20000 43500
L40000 43500
" />
<path d="M40000 35000
L40000 38000
" />
<path d="M25000 35000
L27500 35000
" />
<path d="M27500 35000
L32500 40000
" />
<path d="M32500 40000
L33500 40000
" />
<path d="M35000 35000
L32500 35000
" />
<path d="M32500 35000
L27500 40000
" />
<path d="M27500 40000
L26500 40000
" />
<path d="M40000 43500
L41000 43500
" />
<path d="M40000 22000
L41000 22000
" />
<path d="M20000 22000
L20000 23500
" />
<path d="M20000 26500
L20000 28500
" />
<path d="M40000 23500
L40000 22000
" />
<path d="M35000 23500
L35000 22000
" />
<path d="M35000 22000
L40000 22000
" />
<path d="M35000 22000
L25000 22000
" />
<path d="M25000 22000
L25000 23500
" />
<path d="M25000 22000
L20000 22000
" />
<path d="M40000 28500
L40000 26500
" />
<path d="M25000 26500
L25000 35000
" />
<path d="M25000 35000
L24000 35000
" />
<path d="M21000 35000
L20000 35000
" />
<path d="M20000 35000
L20000 31500
" />
<path d="M35000 26500
L35000 35000
" />
<path d="M35000 35000
L36000 35000
" />
<path d="M39000 35000
L40000 35000
" />
</g>
<g style="fill:#008400; fill-opacity:0.0; 
stroke:#008400; stroke-width:0; stroke-opacity:1; 
stroke-linecap:round; stroke-linejoin:round;">
</g>
<g style="fill:#008400; fill-opacity:1.0; 
stroke:#008400; stroke-width:100; stroke-opacity:1; 
stroke-linecap:round; stroke-linejoin:round;">
<circle cx="40000" cy="43500" r="200" /> 
</g>
<g style="fill:#008400; fill-opacity:1.0; 
stroke:#008400; stroke-width:0; stroke-opacity:1; 
stroke-linecap:round; stroke-linejoin:round;">
</g>
<g style="fill:#008400; fill-opacity:1.0; 
stroke:#008400; stroke-width:100; stroke-opacity:1; 
stroke-linecap:round; stroke-linejoin:round;">
<circle cx="25000" cy="22000" r="200" /> 
</g>
<g style="fill:#008400; fill-opacity:1.0; 
stroke:#008400; stroke-width:0; stroke-opacity:1; 
stroke-linecap:round; stroke-linejoin:round;">
</g>
<g style="fill:#008400; fill-opacity:1.0; 
stroke:#008400; stroke-width:100; stroke-opacity:1; 
stroke-linecap:round; stroke-linejoin:round;">
<circle cx="35000" cy="22000" r="200" /> 
</g>
<g style="fill:#008400; fill-opacity:1.0; 
stroke:#008400; stroke-width:0; stroke-opacity:1; 
stroke-linecap:round; stroke-linejoin:round;">
</g>
<g style="fill:#008400; fill-opacity:1.0; 
stroke:#008400; stroke-width:100; stroke-opacity:1; 
stroke-linecap:round; stroke-linejoin:round;">
<circle cx="25000" cy="35000" r="200" /> 
</g>
<g style="fill:#008400; fill-opacity:1.0; 
stroke:#008400; stroke-width:0; stroke-opacity:1; 
stroke-linecap:round; stroke-linejoin:round;">
</g>
<g style="fill:#008400; fill-opacity:1.0; 
stroke:#008400; stroke-width:100; stroke-opacity:1; 
stroke-linecap:round; stroke-linejoin:round;">
<circle cx="20000" cy="35000" r="200" /> 
</g>
<g style="fill:#008400; fill-opacity:1.0; 
stroke:#008400; stroke-width:0; stroke-opacity:1; 
stroke-linecap:round; stroke-linejoin:round;">
</g>
<g style="fill:#008400; fill-opacity:1.0; 
stroke:#008400; stroke-width:100; stroke-opacity:1; 
stroke-linecap:round; stroke-linejoin:round;">
<circle cx="40000" cy="22000" r="200" /> 
</g>
<g style="fill:#008400; fill-opacity:1.0; 
stroke:#008400; stroke-width:0; stroke-opacity:1; 
stroke-linecap:round; stroke-linejoin:round;">
</g>
<g style="fill:#008400; fill-opacity:1.0; 
stroke:#008400; stroke-width:100; stroke-opacity:1; 
stroke-linecap:round; stroke-linejoin:round;">
<circle cx="35000" cy="35000" r="200" /> 
</g>
<g style="fill:#008400; fill-opacity:1.0; 
stroke:#008400; stroke-width:0; stroke-opacity:1; 
stroke-linecap:round; stroke-linejoin:round;">
</g>
<g style="fill:#008400; fill-opacity:1.0; 
stroke:#008400; stroke-width:100; stroke-opacity:1; 
stroke-linecap:round; stroke-linejoin:round;">
<circle cx="40000" cy="35000" r="200" /> 
</g> 
</svg>
