<?xml version="1.0" encoding="UTF-8" standalone="no"?>
<svg
   xmlns:dc="http://purl.org/dc/elements/1.1/"
   xmlns:cc="http://creativecommons.org/ns#"
   xmlns:rdf="http://www.w3.org/1999/02/22-rdf-syntax-ns#"
   xmlns:svg="http://www.w3.org/2000/svg"
   xmlns="http://www.w3.org/2000/svg"
   xmlns:sodipodi="http://sodipodi.sourceforge.net/DTD/sodipodi-0.dtd"
   xmlns:inkscape="http://www.inkscape.org/namespaces/inkscape"
   version="1.1"
   width="29.7002cm"
   height="21.0007cm"
   viewBox="0 0 116930 82680 "
   id="svg402"
   sodipodi:docname="astabile-kippstufe-fab.svg"
   inkscape:version="0.92.3 (2405546, 2018-03-11)">
  <metadata
     id="metadata408">
    <rdf:RDF>
      <cc:Work
         rdf:about="">
        <dc:format>image/svg+xml</dc:format>
        <dc:type
           rdf:resource="http://purl.org/dc/dcmitype/StillImage" />
      </cc:Work>
    </rdf:RDF>
  </metadata>
  <defs
     id="defs406" />
  <sodipodi:namedview
     pagecolor="#ffffff"
     bordercolor="#666666"
     borderopacity="1"
     objecttolerance="10"
     gridtolerance="10"
     guidetolerance="10"
     inkscape:pageopacity="0"
     inkscape:pageshadow="2"
     inkscape:window-width="1600"
     inkscape:window-height="1175"
     id="namedview404"
     showgrid="false"
     inkscape:zoom="3.0740289"
     inkscape:cx="580.24278"
     inkscape:cy="443.41056"
     inkscape:window-x="0"
     inkscape:window-y="0"
     inkscape:window-maximized="1"
     inkscape:current-layer="svg402" />
  <title
     id="title2">SVG Picture created as astabile-kippstufe-brd.svg date 2019/12/03 01:39:32 </title>
  <desc
     id="desc4">Picture generated by PCBNEW </desc>
  <g
     style="fill:#000000; fill-opacity:1;stroke:#000000; stroke-opacity:1; stroke-linecap:round; stroke-linejoin:round; "
     transform="translate(0 0) scale(1 1)"
     id="g6" />
  <g
     style="fill:#000000; fill-opacity:0.0;  stroke:#000000; stroke-width:-0.000393701; stroke-opacity:1;  stroke-linecap:round; stroke-linejoin:round;"
     id="g8" />
  <g
     style="fill:#000000; fill-opacity:0.0;  stroke:#000000; stroke-width:39.3701; stroke-opacity:1;  stroke-linecap:round; stroke-linejoin:round;"
     id="g160" />
  <g
     style="fill:#000000; fill-opacity:0.0;  stroke:#000000; stroke-width:78.7402; stroke-opacity:1;  stroke-linecap:round; stroke-linejoin:round;"
     id="g356" />
  <g
     id="g1409">
    <g
       id="g158"
       style="fill:#000000;fill-opacity:0;stroke:#000000;stroke-width:118.11033441;stroke-opacity:1;stroke-linecap:round;stroke-linejoin:round;stroke-miterlimit:4;stroke-dasharray:none">
      <circle
         style="stroke-width:118.11033441;stroke-miterlimit:4;stroke-dasharray:none"
         id="circle10"
         r="1968.5"
         cy="35236.2"
         cx="59842.5" />
      <path
         style="stroke-width:118.11033441;stroke-miterlimit:4;stroke-dasharray:none"
         id="path12"
         d="M58981 36924 L58981 36531 " />
      <path
         style="stroke-width:118.11033441;stroke-miterlimit:4;stroke-dasharray:none"
         id="path14"
         d="M58784 36727 L59178 36727 " />
      <circle
         style="stroke-width:118.11033441;stroke-miterlimit:4;stroke-dasharray:none"
         id="circle16"
         r="1968.5"
         cy="30511.8"
         cx="59842.5" />
      <path
         style="stroke-width:118.11033441;stroke-miterlimit:4;stroke-dasharray:none"
         id="path18"
         d="M60703 28823 L60703 29216 " />
      <path
         style="stroke-width:118.11033441;stroke-miterlimit:4;stroke-dasharray:none"
         id="path20"
         d="M60900 29020 L60506 29020 " />
      <path
         style="stroke-width:118.11033441;stroke-miterlimit:4;stroke-dasharray:none"
         id="path22"
         d="M54019 33720 L54019 34783 " />
      <path
         style="stroke-width:118.11033441;stroke-miterlimit:4;stroke-dasharray:none"
         id="path24"
         d="M54019 34783 L56066 34783 " />
      <path
         style="stroke-width:118.11033441;stroke-miterlimit:4;stroke-dasharray:none"
         id="path26"
         d="M56066 34783 L56066 33720 " />
      <path
         style="stroke-width:118.11033441;stroke-miterlimit:4;stroke-dasharray:none"
         id="path28"
         d="M56066 33720 L54019 33720 " />
      <path
         style="stroke-width:118.11033441;stroke-miterlimit:4;stroke-dasharray:none"
         id="path30"
         d="M53543 34251 L54019 34251 " />
      <path
         style="stroke-width:118.11033441;stroke-miterlimit:4;stroke-dasharray:none"
         id="path32"
         d="M56543 34251 L56066 34251 " />
      <path
         style="stroke-width:118.11033441;stroke-miterlimit:4;stroke-dasharray:none"
         id="path34"
         d="M54326 33720 L54326 34783 " />
      <path
         style="stroke-width:118.11033441;stroke-miterlimit:4;stroke-dasharray:none"
         id="path36"
         d="M54366 33720 L54366 34783 " />
      <path
         style="stroke-width:118.11033441;stroke-miterlimit:4;stroke-dasharray:none"
         id="path38"
         d="M54287 33720 L54287 34783 " />
      <path
         style="stroke-width:118.11033441;stroke-miterlimit:4;stroke-dasharray:none"
         id="path40"
         d="M54019 30964 L54019 32027 " />
      <path
         style="stroke-width:118.11033441;stroke-miterlimit:4;stroke-dasharray:none"
         id="path42"
         d="M54019 32027 L56066 32027 " />
      <path
         style="stroke-width:118.11033441;stroke-miterlimit:4;stroke-dasharray:none"
         id="path44"
         d="M56066 32027 L56066 30964 " />
      <path
         style="stroke-width:118.11033441;stroke-miterlimit:4;stroke-dasharray:none"
         id="path46"
         d="M56066 30964 L54019 30964 " />
      <path
         style="stroke-width:118.11033441;stroke-miterlimit:4;stroke-dasharray:none"
         id="path48"
         d="M53543 31496 L54019 31496 " />
      <path
         style="stroke-width:118.11033441;stroke-miterlimit:4;stroke-dasharray:none"
         id="path50"
         d="M56543 31496 L56066 31496 " />
      <path
         style="stroke-width:118.11033441;stroke-miterlimit:4;stroke-dasharray:none"
         id="path52"
         d="M54326 30964 L54326 32027 " />
      <path
         style="stroke-width:118.11033441;stroke-miterlimit:4;stroke-dasharray:none"
         id="path54"
         d="M54366 30964 L54366 32027 " />
      <path
         style="stroke-width:118.11033441;stroke-miterlimit:4;stroke-dasharray:none"
         id="path56"
         d="M54287 30964 L54287 32027 " />
      <path
         style="stroke-width:118.11033441;stroke-miterlimit:4;stroke-dasharray:none"
         id="path58"
         d="M66169 36712 L66169 35728 " />
      <path
         style="stroke-width:118.11033441;stroke-miterlimit:4;stroke-dasharray:none"
         id="path60"
         d="M66169 35728 L63688 35728 " />
      <path
         style="stroke-width:118.11033441;stroke-miterlimit:4;stroke-dasharray:none"
         id="path62"
         d="M63688 35728 L63688 36712 " />
      <path
         style="stroke-width:118.11033441;stroke-miterlimit:4;stroke-dasharray:none"
         id="path64"
         d="M63688 36712 L66169 36712 " />
      <path
         style="stroke-width:118.11033441;stroke-miterlimit:4;stroke-dasharray:none"
         id="path66"
         d="M66929 36220 L66169 36220 " />
      <path
         style="stroke-width:118.11033441;stroke-miterlimit:4;stroke-dasharray:none"
         id="path68"
         d="M62929 36220 L63688 36220 " />
      <path
         style="stroke-width:118.11033441;stroke-miterlimit:4;stroke-dasharray:none"
         id="path70"
         d="M66169 34744 L66169 33759 " />
      <path
         style="stroke-width:118.11033441;stroke-miterlimit:4;stroke-dasharray:none"
         id="path72"
         d="M66169 33759 L63688 33759 " />
      <path
         style="stroke-width:118.11033441;stroke-miterlimit:4;stroke-dasharray:none"
         id="path74"
         d="M63688 33759 L63688 34744 " />
      <path
         style="stroke-width:118.11033441;stroke-miterlimit:4;stroke-dasharray:none"
         id="path76"
         d="M63688 34744 L66169 34744 " />
      <path
         style="stroke-width:118.11033441;stroke-miterlimit:4;stroke-dasharray:none"
         id="path78"
         d="M66929 34251 L66169 34251 " />
      <path
         style="stroke-width:118.11033441;stroke-miterlimit:4;stroke-dasharray:none"
         id="path80"
         d="M62929 34251 L63688 34251 " />
      <path
         style="stroke-width:118.11033441;stroke-miterlimit:4;stroke-dasharray:none"
         id="path82"
         d="M66169 31988 L66169 31003 " />
      <path
         style="stroke-width:118.11033441;stroke-miterlimit:4;stroke-dasharray:none"
         id="path84"
         d="M66169 31003 L63688 31003 " />
      <path
         style="stroke-width:118.11033441;stroke-miterlimit:4;stroke-dasharray:none"
         id="path86"
         d="M63688 31003 L63688 31988 " />
      <path
         style="stroke-width:118.11033441;stroke-miterlimit:4;stroke-dasharray:none"
         id="path88"
         d="M63688 31988 L66169 31988 " />
      <path
         style="stroke-width:118.11033441;stroke-miterlimit:4;stroke-dasharray:none"
         id="path90"
         d="M66929 31496 L66169 31496 " />
      <path
         style="stroke-width:118.11033441;stroke-miterlimit:4;stroke-dasharray:none"
         id="path92"
         d="M62929 31496 L63688 31496 " />
      <path
         style="stroke-width:118.11033441;stroke-miterlimit:4;stroke-dasharray:none"
         id="path94"
         d="M66169 30019 L66169 29035 " />
      <path
         style="stroke-width:118.11033441;stroke-miterlimit:4;stroke-dasharray:none"
         id="path96"
         d="M66169 29035 L63688 29035 " />
      <path
         style="stroke-width:118.11033441;stroke-miterlimit:4;stroke-dasharray:none"
         id="path98"
         d="M63688 29035 L63688 30019 " />
      <path
         style="stroke-width:118.11033441;stroke-miterlimit:4;stroke-dasharray:none"
         id="path100"
         d="M63688 30019 L66169 30019 " />
      <path
         style="stroke-width:118.11033441;stroke-miterlimit:4;stroke-dasharray:none"
         id="path102"
         d="M66929 29527 L66169 29527 " />
      <path
         style="stroke-width:118.11033441;stroke-miterlimit:4;stroke-dasharray:none"
         id="path104"
         d="M62929 29527 L63688 29527 " />
      <path
         style="stroke-width:118.11033441;stroke-miterlimit:4;stroke-dasharray:none"
         id="path106"
         d="M52952 36909 L54330 36909 " />
      <path
         style="stroke-width:118.11033441;stroke-miterlimit:4;stroke-dasharray:none"
         id="path108"
         d="M54340 36910.9 A976.378 976.378 0.0 0 0 53649.6 35244.1 " />
      <path
         style="stroke-width:118.11033441;stroke-miterlimit:4;stroke-dasharray:none"
         id="path110"
         d="M53649.6 35244.1 A976.378 976.378 0.0 0 0 52959.2 36910.9 " />
      <path
         style="stroke-width:118.11033441;stroke-miterlimit:4;stroke-dasharray:none"
         id="path112"
         d="M54133 28838 L52755 28838 " />
      <path
         style="stroke-width:118.11033441;stroke-miterlimit:4;stroke-dasharray:none"
         id="path114"
         d="M52746.6 28837.2 A976.378 976.378 0.0 0 0 53437 30503.9 " />
      <path
         style="stroke-width:118.11033441;stroke-miterlimit:4;stroke-dasharray:none"
         id="path116"
         d="M53437 30503.9 A976.378 976.378 0.0 0 0 54127.4 28837.2 " />
      <path
         style="stroke-width:118.11033441;stroke-miterlimit:4;stroke-dasharray:none"
         id="path118"
         d="M50208.8 34555.1 A1141.73 1141.73 0.0 1 0 51366 34555.1 " />
      <circle
         style="stroke-width:118.11033441;stroke-miterlimit:4;stroke-dasharray:none"
         id="circle120"
         r="984.252"
         cy="35539.4"
         cx="50787.4" />
      <path
         style="stroke-width:118.11033441;stroke-miterlimit:4;stroke-dasharray:none"
         id="path122"
         d="M51366 34555 L50208 34555 " />
      <path
         style="stroke-width:118.11033441;stroke-miterlimit:4;stroke-dasharray:none"
         id="path124"
         d="M51366 31192.9 A1141.73 1141.73 0.0 1 0 50208.8 31192.9 " />
      <circle
         style="stroke-width:118.11033441;stroke-miterlimit:4;stroke-dasharray:none"
         id="circle126"
         r="984.252"
         cy="30208.7"
         cx="50787.4" />
      <path
         style="stroke-width:118.11033441;stroke-miterlimit:4;stroke-dasharray:none"
         id="path128"
         d="M50208 31192 L51366 31192 " />
      <g
         style="stroke-width:118.11033441;stroke-miterlimit:4;stroke-dasharray:none"
         id="g130" />
      <g
         style="stroke-width:118.11033441;stroke-miterlimit:4;stroke-dasharray:none"
         id="g132" />
      <g
         style="stroke-width:118.11033441;stroke-miterlimit:4;stroke-dasharray:none"
         id="g134" />
      <g
         style="stroke-width:118.11033441;stroke-miterlimit:4;stroke-dasharray:none"
         id="g136" />
      <g
         style="stroke-width:118.11033441;stroke-miterlimit:4;stroke-dasharray:none"
         id="g138" />
      <g
         style="stroke-width:118.11033441;stroke-miterlimit:4;stroke-dasharray:none"
         id="g140" />
      <g
         style="stroke-width:118.11033441;stroke-miterlimit:4;stroke-dasharray:none"
         id="g142" />
      <g
         style="stroke-width:118.11033441;stroke-miterlimit:4;stroke-dasharray:none"
         id="g144" />
      <g
         style="stroke-width:118.11033441;stroke-miterlimit:4;stroke-dasharray:none"
         id="g146" />
      <g
         style="stroke-width:118.11033441;stroke-miterlimit:4;stroke-dasharray:none"
         id="g148" />
      <g
         style="stroke-width:118.11033441;stroke-miterlimit:4;stroke-dasharray:none"
         id="g150" />
      <g
         style="stroke-width:118.11033441;stroke-miterlimit:4;stroke-dasharray:none"
         id="g152" />
      <g
         style="stroke-width:118.11033441;stroke-miterlimit:4;stroke-dasharray:none"
         id="g154" />
      <g
         style="stroke-width:118.11033441;stroke-miterlimit:4;stroke-dasharray:none"
         id="g156" />
    </g>
    <g
       id="g354"
       style="fill:#000000;fill-opacity:0;stroke:#000000;stroke-width:118.11033441;stroke-opacity:1;stroke-linecap:round;stroke-linejoin:round;stroke-miterlimit:4;stroke-dasharray:none">
      <path
         style="stroke-width:118.11033441;stroke-miterlimit:4;stroke-dasharray:none"
         id="path162"
         d="M68419 34794 L68813 35385 " />
      <path
         style="stroke-width:118.11033441;stroke-miterlimit:4;stroke-dasharray:none"
         id="path164"
         d="M68813 34794 L68419 35385 " />
      <path
         style="stroke-width:118.11033441;stroke-miterlimit:4;stroke-dasharray:none"
         id="path166"
         d="M69010 34850 L69038 34822 L69094 34794 L69235 34794 L69291 34822 L69319 34850 L69347 34907 L69347 34963 L69319 35047 L68982 35385 L69347 35385 " />
      <path
         style="stroke-width:118.11033441;stroke-miterlimit:4;stroke-dasharray:none"
         id="path168"
         d="M68498 28023 L68892 28613 " />
      <path
         style="stroke-width:118.11033441;stroke-miterlimit:4;stroke-dasharray:none"
         id="path170"
         d="M68892 28023 L68498 28613 " />
      <path
         style="stroke-width:118.11033441;stroke-miterlimit:4;stroke-dasharray:none"
         id="path172"
         d="M69426 28613 L69088 28613 " />
      <path
         style="stroke-width:118.11033441;stroke-miterlimit:4;stroke-dasharray:none"
         id="path174"
         d="M69257 28613 L69257 28023 L69201 28107 L69145 28163 L69088 28191 " />
      <path
         style="stroke-width:118.11033441;stroke-miterlimit:4;stroke-dasharray:none"
         id="path176"
         d="M59204 34890 L59232 34862 L59288 34834 L59429 34834 L59485 34862 L59513 34890 L59541 34946 L59541 35002 L59513 35087 L59176 35424 L59541 35424 " />
      <path
         style="stroke-width:118.11033441;stroke-miterlimit:4;stroke-dasharray:none"
         id="path178"
         d="M59766 34890 L59794 34862 L59850 34834 L59991 34834 L60047 34862 L60075 34890 L60104 34946 L60104 35002 L60075 35087 L59738 35424 L60104 35424 " />
      <path
         style="stroke-width:118.11033441;stroke-miterlimit:4;stroke-dasharray:none"
         id="path180"
         d="M60610 35030 L60610 35424 " />
      <path
         style="stroke-width:118.11033441;stroke-miterlimit:4;stroke-dasharray:none"
         id="path182"
         d="M60357 35030 L60357 35340 L60385 35396 L60441 35424 L60525 35424 L60582 35396 L60610 35368 " />
      <path
         style="stroke-width:118.11033441;stroke-miterlimit:4;stroke-dasharray:none"
         id="path184"
         d="M57775 33557 L57747 33585 L57663 33613 L57606 33613 L57522 33585 L57466 33529 L57438 33473 L57410 33360 L57410 33276 L57438 33163 L57466 33107 L57522 33051 L57606 33023 L57663 33023 L57747 33051 L57775 33079 " />
      <path
         style="stroke-width:118.11033441;stroke-miterlimit:4;stroke-dasharray:none"
         id="path186"
         d="M58000 33079 L58028 33051 L58084 33023 L58225 33023 L58281 33051 L58309 33079 L58338 33135 L58338 33191 L58309 33276 L57972 33613 L58338 33613 " />
      <path
         style="stroke-width:118.11033441;stroke-miterlimit:4;stroke-dasharray:none"
         id="path188"
         d="M59164 30362 L59192 30334 L59249 30306 L59389 30306 L59446 30334 L59474 30362 L59502 30419 L59502 30475 L59474 30559 L59136 30897 L59502 30897 " />
      <path
         style="stroke-width:118.11033441;stroke-miterlimit:4;stroke-dasharray:none"
         id="path190"
         d="M59727 30362 L59755 30334 L59811 30306 L59952 30306 L60008 30334 L60036 30362 L60064 30419 L60064 30475 L60036 30559 L59699 30897 L60064 30897 " />
      <path
         style="stroke-width:118.11033441;stroke-miterlimit:4;stroke-dasharray:none"
         id="path192"
         d="M60570 30503 L60570 30897 " />
      <path
         style="stroke-width:118.11033441;stroke-miterlimit:4;stroke-dasharray:none"
         id="path194"
         d="M60317 30503 L60317 30812 L60345 30868 L60402 30897 L60486 30897 L60542 30868 L60570 30840 " />
      <path
         style="stroke-width:118.11033441;stroke-miterlimit:4;stroke-dasharray:none"
         id="path196"
         d="M58011 28636 L57983 28664 L57899 28692 L57843 28692 L57758 28664 L57702 28607 L57674 28551 L57646 28439 L57646 28354 L57674 28242 L57702 28186 L57758 28129 L57843 28101 L57899 28101 L57983 28129 L58011 28158 " />
      <path
         style="stroke-width:118.11033441;stroke-miterlimit:4;stroke-dasharray:none"
         id="path198"
         d="M58574 28692 L58236 28692 " />
      <path
         style="stroke-width:118.11033441;stroke-miterlimit:4;stroke-dasharray:none"
         id="path200"
         d="M58405 28692 L58405 28101 L58349 28186 L58293 28242 L58236 28270 " />
      <path
         style="stroke-width:118.11033441;stroke-miterlimit:4;stroke-dasharray:none"
         id="path202"
         d="M54760 34519 L54760 33928 L54901 33928 L54985 33956 L55042 34012 L55070 34069 L55098 34181 L55098 34266 L55070 34378 L55042 34434 L54985 34491 L54901 34519 L54760 34519 " />
      <path
         style="stroke-width:118.11033441;stroke-miterlimit:4;stroke-dasharray:none"
         id="path204"
         d="M55604 34125 L55604 34519 " />
      <path
         style="stroke-width:118.11033441;stroke-miterlimit:4;stroke-dasharray:none"
         id="path206"
         d="M55464 33900 L55323 34322 L55688 34322 " />
      <path
         style="stroke-width:118.11033441;stroke-miterlimit:4;stroke-dasharray:none"
         id="path208"
         d="M53813 33180 L53475 33180 " />
      <path
         style="stroke-width:118.11033441;stroke-miterlimit:4;stroke-dasharray:none"
         id="path210"
         d="M53644 33180 L53644 32589 L53588 32674 L53532 32730 L53475 32758 " />
      <path
         style="stroke-width:118.11033441;stroke-miterlimit:4;stroke-dasharray:none"
         id="path212"
         d="M54066 33180 L54066 32589 L54403 33180 L54403 32589 " />
      <path
         style="stroke-width:118.11033441;stroke-miterlimit:4;stroke-dasharray:none"
         id="path214"
         d="M54938 32786 L54938 33180 " />
      <path
         style="stroke-width:118.11033441;stroke-miterlimit:4;stroke-dasharray:none"
         id="path216"
         d="M54797 32561 L54656 32983 L55022 32983 " />
      <path
         style="stroke-width:118.11033441;stroke-miterlimit:4;stroke-dasharray:none"
         id="path218"
         d="M55556 33180 L55219 33180 " />
      <path
         style="stroke-width:118.11033441;stroke-miterlimit:4;stroke-dasharray:none"
         id="path220"
         d="M55388 33180 L55388 32589 L55331 32674 L55275 32730 L55219 32758 " />
      <path
         style="stroke-width:118.11033441;stroke-miterlimit:4;stroke-dasharray:none"
         id="path222"
         d="M56062 32786 L56062 33180 " />
      <path
         style="stroke-width:118.11033441;stroke-miterlimit:4;stroke-dasharray:none"
         id="path224"
         d="M55922 32561 L55781 32983 L56147 32983 " />
      <path
         style="stroke-width:118.11033441;stroke-miterlimit:4;stroke-dasharray:none"
         id="path226"
         d="M56456 32843 L56400 32814 L56372 32786 L56344 32730 L56344 32702 L56372 32646 L56400 32618 L56456 32589 L56569 32589 L56625 32618 L56653 32646 L56681 32702 L56681 32730 L56653 32786 L56625 32814 L56569 32843 L56456 32843 L56400 32871 L56372 32899 L56344 32955 L56344 33068 L56372 33124 L56400 33152 L56456 33180 L56569 33180 L56625 33152 L56653 33124 L56681 33068 L56681 32955 L56653 32899 L56625 32871 L56569 32843 " />
      <path
         style="stroke-width:118.11033441;stroke-miterlimit:4;stroke-dasharray:none"
         id="path228"
         d="M54760 31763 L54760 31172 L54901 31172 L54985 31200 L55042 31257 L55070 31313 L55098 31425 L55098 31510 L55070 31622 L55042 31678 L54985 31735 L54901 31763 L54760 31763 " />
      <path
         style="stroke-width:118.11033441;stroke-miterlimit:4;stroke-dasharray:none"
         id="path230"
         d="M55295 31172 L55660 31172 L55464 31397 L55548 31397 L55604 31425 L55632 31453 L55660 31510 L55660 31650 L55632 31706 L55604 31735 L55548 31763 L55379 31763 L55323 31735 L55295 31706 " />
      <path
         style="stroke-width:118.11033441;stroke-miterlimit:4;stroke-dasharray:none"
         id="path232"
         d="M64510 35936 L64398 35936 L64341 35964 L64313 35992 L64257 36077 L64229 36189 L64229 36414 L64257 36470 L64285 36498 L64341 36526 L64454 36526 L64510 36498 L64538 36470 L64566 36414 L64566 36273 L64538 36217 L64510 36189 L64454 36161 L64341 36161 L64285 36189 L64257 36217 L64229 36273 " />
      <path
         style="stroke-width:118.11033441;stroke-miterlimit:4;stroke-dasharray:none"
         id="path234"
         d="M64904 36189 L64848 36161 L64820 36133 L64791 36077 L64791 36048 L64820 35992 L64848 35964 L64904 35936 L65016 35936 L65073 35964 L65101 35992 L65129 36048 L65129 36077 L65101 36133 L65073 36161 L65016 36189 L64904 36189 L64848 36217 L64820 36245 L64791 36302 L64791 36414 L64820 36470 L64848 36498 L64904 36526 L65016 36526 L65073 36498 L65101 36470 L65129 36414 L65129 36302 L65101 36245 L65073 36217 L65016 36189 " />
      <path
         style="stroke-width:118.11033441;stroke-miterlimit:4;stroke-dasharray:none"
         id="path236"
         d="M65494 35936 L65551 35936 L65607 35964 L65635 35992 L65663 36048 L65691 36161 L65691 36302 L65663 36414 L65635 36470 L65607 36498 L65551 36526 L65494 36526 L65438 36498 L65410 36470 L65382 36414 L65354 36302 L65354 36161 L65382 36048 L65410 35992 L65438 35964 L65494 35936 " />
      <path
         style="stroke-width:118.11033441;stroke-miterlimit:4;stroke-dasharray:none"
         id="path238"
         d="M64862 35582 L64665 35300 " />
      <path
         style="stroke-width:118.11033441;stroke-miterlimit:4;stroke-dasharray:none"
         id="path240"
         d="M64524 35582 L64524 34991 L64749 34991 L64805 35019 L64834 35047 L64862 35104 L64862 35188 L64834 35244 L64805 35272 L64749 35300 L64524 35300 " />
      <path
         style="stroke-width:118.11033441;stroke-miterlimit:4;stroke-dasharray:none"
         id="path242"
         d="M65368 35188 L65368 35582 " />
      <path
         style="stroke-width:118.11033441;stroke-miterlimit:4;stroke-dasharray:none"
         id="path244"
         d="M65227 34963 L65087 35385 L65452 35385 " />
      <path
         style="stroke-width:118.11033441;stroke-miterlimit:4;stroke-dasharray:none"
         id="path246"
         d="M64243 33928 L64609 33928 L64412 34153 L64496 34153 L64552 34181 L64580 34209 L64609 34266 L64609 34406 L64580 34462 L64552 34491 L64496 34519 L64327 34519 L64271 34491 L64243 34462 " />
      <path
         style="stroke-width:118.11033441;stroke-miterlimit:4;stroke-dasharray:none"
         id="path248"
         d="M64890 34519 L65002 34519 L65059 34491 L65087 34462 L65143 34378 L65171 34266 L65171 34041 L65143 33984 L65115 33956 L65059 33928 L64946 33928 L64890 33956 L64862 33984 L64834 34041 L64834 34181 L64862 34237 L64890 34266 L64946 34294 L65059 34294 L65115 34266 L65143 34237 L65171 34181 " />
      <path
         style="stroke-width:118.11033441;stroke-miterlimit:4;stroke-dasharray:none"
         id="path250"
         d="M65424 34519 L65424 33928 " />
      <path
         style="stroke-width:118.11033441;stroke-miterlimit:4;stroke-dasharray:none"
         id="path252"
         d="M65480 34294 L65649 34519 " />
      <path
         style="stroke-width:118.11033441;stroke-miterlimit:4;stroke-dasharray:none"
         id="path254"
         d="M65649 34125 L65424 34350 " />
      <path
         style="stroke-width:118.11033441;stroke-miterlimit:4;stroke-dasharray:none"
         id="path256"
         d="M64783 33534 L64586 33253 " />
      <path
         style="stroke-width:118.11033441;stroke-miterlimit:4;stroke-dasharray:none"
         id="path258"
         d="M64446 33534 L64446 32944 L64670 32944 L64727 32972 L64755 33000 L64783 33056 L64783 33141 L64755 33197 L64727 33225 L64670 33253 L64446 33253 " />
      <path
         style="stroke-width:118.11033441;stroke-miterlimit:4;stroke-dasharray:none"
         id="path260"
         d="M64980 32944 L65345 32944 L65149 33169 L65233 33169 L65289 33197 L65317 33225 L65345 33281 L65345 33422 L65317 33478 L65289 33506 L65233 33534 L65064 33534 L65008 33506 L64980 33478 " />
      <path
         style="stroke-width:118.11033441;stroke-miterlimit:4;stroke-dasharray:none"
         id="path262"
         d="M64282 31212 L64648 31212 L64451 31437 L64535 31437 L64592 31465 L64620 31493 L64648 31549 L64648 31690 L64620 31746 L64592 31774 L64535 31802 L64367 31802 L64311 31774 L64282 31746 " />
      <path
         style="stroke-width:118.11033441;stroke-miterlimit:4;stroke-dasharray:none"
         id="path264"
         d="M64929 31802 L65042 31802 L65098 31774 L65126 31746 L65182 31661 L65210 31549 L65210 31324 L65182 31268 L65154 31240 L65098 31212 L64985 31212 L64929 31240 L64901 31268 L64873 31324 L64873 31465 L64901 31521 L64929 31549 L64985 31577 L65098 31577 L65154 31549 L65182 31521 L65210 31465 " />
      <path
         style="stroke-width:118.11033441;stroke-miterlimit:4;stroke-dasharray:none"
         id="path266"
         d="M65464 31802 L65464 31212 " />
      <path
         style="stroke-width:118.11033441;stroke-miterlimit:4;stroke-dasharray:none"
         id="path268"
         d="M65520 31577 L65688 31802 " />
      <path
         style="stroke-width:118.11033441;stroke-miterlimit:4;stroke-dasharray:none"
         id="path270"
         d="M65688 31408 L65464 31633 " />
      <path
         style="stroke-width:118.11033441;stroke-miterlimit:4;stroke-dasharray:none"
         id="path272"
         d="M64783 30857 L64586 30576 " />
      <path
         style="stroke-width:118.11033441;stroke-miterlimit:4;stroke-dasharray:none"
         id="path274"
         d="M64446 30857 L64446 30267 L64670 30267 L64727 30295 L64755 30323 L64783 30379 L64783 30464 L64755 30520 L64727 30548 L64670 30576 L64446 30576 " />
      <path
         style="stroke-width:118.11033441;stroke-miterlimit:4;stroke-dasharray:none"
         id="path276"
         d="M65008 30323 L65036 30295 L65092 30267 L65233 30267 L65289 30295 L65317 30323 L65345 30379 L65345 30435 L65317 30520 L64980 30857 L65345 30857 " />
      <path
         style="stroke-width:118.11033441;stroke-miterlimit:4;stroke-dasharray:none"
         id="path278"
         d="M64510 29204 L64398 29204 L64341 29232 L64313 29260 L64257 29344 L64229 29457 L64229 29682 L64257 29738 L64285 29766 L64341 29794 L64454 29794 L64510 29766 L64538 29738 L64566 29682 L64566 29541 L64538 29485 L64510 29457 L64454 29429 L64341 29429 L64285 29457 L64257 29485 L64229 29541 " />
      <path
         style="stroke-width:118.11033441;stroke-miterlimit:4;stroke-dasharray:none"
         id="path280"
         d="M64904 29457 L64848 29429 L64820 29401 L64791 29344 L64791 29316 L64820 29260 L64848 29232 L64904 29204 L65016 29204 L65073 29232 L65101 29260 L65129 29316 L65129 29344 L65101 29401 L65073 29429 L65016 29457 L64904 29457 L64848 29485 L64820 29513 L64791 29569 L64791 29682 L64820 29738 L64848 29766 L64904 29794 L65016 29794 L65073 29766 L65101 29738 L65129 29682 L65129 29569 L65101 29513 L65073 29485 L65016 29457 " />
      <path
         style="stroke-width:118.11033441;stroke-miterlimit:4;stroke-dasharray:none"
         id="path282"
         d="M65494 29204 L65551 29204 L65607 29232 L65635 29260 L65663 29316 L65691 29429 L65691 29569 L65663 29682 L65635 29738 L65607 29766 L65551 29794 L65494 29794 L65438 29766 L65410 29738 L65382 29682 L65354 29569 L65354 29429 L65382 29316 L65410 29260 L65438 29232 L65494 29204 " />
      <path
         style="stroke-width:118.11033441;stroke-miterlimit:4;stroke-dasharray:none"
         id="path284"
         d="M64744 28849 L64547 28568 " />
      <path
         style="stroke-width:118.11033441;stroke-miterlimit:4;stroke-dasharray:none"
         id="path286"
         d="M64406 28849 L64406 28259 L64631 28259 L64687 28287 L64715 28315 L64744 28371 L64744 28456 L64715 28512 L64687 28540 L64631 28568 L64406 28568 " />
      <path
         style="stroke-width:118.11033441;stroke-miterlimit:4;stroke-dasharray:none"
         id="path288"
         d="M65306 28849 L64969 28849 " />
      <path
         style="stroke-width:118.11033441;stroke-miterlimit:4;stroke-dasharray:none"
         id="path290"
         d="M65137 28849 L65137 28259 L65081 28343 L65025 28399 L64969 28428 " />
      <path
         style="stroke-width:118.11033441;stroke-miterlimit:4;stroke-dasharray:none"
         id="path292"
         d="M55163 36217 L55247 36245 L55275 36273 L55303 36330 L55303 36414 L55275 36470 L55247 36498 L55191 36526 L54966 36526 L54966 35936 L55163 35936 L55219 35964 L55247 35992 L55275 36048 L55275 36105 L55247 36161 L55219 36189 L55163 36217 L54966 36217 " />
      <path
         style="stroke-width:118.11033441;stroke-miterlimit:4;stroke-dasharray:none"
         id="path294"
         d="M55894 36470 L55866 36498 L55781 36526 L55725 36526 L55641 36498 L55584 36442 L55556 36386 L55528 36273 L55528 36189 L55556 36077 L55584 36020 L55641 35964 L55725 35936 L55781 35936 L55866 35964 L55894 35992 " />
      <path
         style="stroke-width:118.11033441;stroke-miterlimit:4;stroke-dasharray:none"
         id="path296"
         d="M56428 35936 L56147 35936 L56119 36217 L56147 36189 L56203 36161 L56344 36161 L56400 36189 L56428 36217 L56456 36273 L56456 36414 L56428 36470 L56400 36498 L56344 36526 L56203 36526 L56147 36498 L56119 36470 " />
      <path
         style="stroke-width:118.11033441;stroke-miterlimit:4;stroke-dasharray:none"
         id="path298"
         d="M56962 36133 L56962 36526 " />
      <path
         style="stroke-width:118.11033441;stroke-miterlimit:4;stroke-dasharray:none"
         id="path300"
         d="M56822 35908 L56681 36330 L57047 36330 " />
      <path
         style="stroke-width:118.11033441;stroke-miterlimit:4;stroke-dasharray:none"
         id="path302"
         d="M57525 35936 L57412 35936 L57356 35964 L57328 35992 L57272 36077 L57244 36189 L57244 36414 L57272 36470 L57300 36498 L57356 36526 L57469 36526 L57525 36498 L57553 36470 L57581 36414 L57581 36273 L57553 36217 L57525 36189 L57469 36161 L57356 36161 L57300 36189 L57272 36217 L57244 36273 " />
      <path
         style="stroke-width:118.11033441;stroke-miterlimit:4;stroke-dasharray:none"
         id="path304"
         d="M53222 37196 L53419 37786 L53616 37196 " />
      <path
         style="stroke-width:118.11033441;stroke-miterlimit:4;stroke-dasharray:none"
         id="path306"
         d="M53785 37252 L53813 37224 L53869 37196 L54010 37196 L54066 37224 L54094 37252 L54122 37308 L54122 37365 L54094 37449 L53757 37786 L54122 37786 " />
      <path
         style="stroke-width:118.11033441;stroke-miterlimit:4;stroke-dasharray:none"
         id="path308"
         d="M54926 29524 L55011 29552 L55039 29580 L55067 29637 L55067 29721 L55039 29777 L55011 29805 L54955 29834 L54730 29834 L54730 29243 L54926 29243 L54983 29271 L55011 29299 L55039 29356 L55039 29412 L55011 29468 L54983 29496 L54926 29524 L54730 29524 " />
      <path
         style="stroke-width:118.11033441;stroke-miterlimit:4;stroke-dasharray:none"
         id="path310"
         d="M55658 29777 L55629 29805 L55545 29834 L55489 29834 L55404 29805 L55348 29749 L55320 29693 L55292 29580 L55292 29496 L55320 29384 L55348 29327 L55404 29271 L55489 29243 L55545 29243 L55629 29271 L55658 29299 " />
      <path
         style="stroke-width:118.11033441;stroke-miterlimit:4;stroke-dasharray:none"
         id="path312"
         d="M56192 29243 L55911 29243 L55883 29524 L55911 29496 L55967 29468 L56107 29468 L56164 29496 L56192 29524 L56220 29580 L56220 29721 L56192 29777 L56164 29805 L56107 29834 L55967 29834 L55911 29805 L55883 29777 " />
      <path
         style="stroke-width:118.11033441;stroke-miterlimit:4;stroke-dasharray:none"
         id="path314"
         d="M56726 29440 L56726 29834 " />
      <path
         style="stroke-width:118.11033441;stroke-miterlimit:4;stroke-dasharray:none"
         id="path316"
         d="M56586 29215 L56445 29637 L56811 29637 " />
      <path
         style="stroke-width:118.11033441;stroke-miterlimit:4;stroke-dasharray:none"
         id="path318"
         d="M57289 29243 L57176 29243 L57120 29271 L57092 29299 L57035 29384 L57007 29496 L57007 29721 L57035 29777 L57064 29805 L57120 29834 L57232 29834 L57289 29805 L57317 29777 L57345 29721 L57345 29580 L57317 29524 L57289 29496 L57232 29468 L57120 29468 L57064 29496 L57035 29524 L57007 29580 " />
      <path
         style="stroke-width:118.11033441;stroke-miterlimit:4;stroke-dasharray:none"
         id="path320"
         d="M53065 28023 L53262 28613 L53458 28023 " />
      <path
         style="stroke-width:118.11033441;stroke-miterlimit:4;stroke-dasharray:none"
         id="path322"
         d="M53965 28613 L53627 28613 " />
      <path
         style="stroke-width:118.11033441;stroke-miterlimit:4;stroke-dasharray:none"
         id="path324"
         d="M53796 28613 L53796 28023 L53740 28107 L53683 28163 L53627 28191 " />
      <path
         style="stroke-width:118.11033441;stroke-miterlimit:4;stroke-dasharray:none"
         id="path326"
         d="M50615 37432 L50615 37038 " />
      <path
         style="stroke-width:118.11033441;stroke-miterlimit:4;stroke-dasharray:none"
         id="path328"
         d="M50615 37151 L50643 37095 L50672 37066 L50728 37038 L50784 37038 " />
      <path
         style="stroke-width:118.11033441;stroke-miterlimit:4;stroke-dasharray:none"
         id="path330"
         d="M50897 37038 L51122 37038 " />
      <path
         style="stroke-width:118.11033441;stroke-miterlimit:4;stroke-dasharray:none"
         id="path332"
         d="M50981 36841 L50981 37348 L51009 37404 L51065 37432 L51122 37432 " />
      <path
         style="stroke-width:118.11033441;stroke-miterlimit:4;stroke-dasharray:none"
         id="path334"
         d="M50390 34243 L50390 33652 L50531 33652 L50615 33681 L50672 33737 L50700 33793 L50728 33906 L50728 33990 L50700 34102 L50672 34159 L50615 34215 L50531 34243 L50390 34243 " />
      <path
         style="stroke-width:118.11033441;stroke-miterlimit:4;stroke-dasharray:none"
         id="path336"
         d="M50953 33709 L50981 33681 L51037 33652 L51178 33652 L51234 33681 L51262 33709 L51290 33765 L51290 33821 L51262 33906 L50925 34243 L51290 34243 " />
      <path
         style="stroke-width:118.11033441;stroke-miterlimit:4;stroke-dasharray:none"
         id="path338"
         d="M50576 32156 L50576 31763 " />
      <path
         style="stroke-width:118.11033441;stroke-miterlimit:4;stroke-dasharray:none"
         id="path340"
         d="M50576 31875 L50604 31819 L50632 31791 L50688 31763 L50745 31763 " />
      <path
         style="stroke-width:118.11033441;stroke-miterlimit:4;stroke-dasharray:none"
         id="path342"
         d="M50857 31763 L51082 31763 " />
      <path
         style="stroke-width:118.11033441;stroke-miterlimit:4;stroke-dasharray:none"
         id="path344"
         d="M50942 31566 L50942 32072 L50970 32128 L51026 32156 L51082 32156 " />
      <path
         style="stroke-width:118.11033441;stroke-miterlimit:4;stroke-dasharray:none"
         id="path346"
         d="M50390 28771 L50390 28180 L50531 28180 L50615 28208 L50672 28264 L50700 28321 L50728 28433 L50728 28517 L50700 28630 L50672 28686 L50615 28742 L50531 28771 L50390 28771 " />
      <path
         style="stroke-width:118.11033441;stroke-miterlimit:4;stroke-dasharray:none"
         id="path348"
         d="M51290 28771 L50953 28771 " />
      <path
         style="stroke-width:118.11033441;stroke-miterlimit:4;stroke-dasharray:none"
         id="path350"
         d="M51122 28771 L51122 28180 L51065 28264 L51009 28321 L50953 28349 " />
      <g
         style="stroke-width:118.11033441;stroke-miterlimit:4;stroke-dasharray:none"
         id="g352" />
    </g>
    <g
       id="g400"
       style="fill:#000000;fill-opacity:0;stroke:#000000;stroke-width:118.11033441;stroke-opacity:1;stroke-linecap:round;stroke-linejoin:round;stroke-miterlimit:4;stroke-dasharray:none">
      <path
         style="stroke-width:118.11033441;stroke-miterlimit:4;stroke-dasharray:none"
         id="path358"
         d="M48425 39370 L48425 26771 " />
      <path
         style="stroke-width:118.11033441;stroke-miterlimit:4;stroke-dasharray:none"
         id="path360"
         d="M70866 39370 L48425 39370 " />
      <path
         style="stroke-width:118.11033441;stroke-miterlimit:4;stroke-dasharray:none"
         id="path362"
         d="M70866 36220 L70866 39370 " />
      <path
         style="stroke-width:118.11033441;stroke-miterlimit:4;stroke-dasharray:none"
         id="path364"
         d="M70866 36220 L70866 29527 " />
      <path
         style="stroke-width:118.11033441;stroke-miterlimit:4;stroke-dasharray:none"
         id="path366"
         d="M70866 26771 L48425 26771 " />
      <path
         style="stroke-width:118.11033441;stroke-miterlimit:4;stroke-dasharray:none"
         id="path368"
         d="M70866 29527 L70866 26771 " />
      <g
         style="stroke-width:118.11033441;stroke-miterlimit:4;stroke-dasharray:none"
         id="g370" />
      <g
         style="stroke-width:118.11033441;stroke-miterlimit:4;stroke-dasharray:none"
         id="g372" />
      <g
         style="stroke-width:118.11033441;stroke-miterlimit:4;stroke-dasharray:none"
         id="g374" />
      <g
         style="stroke-width:118.11033441;stroke-miterlimit:4;stroke-dasharray:none"
         id="g376" />
      <g
         style="stroke-width:118.11033441;stroke-miterlimit:4;stroke-dasharray:none"
         id="g378" />
      <g
         style="stroke-width:118.11033441;stroke-miterlimit:4;stroke-dasharray:none"
         id="g380" />
      <g
         style="stroke-width:118.11033441;stroke-miterlimit:4;stroke-dasharray:none"
         id="g382" />
      <g
         style="stroke-width:118.11033441;stroke-miterlimit:4;stroke-dasharray:none"
         id="g384" />
      <g
         style="stroke-width:118.11033441;stroke-miterlimit:4;stroke-dasharray:none"
         id="g386" />
      <g
         style="stroke-width:118.11033441;stroke-miterlimit:4;stroke-dasharray:none"
         id="g388" />
      <g
         style="stroke-width:118.11033441;stroke-miterlimit:4;stroke-dasharray:none"
         id="g390" />
      <g
         style="stroke-width:118.11033441;stroke-miterlimit:4;stroke-dasharray:none"
         id="g392" />
      <g
         style="stroke-width:118.11033441;stroke-miterlimit:4;stroke-dasharray:none"
         id="g394" />
      <g
         style="stroke-width:118.11033441;stroke-miterlimit:4;stroke-dasharray:none"
         id="g396" />
      <g
         style="stroke-width:118.11033441;stroke-miterlimit:4;stroke-dasharray:none"
         id="g398" />
    </g>
  </g>
</svg>
