G04 #@! TF.GenerationSoftware,KiCad,Pcbnew,5.1.5-52549c5~84~ubuntu18.04.1*
G04 #@! TF.CreationDate,2020-06-19T14:53:48+02:00*
G04 #@! TF.ProjectId,astabile-kippstufe,61737461-6269-46c6-952d-6b6970707374,V19.0.1*
G04 #@! TF.SameCoordinates,PX754d4c0PY5f5e100*
G04 #@! TF.FileFunction,Legend,Top*
G04 #@! TF.FilePolarity,Positive*
%FSLAX46Y46*%
G04 Gerber Fmt 4.6, Leading zero omitted, Abs format (unit mm)*
G04 Created by KiCad (PCBNEW 5.1.5-52549c5~84~ubuntu18.04.1) date 2020-06-19 14:53:48*
%MOMM*%
%LPD*%
G04 APERTURE LIST*
%ADD10C,0.050000*%
%ADD11C,0.150000*%
%ADD12C,0.120000*%
%ADD13C,0.200000*%
%ADD14C,0.075000*%
G04 APERTURE END LIST*
D10*
X0Y0D02*
X0Y32000000D01*
X57000000Y0D02*
X0Y0D01*
X57000000Y8000000D02*
X57000000Y0D01*
X57000000Y8000000D02*
X57000000Y25000000D01*
X57000000Y32000000D02*
X0Y32000000D01*
X57000000Y25000000D02*
X57000000Y32000000D01*
D11*
X54500000Y14500000D02*
X54500000Y14800000D01*
X50500000Y14500000D02*
X54500000Y14500000D01*
X50500000Y18500000D02*
X50500000Y14500000D01*
X54500000Y18500000D02*
X50500000Y18500000D01*
G36*
X54800000Y18800000D02*
G01*
X54800000Y14800000D01*
X51500000Y14800000D01*
X54720000Y14800000D01*
X54720000Y15450000D01*
X51500000Y15450000D01*
X51500000Y14800000D01*
X50800000Y14800000D01*
X54800000Y18800000D01*
G37*
X54800000Y18800000D02*
X54800000Y14800000D01*
X51500000Y14800000D01*
X54720000Y14800000D01*
X54720000Y15450000D01*
X51500000Y15450000D01*
X51500000Y14800000D01*
X50800000Y14800000D01*
X54800000Y18800000D01*
D12*
X31400000Y11000000D02*
X31300000Y11100000D01*
X31200000Y11000000D02*
X31400000Y11000000D01*
X31200000Y11300000D02*
X31200000Y11000000D01*
X31500000Y10900000D02*
X31200000Y11300000D01*
X31400000Y10900000D02*
X31500000Y10900000D01*
X31100000Y10900000D02*
X31400000Y10900000D01*
X31100000Y11400000D02*
X31100000Y10900000D01*
X31400000Y11100000D02*
X31100000Y11400000D01*
X31600000Y10800000D02*
X31400000Y11100000D01*
X31000000Y10800000D02*
X31600000Y10800000D01*
X31000000Y11600000D02*
X31000000Y10800000D01*
X31500000Y11100000D02*
X31000000Y11600000D01*
X31700000Y10700000D02*
X31500000Y11100000D01*
X31600000Y10700000D02*
X31700000Y10700000D01*
X30900000Y10700000D02*
X31600000Y10700000D01*
X30900000Y11700000D02*
X30900000Y10700000D01*
X31500000Y11200000D02*
X30900000Y11700000D01*
X31800000Y10600000D02*
X31500000Y11200000D01*
X30800000Y10600000D02*
X31800000Y10600000D01*
X30800000Y11900000D02*
X30800000Y10600000D01*
X31600000Y11200000D02*
X30800000Y11900000D01*
X31900000Y10500000D02*
X31600000Y11200000D01*
X30700000Y10500000D02*
X31900000Y10500000D01*
X30700000Y12000000D02*
X30700000Y10500000D01*
X29500000Y12300000D02*
X29600000Y12300000D01*
X28000000Y12300000D02*
X29500000Y12300000D01*
X28300000Y12400000D02*
X28000000Y12300000D01*
X29300000Y12400000D02*
X28300000Y12400000D01*
X30300000Y12200000D02*
X29300000Y12400000D01*
X27800000Y12200000D02*
X30300000Y12200000D01*
X27500000Y11900000D02*
X27800000Y12200000D01*
X30500000Y11900000D02*
X27500000Y11900000D01*
X30500000Y11800000D02*
X30500000Y11900000D01*
X27500000Y11800000D02*
X30500000Y11800000D01*
X27500000Y12000000D02*
X27500000Y11800000D01*
X30400000Y12000000D02*
X27500000Y12000000D01*
X30500000Y12100000D02*
X30400000Y12000000D01*
X30500000Y11700000D02*
X30500000Y12100000D01*
X27400000Y11700000D02*
X30500000Y11700000D01*
X27400000Y12000000D02*
X27400000Y11700000D01*
X27500000Y12100000D02*
X27400000Y12000000D01*
X30600000Y12100000D02*
X27500000Y12100000D01*
X30600000Y11600000D02*
X30600000Y12100000D01*
X27300000Y11600000D02*
X30600000Y11600000D01*
X26700000Y11300000D02*
X26600000Y11200000D01*
X26400000Y11100000D02*
X26700000Y11300000D01*
X26700000Y11100000D02*
X26400000Y11100000D01*
X26700000Y11500000D02*
X26700000Y11100000D01*
X26300000Y11000000D02*
X26700000Y11500000D01*
X26800000Y11000000D02*
X26300000Y11000000D01*
X26800000Y11500000D02*
X26800000Y11000000D01*
X26900000Y11700000D02*
X26800000Y11500000D01*
X26900000Y11600000D02*
X26900000Y11700000D01*
X26900000Y10900000D02*
X26900000Y11600000D01*
X26300000Y10900000D02*
X26900000Y10900000D01*
X26200000Y10800000D02*
X26300000Y10900000D01*
X27000000Y10800000D02*
X26200000Y10800000D01*
X27000000Y11700000D02*
X27000000Y10800000D01*
X27100000Y11800000D02*
X27000000Y11700000D01*
X27100000Y10700000D02*
X27100000Y11800000D01*
X26200000Y10700000D02*
X27100000Y10700000D01*
X26100000Y10600000D02*
X26200000Y10700000D01*
X27200000Y10600000D02*
X26100000Y10600000D01*
X27200000Y11900000D02*
X27200000Y10600000D01*
X27300000Y12000000D02*
X27200000Y11900000D01*
X27300000Y10500000D02*
X27300000Y12000000D01*
X26000000Y10500000D02*
X27300000Y10500000D01*
D13*
X32288237Y9250000D02*
G75*
G03X32288237Y9250000I-3288237J0D01*
G01*
D12*
X34120000Y10500000D02*
G75*
G03X34120000Y10500000I-5120000J0D01*
G01*
X24475000Y12821000D02*
X27759000Y12821000D01*
X24496000Y12861000D02*
X27759000Y12861000D01*
X24517000Y12901000D02*
X27759000Y12901000D01*
X24538000Y12941000D02*
X27759000Y12941000D01*
X30241000Y12941000D02*
X33462000Y12941000D01*
X24560000Y12981000D02*
X27759000Y12981000D01*
X30241000Y12981000D02*
X33440000Y12981000D01*
X24583000Y13021000D02*
X27759000Y13021000D01*
X30241000Y13021000D02*
X33417000Y13021000D01*
X24605000Y13061000D02*
X27759000Y13061000D01*
X30241000Y13061000D02*
X33395000Y13061000D01*
X24629000Y13101000D02*
X27759000Y13101000D01*
X30241000Y13101000D02*
X33371000Y13101000D01*
X24653000Y13141000D02*
X27759000Y13141000D01*
X30241000Y13141000D02*
X33347000Y13141000D01*
X24677000Y13181000D02*
X27759000Y13181000D01*
X30241000Y13181000D02*
X33323000Y13181000D01*
X24702000Y13221000D02*
X27759000Y13221000D01*
X30241000Y13221000D02*
X33298000Y13221000D01*
X24727000Y13261000D02*
X27759000Y13261000D01*
X30241000Y13261000D02*
X33273000Y13261000D01*
X24753000Y13301000D02*
X27759000Y13301000D01*
X30241000Y13301000D02*
X33247000Y13301000D01*
X24779000Y13341000D02*
X27759000Y13341000D01*
X30241000Y13341000D02*
X33221000Y13341000D01*
X24806000Y13381000D02*
X27759000Y13381000D01*
X30241000Y13381000D02*
X33194000Y13381000D01*
X24834000Y13421000D02*
X27759000Y13421000D01*
X30241000Y13421000D02*
X33166000Y13421000D01*
X24862000Y13461000D02*
X27759000Y13461000D01*
X30241000Y13461000D02*
X33138000Y13461000D01*
X24890000Y13501000D02*
X27759000Y13501000D01*
X30241000Y13501000D02*
X33110000Y13501000D01*
X24920000Y13541000D02*
X27759000Y13541000D01*
X30241000Y13541000D02*
X33080000Y13541000D01*
X24950000Y13581000D02*
X27759000Y13581000D01*
X30241000Y13581000D02*
X33050000Y13581000D01*
X24980000Y13621000D02*
X27759000Y13621000D01*
X30241000Y13621000D02*
X33020000Y13621000D01*
X25011000Y13661000D02*
X27759000Y13661000D01*
X30241000Y13661000D02*
X32989000Y13661000D01*
X25043000Y13701000D02*
X27759000Y13701000D01*
X30241000Y13701000D02*
X32957000Y13701000D01*
X25075000Y13741000D02*
X27759000Y13741000D01*
X30241000Y13741000D02*
X32925000Y13741000D01*
X25108000Y13781000D02*
X27759000Y13781000D01*
X30241000Y13781000D02*
X32892000Y13781000D01*
X25142000Y13821000D02*
X27759000Y13821000D01*
X30241000Y13821000D02*
X32858000Y13821000D01*
X25176000Y13861000D02*
X27759000Y13861000D01*
X30241000Y13861000D02*
X32824000Y13861000D01*
X25211000Y13901000D02*
X27759000Y13901000D01*
X30241000Y13901000D02*
X32789000Y13901000D01*
X25247000Y13941000D02*
X27759000Y13941000D01*
X30241000Y13941000D02*
X32753000Y13941000D01*
X25284000Y13981000D02*
X27759000Y13981000D01*
X30241000Y13981000D02*
X32716000Y13981000D01*
X25321000Y14021000D02*
X27759000Y14021000D01*
X30241000Y14021000D02*
X32679000Y14021000D01*
X25360000Y14061000D02*
X27759000Y14061000D01*
X30241000Y14061000D02*
X32640000Y14061000D01*
X25399000Y14101000D02*
X27759000Y14101000D01*
X30241000Y14101000D02*
X32601000Y14101000D01*
X25439000Y14141000D02*
X27759000Y14141000D01*
X30241000Y14141000D02*
X32561000Y14141000D01*
X25480000Y14181000D02*
X27759000Y14181000D01*
X30241000Y14181000D02*
X32520000Y14181000D01*
X25522000Y14221000D02*
X27759000Y14221000D01*
X30241000Y14221000D02*
X32478000Y14221000D01*
X25564000Y14261000D02*
X32436000Y14261000D01*
X25608000Y14301000D02*
X32392000Y14301000D01*
X25653000Y14341000D02*
X32347000Y14341000D01*
X25699000Y14381000D02*
X32301000Y14381000D01*
X25746000Y14421000D02*
X32254000Y14421000D01*
X25794000Y14461000D02*
X32206000Y14461000D01*
X25844000Y14501000D02*
X32156000Y14501000D01*
X25894000Y14541000D02*
X32106000Y14541000D01*
X25946000Y14581000D02*
X32054000Y14581000D01*
X26000000Y14621000D02*
X32000000Y14621000D01*
X26055000Y14661000D02*
X31945000Y14661000D01*
X26111000Y14701000D02*
X31889000Y14701000D01*
X26170000Y14741000D02*
X31830000Y14741000D01*
X26230000Y14781000D02*
X31770000Y14781000D01*
X26291000Y14821000D02*
X31709000Y14821000D01*
X26355000Y14861000D02*
X31645000Y14861000D01*
X26421000Y14901000D02*
X31579000Y14901000D01*
X26490000Y14941000D02*
X31510000Y14941000D01*
X26561000Y14981000D02*
X31439000Y14981000D01*
X26635000Y15021000D02*
X31365000Y15021000D01*
X26711000Y15061000D02*
X31289000Y15061000D01*
X26791000Y15101000D02*
X31209000Y15101000D01*
X26875000Y15141000D02*
X31125000Y15141000D01*
X26963000Y15181000D02*
X31037000Y15181000D01*
X27056000Y15221000D02*
X30944000Y15221000D01*
X27154000Y15261000D02*
X30846000Y15261000D01*
X27258000Y15301000D02*
X30742000Y15301000D01*
X27370000Y15341000D02*
X30630000Y15341000D01*
X27490000Y15381000D02*
X30510000Y15381000D01*
X27622000Y15421000D02*
X30378000Y15421000D01*
X27770000Y15461000D02*
X30230000Y15461000D01*
X27938000Y15501000D02*
X30062000Y15501000D01*
X28138000Y15541000D02*
X29862000Y15541000D01*
X28401000Y15581000D02*
X29599000Y15581000D01*
X26125000Y5020354D02*
X26125000Y6020354D01*
X25625000Y5520354D02*
X26625000Y5520354D01*
X26600000Y22000000D02*
X26700000Y21900000D01*
X26800000Y22000000D02*
X26600000Y22000000D01*
X26800000Y21700000D02*
X26800000Y22000000D01*
X26500000Y22100000D02*
X26800000Y21700000D01*
X26600000Y22100000D02*
X26500000Y22100000D01*
X26900000Y22100000D02*
X26600000Y22100000D01*
X26900000Y21600000D02*
X26900000Y22100000D01*
X26600000Y21900000D02*
X26900000Y21600000D01*
X26400000Y22200000D02*
X26600000Y21900000D01*
X27000000Y22200000D02*
X26400000Y22200000D01*
X27000000Y21400000D02*
X27000000Y22200000D01*
X26500000Y21900000D02*
X27000000Y21400000D01*
X26300000Y22300000D02*
X26500000Y21900000D01*
X26400000Y22300000D02*
X26300000Y22300000D01*
X27100000Y22300000D02*
X26400000Y22300000D01*
X27100000Y21300000D02*
X27100000Y22300000D01*
X26500000Y21800000D02*
X27100000Y21300000D01*
X26200000Y22400000D02*
X26500000Y21800000D01*
X27200000Y22400000D02*
X26200000Y22400000D01*
X27200000Y21100000D02*
X27200000Y22400000D01*
X26400000Y21800000D02*
X27200000Y21100000D01*
X26100000Y22500000D02*
X26400000Y21800000D01*
X27300000Y22500000D02*
X26100000Y22500000D01*
X27300000Y21000000D02*
X27300000Y22500000D01*
X28500000Y20700000D02*
X28400000Y20700000D01*
X30000000Y20700000D02*
X28500000Y20700000D01*
X29700000Y20600000D02*
X30000000Y20700000D01*
X28700000Y20600000D02*
X29700000Y20600000D01*
X27700000Y20800000D02*
X28700000Y20600000D01*
X30200000Y20800000D02*
X27700000Y20800000D01*
X30500000Y21100000D02*
X30200000Y20800000D01*
X27500000Y21100000D02*
X30500000Y21100000D01*
X27500000Y21200000D02*
X27500000Y21100000D01*
X30500000Y21200000D02*
X27500000Y21200000D01*
X30500000Y21000000D02*
X30500000Y21200000D01*
X27600000Y21000000D02*
X30500000Y21000000D01*
X27500000Y20900000D02*
X27600000Y21000000D01*
X27500000Y21300000D02*
X27500000Y20900000D01*
X30600000Y21300000D02*
X27500000Y21300000D01*
X30600000Y21000000D02*
X30600000Y21300000D01*
X30500000Y20900000D02*
X30600000Y21000000D01*
X27400000Y20900000D02*
X30500000Y20900000D01*
X27400000Y21400000D02*
X27400000Y20900000D01*
X30700000Y21400000D02*
X27400000Y21400000D01*
X31300000Y21700000D02*
X31400000Y21800000D01*
X31600000Y21900000D02*
X31300000Y21700000D01*
X31300000Y21900000D02*
X31600000Y21900000D01*
X31300000Y21500000D02*
X31300000Y21900000D01*
X31700000Y22000000D02*
X31300000Y21500000D01*
X31200000Y22000000D02*
X31700000Y22000000D01*
X31200000Y21500000D02*
X31200000Y22000000D01*
X31100000Y21300000D02*
X31200000Y21500000D01*
X31100000Y21400000D02*
X31100000Y21300000D01*
X31100000Y22100000D02*
X31100000Y21400000D01*
X31700000Y22100000D02*
X31100000Y22100000D01*
X31800000Y22200000D02*
X31700000Y22100000D01*
X31000000Y22200000D02*
X31800000Y22200000D01*
X31000000Y21300000D02*
X31000000Y22200000D01*
X30900000Y21200000D02*
X31000000Y21300000D01*
X30900000Y22300000D02*
X30900000Y21200000D01*
X31800000Y22300000D02*
X30900000Y22300000D01*
X31900000Y22400000D02*
X31800000Y22300000D01*
X30800000Y22400000D02*
X31900000Y22400000D01*
X30800000Y21100000D02*
X30800000Y22400000D01*
X30700000Y21000000D02*
X30800000Y21100000D01*
X30700000Y22500000D02*
X30700000Y21000000D01*
X32000000Y22500000D02*
X30700000Y22500000D01*
D13*
X32288237Y23750000D02*
G75*
G03X32288237Y23750000I-3288237J0D01*
G01*
D12*
X34120000Y22500000D02*
G75*
G03X34120000Y22500000I-5120000J0D01*
G01*
X33525000Y20179000D02*
X30241000Y20179000D01*
X33504000Y20139000D02*
X30241000Y20139000D01*
X33483000Y20099000D02*
X30241000Y20099000D01*
X33462000Y20059000D02*
X30241000Y20059000D01*
X27759000Y20059000D02*
X24538000Y20059000D01*
X33440000Y20019000D02*
X30241000Y20019000D01*
X27759000Y20019000D02*
X24560000Y20019000D01*
X33417000Y19979000D02*
X30241000Y19979000D01*
X27759000Y19979000D02*
X24583000Y19979000D01*
X33395000Y19939000D02*
X30241000Y19939000D01*
X27759000Y19939000D02*
X24605000Y19939000D01*
X33371000Y19899000D02*
X30241000Y19899000D01*
X27759000Y19899000D02*
X24629000Y19899000D01*
X33347000Y19859000D02*
X30241000Y19859000D01*
X27759000Y19859000D02*
X24653000Y19859000D01*
X33323000Y19819000D02*
X30241000Y19819000D01*
X27759000Y19819000D02*
X24677000Y19819000D01*
X33298000Y19779000D02*
X30241000Y19779000D01*
X27759000Y19779000D02*
X24702000Y19779000D01*
X33273000Y19739000D02*
X30241000Y19739000D01*
X27759000Y19739000D02*
X24727000Y19739000D01*
X33247000Y19699000D02*
X30241000Y19699000D01*
X27759000Y19699000D02*
X24753000Y19699000D01*
X33221000Y19659000D02*
X30241000Y19659000D01*
X27759000Y19659000D02*
X24779000Y19659000D01*
X33194000Y19619000D02*
X30241000Y19619000D01*
X27759000Y19619000D02*
X24806000Y19619000D01*
X33166000Y19579000D02*
X30241000Y19579000D01*
X27759000Y19579000D02*
X24834000Y19579000D01*
X33138000Y19539000D02*
X30241000Y19539000D01*
X27759000Y19539000D02*
X24862000Y19539000D01*
X33110000Y19499000D02*
X30241000Y19499000D01*
X27759000Y19499000D02*
X24890000Y19499000D01*
X33080000Y19459000D02*
X30241000Y19459000D01*
X27759000Y19459000D02*
X24920000Y19459000D01*
X33050000Y19419000D02*
X30241000Y19419000D01*
X27759000Y19419000D02*
X24950000Y19419000D01*
X33020000Y19379000D02*
X30241000Y19379000D01*
X27759000Y19379000D02*
X24980000Y19379000D01*
X32989000Y19339000D02*
X30241000Y19339000D01*
X27759000Y19339000D02*
X25011000Y19339000D01*
X32957000Y19299000D02*
X30241000Y19299000D01*
X27759000Y19299000D02*
X25043000Y19299000D01*
X32925000Y19259000D02*
X30241000Y19259000D01*
X27759000Y19259000D02*
X25075000Y19259000D01*
X32892000Y19219000D02*
X30241000Y19219000D01*
X27759000Y19219000D02*
X25108000Y19219000D01*
X32858000Y19179000D02*
X30241000Y19179000D01*
X27759000Y19179000D02*
X25142000Y19179000D01*
X32824000Y19139000D02*
X30241000Y19139000D01*
X27759000Y19139000D02*
X25176000Y19139000D01*
X32789000Y19099000D02*
X30241000Y19099000D01*
X27759000Y19099000D02*
X25211000Y19099000D01*
X32753000Y19059000D02*
X30241000Y19059000D01*
X27759000Y19059000D02*
X25247000Y19059000D01*
X32716000Y19019000D02*
X30241000Y19019000D01*
X27759000Y19019000D02*
X25284000Y19019000D01*
X32679000Y18979000D02*
X30241000Y18979000D01*
X27759000Y18979000D02*
X25321000Y18979000D01*
X32640000Y18939000D02*
X30241000Y18939000D01*
X27759000Y18939000D02*
X25360000Y18939000D01*
X32601000Y18899000D02*
X30241000Y18899000D01*
X27759000Y18899000D02*
X25399000Y18899000D01*
X32561000Y18859000D02*
X30241000Y18859000D01*
X27759000Y18859000D02*
X25439000Y18859000D01*
X32520000Y18819000D02*
X30241000Y18819000D01*
X27759000Y18819000D02*
X25480000Y18819000D01*
X32478000Y18779000D02*
X30241000Y18779000D01*
X27759000Y18779000D02*
X25522000Y18779000D01*
X32436000Y18739000D02*
X25564000Y18739000D01*
X32392000Y18699000D02*
X25608000Y18699000D01*
X32347000Y18659000D02*
X25653000Y18659000D01*
X32301000Y18619000D02*
X25699000Y18619000D01*
X32254000Y18579000D02*
X25746000Y18579000D01*
X32206000Y18539000D02*
X25794000Y18539000D01*
X32156000Y18499000D02*
X25844000Y18499000D01*
X32106000Y18459000D02*
X25894000Y18459000D01*
X32054000Y18419000D02*
X25946000Y18419000D01*
X32000000Y18379000D02*
X26000000Y18379000D01*
X31945000Y18339000D02*
X26055000Y18339000D01*
X31889000Y18299000D02*
X26111000Y18299000D01*
X31830000Y18259000D02*
X26170000Y18259000D01*
X31770000Y18219000D02*
X26230000Y18219000D01*
X31709000Y18179000D02*
X26291000Y18179000D01*
X31645000Y18139000D02*
X26355000Y18139000D01*
X31579000Y18099000D02*
X26421000Y18099000D01*
X31510000Y18059000D02*
X26490000Y18059000D01*
X31439000Y18019000D02*
X26561000Y18019000D01*
X31365000Y17979000D02*
X26635000Y17979000D01*
X31289000Y17939000D02*
X26711000Y17939000D01*
X31209000Y17899000D02*
X26791000Y17899000D01*
X31125000Y17859000D02*
X26875000Y17859000D01*
X31037000Y17819000D02*
X26963000Y17819000D01*
X30944000Y17779000D02*
X27056000Y17779000D01*
X30846000Y17739000D02*
X27154000Y17739000D01*
X30742000Y17699000D02*
X27258000Y17699000D01*
X30630000Y17659000D02*
X27370000Y17659000D01*
X30510000Y17619000D02*
X27490000Y17619000D01*
X30378000Y17579000D02*
X27622000Y17579000D01*
X30230000Y17539000D02*
X27770000Y17539000D01*
X30062000Y17499000D02*
X27938000Y17499000D01*
X29862000Y17459000D02*
X28138000Y17459000D01*
X29599000Y17419000D02*
X28401000Y17419000D01*
X31875000Y27979646D02*
X31875000Y26979646D01*
X32375000Y27479646D02*
X31375000Y27479646D01*
X11191555Y26827684D02*
G75*
G03X12220000Y22550000I1808445J-1827684D01*
G01*
X14811453Y26842156D02*
G75*
G02X13820000Y22550000I-1811453J-1842156D01*
G01*
X14800000Y26850000D02*
X11200000Y26850000D01*
X14808445Y6172316D02*
G75*
G03X13780000Y10450000I-1808445J1827684D01*
G01*
X11188547Y6157844D02*
G75*
G02X12180000Y10450000I1811453J1842156D01*
G01*
X11200000Y6150000D02*
X14800000Y6150000D01*
X14090000Y14140000D02*
X14090000Y14470000D01*
X14090000Y14470000D02*
X19530000Y14470000D01*
X19530000Y14470000D02*
X19530000Y14140000D01*
X14090000Y11860000D02*
X14090000Y11530000D01*
X14090000Y11530000D02*
X19530000Y11530000D01*
X19530000Y11530000D02*
X19530000Y11860000D01*
X14990000Y14470000D02*
X14990000Y11530000D01*
X15110000Y14470000D02*
X15110000Y11530000D01*
X14870000Y14470000D02*
X14870000Y11530000D01*
X14090000Y21140000D02*
X14090000Y21470000D01*
X14090000Y21470000D02*
X19530000Y21470000D01*
X19530000Y21470000D02*
X19530000Y21140000D01*
X14090000Y18860000D02*
X14090000Y18530000D01*
X14090000Y18530000D02*
X19530000Y18530000D01*
X19530000Y18530000D02*
X19530000Y18860000D01*
X14990000Y21470000D02*
X14990000Y18530000D01*
X15110000Y21470000D02*
X15110000Y18530000D01*
X14870000Y21470000D02*
X14870000Y18530000D01*
X45190000Y6630000D02*
X45190000Y9370000D01*
X45190000Y9370000D02*
X38650000Y9370000D01*
X38650000Y9370000D02*
X38650000Y6630000D01*
X38650000Y6630000D02*
X45190000Y6630000D01*
X45960000Y8000000D02*
X45190000Y8000000D01*
X37880000Y8000000D02*
X38650000Y8000000D01*
X45190000Y11630000D02*
X45190000Y14370000D01*
X45190000Y14370000D02*
X38650000Y14370000D01*
X38650000Y14370000D02*
X38650000Y11630000D01*
X38650000Y11630000D02*
X45190000Y11630000D01*
X45960000Y13000000D02*
X45190000Y13000000D01*
X37880000Y13000000D02*
X38650000Y13000000D01*
X45190000Y18630000D02*
X45190000Y21370000D01*
X45190000Y21370000D02*
X38650000Y21370000D01*
X38650000Y21370000D02*
X38650000Y18630000D01*
X38650000Y18630000D02*
X45190000Y18630000D01*
X45960000Y20000000D02*
X45190000Y20000000D01*
X37880000Y20000000D02*
X38650000Y20000000D01*
X45190000Y23630000D02*
X45190000Y26370000D01*
X45190000Y26370000D02*
X38650000Y26370000D01*
X38650000Y26370000D02*
X38650000Y23630000D01*
X38650000Y23630000D02*
X45190000Y23630000D01*
X45960000Y25000000D02*
X45190000Y25000000D01*
X37880000Y25000000D02*
X38650000Y25000000D01*
X5999538Y6740000D02*
G75*
G03X7544830Y12290000I462J2990000D01*
G01*
X6000462Y6740000D02*
G75*
G02X4455170Y12290000I-462J2990000D01*
G01*
X8500000Y9730000D02*
G75*
G03X8500000Y9730000I-2500000J0D01*
G01*
X7545000Y12290000D02*
X4455000Y12290000D01*
X6000462Y26260000D02*
G75*
G03X4455170Y20710000I-462J-2990000D01*
G01*
X5999538Y26260000D02*
G75*
G02X7544830Y20710000I462J-2990000D01*
G01*
X8500000Y23270000D02*
G75*
G03X8500000Y23270000I-2500000J0D01*
G01*
X4455000Y20710000D02*
X7545000Y20710000D01*
D14*
X51968333Y14944667D02*
X51968333Y15294667D01*
X51968333Y15128000D02*
X52168333Y15128000D01*
X52168333Y14944667D02*
X52168333Y15294667D01*
X52285000Y15294667D02*
X52485000Y15294667D01*
X52385000Y14944667D02*
X52385000Y15294667D01*
X52768333Y14944667D02*
X52601666Y14944667D01*
X52601666Y15294667D01*
X53135000Y14961334D02*
X53185000Y14944667D01*
X53268333Y14944667D01*
X53301666Y14961334D01*
X53318333Y14978000D01*
X53335000Y15011334D01*
X53335000Y15044667D01*
X53318333Y15078000D01*
X53301666Y15094667D01*
X53268333Y15111334D01*
X53201666Y15128000D01*
X53168333Y15144667D01*
X53151666Y15161334D01*
X53135000Y15194667D01*
X53135000Y15228000D01*
X53151666Y15261334D01*
X53168333Y15278000D01*
X53201666Y15294667D01*
X53285000Y15294667D01*
X53335000Y15278000D01*
X53435000Y15178000D02*
X53568333Y15178000D01*
X53485000Y15294667D02*
X53485000Y14994667D01*
X53501666Y14961334D01*
X53535000Y14944667D01*
X53568333Y14944667D01*
X53818333Y14961334D02*
X53785000Y14944667D01*
X53718333Y14944667D01*
X53685000Y14961334D01*
X53668333Y14994667D01*
X53668333Y15128000D01*
X53685000Y15161334D01*
X53718333Y15178000D01*
X53785000Y15178000D01*
X53818333Y15161334D01*
X53835000Y15128000D01*
X53835000Y15094667D01*
X53668333Y15061334D01*
X53951666Y15178000D02*
X54035000Y14944667D01*
X54118333Y15178000D02*
X54035000Y14944667D01*
X54001666Y14861334D01*
X53985000Y14844667D01*
X53951666Y14828000D01*
X54251666Y14944667D02*
X54251666Y15178000D01*
X54251666Y15111334D02*
X54268333Y15144667D01*
X54285000Y15161334D01*
X54318333Y15178000D01*
X54351666Y15178000D01*
M02*
