G04 #@! TF.GenerationSoftware,KiCad,Pcbnew,5.1.4-e60b266~84~ubuntu18.04.1*
G04 #@! TF.CreationDate,2019-12-16T22:47:14+01:00*
G04 #@! TF.ProjectId,astabile-kippstufe,61737461-6269-46c6-952d-6b6970707374,rev?*
G04 #@! TF.SameCoordinates,PX754d4c0PY5f5e100*
G04 #@! TF.FileFunction,Legend,Top*
G04 #@! TF.FilePolarity,Positive*
%FSLAX46Y46*%
G04 Gerber Fmt 4.6, Leading zero omitted, Abs format (unit mm)*
G04 Created by KiCad (PCBNEW 5.1.4-e60b266~84~ubuntu18.04.1) date 2019-12-16 22:47:14*
%MOMM*%
%LPD*%
G04 APERTURE LIST*
%ADD10C,0.120000*%
G04 APERTURE END LIST*
D10*
X34120000Y10500000D02*
G75*
G03X34120000Y10500000I-5120000J0D01*
G01*
X23920000Y10500000D02*
X34080000Y10500000D01*
X23920000Y10540000D02*
X34080000Y10540000D01*
X23920000Y10580000D02*
X34080000Y10580000D01*
X23921000Y10620000D02*
X34079000Y10620000D01*
X23922000Y10660000D02*
X34078000Y10660000D01*
X23923000Y10700000D02*
X34077000Y10700000D01*
X23925000Y10740000D02*
X34075000Y10740000D01*
X23927000Y10780000D02*
X34073000Y10780000D01*
X23930000Y10820000D02*
X34070000Y10820000D01*
X23932000Y10860000D02*
X34068000Y10860000D01*
X23935000Y10900000D02*
X34065000Y10900000D01*
X23938000Y10940000D02*
X34062000Y10940000D01*
X23942000Y10980000D02*
X34058000Y10980000D01*
X23946000Y11020000D02*
X34054000Y11020000D01*
X23950000Y11060000D02*
X34050000Y11060000D01*
X23955000Y11100000D02*
X34045000Y11100000D01*
X23960000Y11140000D02*
X34040000Y11140000D01*
X23965000Y11180000D02*
X34035000Y11180000D01*
X23970000Y11221000D02*
X34030000Y11221000D01*
X23976000Y11261000D02*
X34024000Y11261000D01*
X23982000Y11301000D02*
X34018000Y11301000D01*
X23989000Y11341000D02*
X34011000Y11341000D01*
X23996000Y11381000D02*
X34004000Y11381000D01*
X24003000Y11421000D02*
X33997000Y11421000D01*
X24010000Y11461000D02*
X33990000Y11461000D01*
X24018000Y11501000D02*
X33982000Y11501000D01*
X24026000Y11541000D02*
X33974000Y11541000D01*
X24035000Y11581000D02*
X33965000Y11581000D01*
X24044000Y11621000D02*
X33956000Y11621000D01*
X24053000Y11661000D02*
X33947000Y11661000D01*
X24062000Y11701000D02*
X33938000Y11701000D01*
X24072000Y11741000D02*
X33928000Y11741000D01*
X24082000Y11781000D02*
X27759000Y11781000D01*
X30241000Y11781000D02*
X33918000Y11781000D01*
X24093000Y11821000D02*
X27759000Y11821000D01*
X30241000Y11821000D02*
X33907000Y11821000D01*
X24103000Y11861000D02*
X27759000Y11861000D01*
X30241000Y11861000D02*
X33897000Y11861000D01*
X24115000Y11901000D02*
X27759000Y11901000D01*
X30241000Y11901000D02*
X33885000Y11901000D01*
X24126000Y11941000D02*
X27759000Y11941000D01*
X30241000Y11941000D02*
X33874000Y11941000D01*
X24138000Y11981000D02*
X27759000Y11981000D01*
X30241000Y11981000D02*
X33862000Y11981000D01*
X24150000Y12021000D02*
X27759000Y12021000D01*
X30241000Y12021000D02*
X33850000Y12021000D01*
X24163000Y12061000D02*
X27759000Y12061000D01*
X30241000Y12061000D02*
X33837000Y12061000D01*
X24176000Y12101000D02*
X27759000Y12101000D01*
X30241000Y12101000D02*
X33824000Y12101000D01*
X24189000Y12141000D02*
X27759000Y12141000D01*
X30241000Y12141000D02*
X33811000Y12141000D01*
X24203000Y12181000D02*
X27759000Y12181000D01*
X30241000Y12181000D02*
X33797000Y12181000D01*
X24217000Y12221000D02*
X27759000Y12221000D01*
X30241000Y12221000D02*
X33783000Y12221000D01*
X24232000Y12261000D02*
X27759000Y12261000D01*
X30241000Y12261000D02*
X33768000Y12261000D01*
X24246000Y12301000D02*
X27759000Y12301000D01*
X30241000Y12301000D02*
X33754000Y12301000D01*
X24262000Y12341000D02*
X27759000Y12341000D01*
X30241000Y12341000D02*
X33738000Y12341000D01*
X24277000Y12381000D02*
X27759000Y12381000D01*
X30241000Y12381000D02*
X33723000Y12381000D01*
X24293000Y12421000D02*
X27759000Y12421000D01*
X30241000Y12421000D02*
X33707000Y12421000D01*
X24310000Y12461000D02*
X27759000Y12461000D01*
X30241000Y12461000D02*
X33690000Y12461000D01*
X24326000Y12501000D02*
X27759000Y12501000D01*
X30241000Y12501000D02*
X33674000Y12501000D01*
X24343000Y12541000D02*
X27759000Y12541000D01*
X30241000Y12541000D02*
X33657000Y12541000D01*
X24361000Y12581000D02*
X27759000Y12581000D01*
X30241000Y12581000D02*
X33639000Y12581000D01*
X24379000Y12621000D02*
X27759000Y12621000D01*
X30241000Y12621000D02*
X33621000Y12621000D01*
X24397000Y12661000D02*
X27759000Y12661000D01*
X30241000Y12661000D02*
X33603000Y12661000D01*
X24416000Y12701000D02*
X27759000Y12701000D01*
X30241000Y12701000D02*
X33584000Y12701000D01*
X24436000Y12741000D02*
X27759000Y12741000D01*
X30241000Y12741000D02*
X33564000Y12741000D01*
X24455000Y12781000D02*
X27759000Y12781000D01*
X30241000Y12781000D02*
X33545000Y12781000D01*
X24475000Y12821000D02*
X27759000Y12821000D01*
X30241000Y12821000D02*
X33525000Y12821000D01*
X24496000Y12861000D02*
X27759000Y12861000D01*
X30241000Y12861000D02*
X33504000Y12861000D01*
X24517000Y12901000D02*
X27759000Y12901000D01*
X30241000Y12901000D02*
X33483000Y12901000D01*
X24538000Y12941000D02*
X27759000Y12941000D01*
X30241000Y12941000D02*
X33462000Y12941000D01*
X24560000Y12981000D02*
X27759000Y12981000D01*
X30241000Y12981000D02*
X33440000Y12981000D01*
X24583000Y13021000D02*
X27759000Y13021000D01*
X30241000Y13021000D02*
X33417000Y13021000D01*
X24605000Y13061000D02*
X27759000Y13061000D01*
X30241000Y13061000D02*
X33395000Y13061000D01*
X24629000Y13101000D02*
X27759000Y13101000D01*
X30241000Y13101000D02*
X33371000Y13101000D01*
X24653000Y13141000D02*
X27759000Y13141000D01*
X30241000Y13141000D02*
X33347000Y13141000D01*
X24677000Y13181000D02*
X27759000Y13181000D01*
X30241000Y13181000D02*
X33323000Y13181000D01*
X24702000Y13221000D02*
X27759000Y13221000D01*
X30241000Y13221000D02*
X33298000Y13221000D01*
X24727000Y13261000D02*
X27759000Y13261000D01*
X30241000Y13261000D02*
X33273000Y13261000D01*
X24753000Y13301000D02*
X27759000Y13301000D01*
X30241000Y13301000D02*
X33247000Y13301000D01*
X24779000Y13341000D02*
X27759000Y13341000D01*
X30241000Y13341000D02*
X33221000Y13341000D01*
X24806000Y13381000D02*
X27759000Y13381000D01*
X30241000Y13381000D02*
X33194000Y13381000D01*
X24834000Y13421000D02*
X27759000Y13421000D01*
X30241000Y13421000D02*
X33166000Y13421000D01*
X24862000Y13461000D02*
X27759000Y13461000D01*
X30241000Y13461000D02*
X33138000Y13461000D01*
X24890000Y13501000D02*
X27759000Y13501000D01*
X30241000Y13501000D02*
X33110000Y13501000D01*
X24920000Y13541000D02*
X27759000Y13541000D01*
X30241000Y13541000D02*
X33080000Y13541000D01*
X24950000Y13581000D02*
X27759000Y13581000D01*
X30241000Y13581000D02*
X33050000Y13581000D01*
X24980000Y13621000D02*
X27759000Y13621000D01*
X30241000Y13621000D02*
X33020000Y13621000D01*
X25011000Y13661000D02*
X27759000Y13661000D01*
X30241000Y13661000D02*
X32989000Y13661000D01*
X25043000Y13701000D02*
X27759000Y13701000D01*
X30241000Y13701000D02*
X32957000Y13701000D01*
X25075000Y13741000D02*
X27759000Y13741000D01*
X30241000Y13741000D02*
X32925000Y13741000D01*
X25108000Y13781000D02*
X27759000Y13781000D01*
X30241000Y13781000D02*
X32892000Y13781000D01*
X25142000Y13821000D02*
X27759000Y13821000D01*
X30241000Y13821000D02*
X32858000Y13821000D01*
X25176000Y13861000D02*
X27759000Y13861000D01*
X30241000Y13861000D02*
X32824000Y13861000D01*
X25211000Y13901000D02*
X27759000Y13901000D01*
X30241000Y13901000D02*
X32789000Y13901000D01*
X25247000Y13941000D02*
X27759000Y13941000D01*
X30241000Y13941000D02*
X32753000Y13941000D01*
X25284000Y13981000D02*
X27759000Y13981000D01*
X30241000Y13981000D02*
X32716000Y13981000D01*
X25321000Y14021000D02*
X27759000Y14021000D01*
X30241000Y14021000D02*
X32679000Y14021000D01*
X25360000Y14061000D02*
X27759000Y14061000D01*
X30241000Y14061000D02*
X32640000Y14061000D01*
X25399000Y14101000D02*
X27759000Y14101000D01*
X30241000Y14101000D02*
X32601000Y14101000D01*
X25439000Y14141000D02*
X27759000Y14141000D01*
X30241000Y14141000D02*
X32561000Y14141000D01*
X25480000Y14181000D02*
X27759000Y14181000D01*
X30241000Y14181000D02*
X32520000Y14181000D01*
X25522000Y14221000D02*
X27759000Y14221000D01*
X30241000Y14221000D02*
X32478000Y14221000D01*
X25564000Y14261000D02*
X32436000Y14261000D01*
X25608000Y14301000D02*
X32392000Y14301000D01*
X25653000Y14341000D02*
X32347000Y14341000D01*
X25699000Y14381000D02*
X32301000Y14381000D01*
X25746000Y14421000D02*
X32254000Y14421000D01*
X25794000Y14461000D02*
X32206000Y14461000D01*
X25844000Y14501000D02*
X32156000Y14501000D01*
X25894000Y14541000D02*
X32106000Y14541000D01*
X25946000Y14581000D02*
X32054000Y14581000D01*
X26000000Y14621000D02*
X32000000Y14621000D01*
X26055000Y14661000D02*
X31945000Y14661000D01*
X26111000Y14701000D02*
X31889000Y14701000D01*
X26170000Y14741000D02*
X31830000Y14741000D01*
X26230000Y14781000D02*
X31770000Y14781000D01*
X26291000Y14821000D02*
X31709000Y14821000D01*
X26355000Y14861000D02*
X31645000Y14861000D01*
X26421000Y14901000D02*
X31579000Y14901000D01*
X26490000Y14941000D02*
X31510000Y14941000D01*
X26561000Y14981000D02*
X31439000Y14981000D01*
X26635000Y15021000D02*
X31365000Y15021000D01*
X26711000Y15061000D02*
X31289000Y15061000D01*
X26791000Y15101000D02*
X31209000Y15101000D01*
X26875000Y15141000D02*
X31125000Y15141000D01*
X26963000Y15181000D02*
X31037000Y15181000D01*
X27056000Y15221000D02*
X30944000Y15221000D01*
X27154000Y15261000D02*
X30846000Y15261000D01*
X27258000Y15301000D02*
X30742000Y15301000D01*
X27370000Y15341000D02*
X30630000Y15341000D01*
X27490000Y15381000D02*
X30510000Y15381000D01*
X27622000Y15421000D02*
X30378000Y15421000D01*
X27770000Y15461000D02*
X30230000Y15461000D01*
X27938000Y15501000D02*
X30062000Y15501000D01*
X28138000Y15541000D02*
X29862000Y15541000D01*
X28401000Y15581000D02*
X29599000Y15581000D01*
X26125000Y5020354D02*
X26125000Y6020354D01*
X25625000Y5520354D02*
X26625000Y5520354D01*
X34120000Y22500000D02*
G75*
G03X34120000Y22500000I-5120000J0D01*
G01*
X34080000Y22500000D02*
X23920000Y22500000D01*
X34080000Y22460000D02*
X23920000Y22460000D01*
X34080000Y22420000D02*
X23920000Y22420000D01*
X34079000Y22380000D02*
X23921000Y22380000D01*
X34078000Y22340000D02*
X23922000Y22340000D01*
X34077000Y22300000D02*
X23923000Y22300000D01*
X34075000Y22260000D02*
X23925000Y22260000D01*
X34073000Y22220000D02*
X23927000Y22220000D01*
X34070000Y22180000D02*
X23930000Y22180000D01*
X34068000Y22140000D02*
X23932000Y22140000D01*
X34065000Y22100000D02*
X23935000Y22100000D01*
X34062000Y22060000D02*
X23938000Y22060000D01*
X34058000Y22020000D02*
X23942000Y22020000D01*
X34054000Y21980000D02*
X23946000Y21980000D01*
X34050000Y21940000D02*
X23950000Y21940000D01*
X34045000Y21900000D02*
X23955000Y21900000D01*
X34040000Y21860000D02*
X23960000Y21860000D01*
X34035000Y21820000D02*
X23965000Y21820000D01*
X34030000Y21779000D02*
X23970000Y21779000D01*
X34024000Y21739000D02*
X23976000Y21739000D01*
X34018000Y21699000D02*
X23982000Y21699000D01*
X34011000Y21659000D02*
X23989000Y21659000D01*
X34004000Y21619000D02*
X23996000Y21619000D01*
X33997000Y21579000D02*
X24003000Y21579000D01*
X33990000Y21539000D02*
X24010000Y21539000D01*
X33982000Y21499000D02*
X24018000Y21499000D01*
X33974000Y21459000D02*
X24026000Y21459000D01*
X33965000Y21419000D02*
X24035000Y21419000D01*
X33956000Y21379000D02*
X24044000Y21379000D01*
X33947000Y21339000D02*
X24053000Y21339000D01*
X33938000Y21299000D02*
X24062000Y21299000D01*
X33928000Y21259000D02*
X24072000Y21259000D01*
X33918000Y21219000D02*
X30241000Y21219000D01*
X27759000Y21219000D02*
X24082000Y21219000D01*
X33907000Y21179000D02*
X30241000Y21179000D01*
X27759000Y21179000D02*
X24093000Y21179000D01*
X33897000Y21139000D02*
X30241000Y21139000D01*
X27759000Y21139000D02*
X24103000Y21139000D01*
X33885000Y21099000D02*
X30241000Y21099000D01*
X27759000Y21099000D02*
X24115000Y21099000D01*
X33874000Y21059000D02*
X30241000Y21059000D01*
X27759000Y21059000D02*
X24126000Y21059000D01*
X33862000Y21019000D02*
X30241000Y21019000D01*
X27759000Y21019000D02*
X24138000Y21019000D01*
X33850000Y20979000D02*
X30241000Y20979000D01*
X27759000Y20979000D02*
X24150000Y20979000D01*
X33837000Y20939000D02*
X30241000Y20939000D01*
X27759000Y20939000D02*
X24163000Y20939000D01*
X33824000Y20899000D02*
X30241000Y20899000D01*
X27759000Y20899000D02*
X24176000Y20899000D01*
X33811000Y20859000D02*
X30241000Y20859000D01*
X27759000Y20859000D02*
X24189000Y20859000D01*
X33797000Y20819000D02*
X30241000Y20819000D01*
X27759000Y20819000D02*
X24203000Y20819000D01*
X33783000Y20779000D02*
X30241000Y20779000D01*
X27759000Y20779000D02*
X24217000Y20779000D01*
X33768000Y20739000D02*
X30241000Y20739000D01*
X27759000Y20739000D02*
X24232000Y20739000D01*
X33754000Y20699000D02*
X30241000Y20699000D01*
X27759000Y20699000D02*
X24246000Y20699000D01*
X33738000Y20659000D02*
X30241000Y20659000D01*
X27759000Y20659000D02*
X24262000Y20659000D01*
X33723000Y20619000D02*
X30241000Y20619000D01*
X27759000Y20619000D02*
X24277000Y20619000D01*
X33707000Y20579000D02*
X30241000Y20579000D01*
X27759000Y20579000D02*
X24293000Y20579000D01*
X33690000Y20539000D02*
X30241000Y20539000D01*
X27759000Y20539000D02*
X24310000Y20539000D01*
X33674000Y20499000D02*
X30241000Y20499000D01*
X27759000Y20499000D02*
X24326000Y20499000D01*
X33657000Y20459000D02*
X30241000Y20459000D01*
X27759000Y20459000D02*
X24343000Y20459000D01*
X33639000Y20419000D02*
X30241000Y20419000D01*
X27759000Y20419000D02*
X24361000Y20419000D01*
X33621000Y20379000D02*
X30241000Y20379000D01*
X27759000Y20379000D02*
X24379000Y20379000D01*
X33603000Y20339000D02*
X30241000Y20339000D01*
X27759000Y20339000D02*
X24397000Y20339000D01*
X33584000Y20299000D02*
X30241000Y20299000D01*
X27759000Y20299000D02*
X24416000Y20299000D01*
X33564000Y20259000D02*
X30241000Y20259000D01*
X27759000Y20259000D02*
X24436000Y20259000D01*
X33545000Y20219000D02*
X30241000Y20219000D01*
X27759000Y20219000D02*
X24455000Y20219000D01*
X33525000Y20179000D02*
X30241000Y20179000D01*
X27759000Y20179000D02*
X24475000Y20179000D01*
X33504000Y20139000D02*
X30241000Y20139000D01*
X27759000Y20139000D02*
X24496000Y20139000D01*
X33483000Y20099000D02*
X30241000Y20099000D01*
X27759000Y20099000D02*
X24517000Y20099000D01*
X33462000Y20059000D02*
X30241000Y20059000D01*
X27759000Y20059000D02*
X24538000Y20059000D01*
X33440000Y20019000D02*
X30241000Y20019000D01*
X27759000Y20019000D02*
X24560000Y20019000D01*
X33417000Y19979000D02*
X30241000Y19979000D01*
X27759000Y19979000D02*
X24583000Y19979000D01*
X33395000Y19939000D02*
X30241000Y19939000D01*
X27759000Y19939000D02*
X24605000Y19939000D01*
X33371000Y19899000D02*
X30241000Y19899000D01*
X27759000Y19899000D02*
X24629000Y19899000D01*
X33347000Y19859000D02*
X30241000Y19859000D01*
X27759000Y19859000D02*
X24653000Y19859000D01*
X33323000Y19819000D02*
X30241000Y19819000D01*
X27759000Y19819000D02*
X24677000Y19819000D01*
X33298000Y19779000D02*
X30241000Y19779000D01*
X27759000Y19779000D02*
X24702000Y19779000D01*
X33273000Y19739000D02*
X30241000Y19739000D01*
X27759000Y19739000D02*
X24727000Y19739000D01*
X33247000Y19699000D02*
X30241000Y19699000D01*
X27759000Y19699000D02*
X24753000Y19699000D01*
X33221000Y19659000D02*
X30241000Y19659000D01*
X27759000Y19659000D02*
X24779000Y19659000D01*
X33194000Y19619000D02*
X30241000Y19619000D01*
X27759000Y19619000D02*
X24806000Y19619000D01*
X33166000Y19579000D02*
X30241000Y19579000D01*
X27759000Y19579000D02*
X24834000Y19579000D01*
X33138000Y19539000D02*
X30241000Y19539000D01*
X27759000Y19539000D02*
X24862000Y19539000D01*
X33110000Y19499000D02*
X30241000Y19499000D01*
X27759000Y19499000D02*
X24890000Y19499000D01*
X33080000Y19459000D02*
X30241000Y19459000D01*
X27759000Y19459000D02*
X24920000Y19459000D01*
X33050000Y19419000D02*
X30241000Y19419000D01*
X27759000Y19419000D02*
X24950000Y19419000D01*
X33020000Y19379000D02*
X30241000Y19379000D01*
X27759000Y19379000D02*
X24980000Y19379000D01*
X32989000Y19339000D02*
X30241000Y19339000D01*
X27759000Y19339000D02*
X25011000Y19339000D01*
X32957000Y19299000D02*
X30241000Y19299000D01*
X27759000Y19299000D02*
X25043000Y19299000D01*
X32925000Y19259000D02*
X30241000Y19259000D01*
X27759000Y19259000D02*
X25075000Y19259000D01*
X32892000Y19219000D02*
X30241000Y19219000D01*
X27759000Y19219000D02*
X25108000Y19219000D01*
X32858000Y19179000D02*
X30241000Y19179000D01*
X27759000Y19179000D02*
X25142000Y19179000D01*
X32824000Y19139000D02*
X30241000Y19139000D01*
X27759000Y19139000D02*
X25176000Y19139000D01*
X32789000Y19099000D02*
X30241000Y19099000D01*
X27759000Y19099000D02*
X25211000Y19099000D01*
X32753000Y19059000D02*
X30241000Y19059000D01*
X27759000Y19059000D02*
X25247000Y19059000D01*
X32716000Y19019000D02*
X30241000Y19019000D01*
X27759000Y19019000D02*
X25284000Y19019000D01*
X32679000Y18979000D02*
X30241000Y18979000D01*
X27759000Y18979000D02*
X25321000Y18979000D01*
X32640000Y18939000D02*
X30241000Y18939000D01*
X27759000Y18939000D02*
X25360000Y18939000D01*
X32601000Y18899000D02*
X30241000Y18899000D01*
X27759000Y18899000D02*
X25399000Y18899000D01*
X32561000Y18859000D02*
X30241000Y18859000D01*
X27759000Y18859000D02*
X25439000Y18859000D01*
X32520000Y18819000D02*
X30241000Y18819000D01*
X27759000Y18819000D02*
X25480000Y18819000D01*
X32478000Y18779000D02*
X30241000Y18779000D01*
X27759000Y18779000D02*
X25522000Y18779000D01*
X32436000Y18739000D02*
X25564000Y18739000D01*
X32392000Y18699000D02*
X25608000Y18699000D01*
X32347000Y18659000D02*
X25653000Y18659000D01*
X32301000Y18619000D02*
X25699000Y18619000D01*
X32254000Y18579000D02*
X25746000Y18579000D01*
X32206000Y18539000D02*
X25794000Y18539000D01*
X32156000Y18499000D02*
X25844000Y18499000D01*
X32106000Y18459000D02*
X25894000Y18459000D01*
X32054000Y18419000D02*
X25946000Y18419000D01*
X32000000Y18379000D02*
X26000000Y18379000D01*
X31945000Y18339000D02*
X26055000Y18339000D01*
X31889000Y18299000D02*
X26111000Y18299000D01*
X31830000Y18259000D02*
X26170000Y18259000D01*
X31770000Y18219000D02*
X26230000Y18219000D01*
X31709000Y18179000D02*
X26291000Y18179000D01*
X31645000Y18139000D02*
X26355000Y18139000D01*
X31579000Y18099000D02*
X26421000Y18099000D01*
X31510000Y18059000D02*
X26490000Y18059000D01*
X31439000Y18019000D02*
X26561000Y18019000D01*
X31365000Y17979000D02*
X26635000Y17979000D01*
X31289000Y17939000D02*
X26711000Y17939000D01*
X31209000Y17899000D02*
X26791000Y17899000D01*
X31125000Y17859000D02*
X26875000Y17859000D01*
X31037000Y17819000D02*
X26963000Y17819000D01*
X30944000Y17779000D02*
X27056000Y17779000D01*
X30846000Y17739000D02*
X27154000Y17739000D01*
X30742000Y17699000D02*
X27258000Y17699000D01*
X30630000Y17659000D02*
X27370000Y17659000D01*
X30510000Y17619000D02*
X27490000Y17619000D01*
X30378000Y17579000D02*
X27622000Y17579000D01*
X30230000Y17539000D02*
X27770000Y17539000D01*
X30062000Y17499000D02*
X27938000Y17499000D01*
X29862000Y17459000D02*
X28138000Y17459000D01*
X29599000Y17419000D02*
X28401000Y17419000D01*
X31875000Y27979646D02*
X31875000Y26979646D01*
X32375000Y27479646D02*
X31375000Y27479646D01*
X14090000Y14140000D02*
X14090000Y14470000D01*
X14090000Y14470000D02*
X19530000Y14470000D01*
X19530000Y14470000D02*
X19530000Y14140000D01*
X14090000Y11860000D02*
X14090000Y11530000D01*
X14090000Y11530000D02*
X19530000Y11530000D01*
X19530000Y11530000D02*
X19530000Y11860000D01*
X14990000Y14470000D02*
X14990000Y11530000D01*
X15110000Y14470000D02*
X15110000Y11530000D01*
X14870000Y14470000D02*
X14870000Y11530000D01*
X14090000Y21140000D02*
X14090000Y21470000D01*
X14090000Y21470000D02*
X19530000Y21470000D01*
X19530000Y21470000D02*
X19530000Y21140000D01*
X14090000Y18860000D02*
X14090000Y18530000D01*
X14090000Y18530000D02*
X19530000Y18530000D01*
X19530000Y18530000D02*
X19530000Y18860000D01*
X14990000Y21470000D02*
X14990000Y18530000D01*
X15110000Y21470000D02*
X15110000Y18530000D01*
X14870000Y21470000D02*
X14870000Y18530000D01*
X45190000Y6630000D02*
X45190000Y9370000D01*
X45190000Y9370000D02*
X38650000Y9370000D01*
X38650000Y9370000D02*
X38650000Y6630000D01*
X38650000Y6630000D02*
X45190000Y6630000D01*
X45960000Y8000000D02*
X45190000Y8000000D01*
X37880000Y8000000D02*
X38650000Y8000000D01*
X45190000Y11630000D02*
X45190000Y14370000D01*
X45190000Y14370000D02*
X38650000Y14370000D01*
X38650000Y14370000D02*
X38650000Y11630000D01*
X38650000Y11630000D02*
X45190000Y11630000D01*
X45960000Y13000000D02*
X45190000Y13000000D01*
X37880000Y13000000D02*
X38650000Y13000000D01*
X45190000Y18630000D02*
X45190000Y21370000D01*
X45190000Y21370000D02*
X38650000Y21370000D01*
X38650000Y21370000D02*
X38650000Y18630000D01*
X38650000Y18630000D02*
X45190000Y18630000D01*
X45960000Y20000000D02*
X45190000Y20000000D01*
X37880000Y20000000D02*
X38650000Y20000000D01*
X45190000Y23630000D02*
X45190000Y26370000D01*
X45190000Y26370000D02*
X38650000Y26370000D01*
X38650000Y26370000D02*
X38650000Y23630000D01*
X38650000Y23630000D02*
X45190000Y23630000D01*
X45960000Y25000000D02*
X45190000Y25000000D01*
X37880000Y25000000D02*
X38650000Y25000000D01*
X11470000Y6150000D02*
X15070000Y6150000D01*
X11458547Y6157844D02*
G75*
G02X12450000Y10450000I1811453J1842156D01*
G01*
X15078445Y6172316D02*
G75*
G03X14050000Y10450000I-1808445J1827684D01*
G01*
X14530000Y26850000D02*
X10930000Y26850000D01*
X14541453Y26842156D02*
G75*
G02X13550000Y22550000I-1811453J-1842156D01*
G01*
X10921555Y26827684D02*
G75*
G03X11950000Y22550000I1808445J-1827684D01*
G01*
X5999538Y6740000D02*
G75*
G03X7544830Y12290000I462J2990000D01*
G01*
X6000462Y6740000D02*
G75*
G02X4455170Y12290000I-462J2990000D01*
G01*
X8500000Y9730000D02*
G75*
G03X8500000Y9730000I-2500000J0D01*
G01*
X7545000Y12290000D02*
X4455000Y12290000D01*
X6000462Y26260000D02*
G75*
G03X4455170Y20710000I-462J-2990000D01*
G01*
X5999538Y26260000D02*
G75*
G02X7544830Y20710000I462J-2990000D01*
G01*
X8500000Y23270000D02*
G75*
G03X8500000Y23270000I-2500000J0D01*
G01*
X4455000Y20710000D02*
X7545000Y20710000D01*
M02*
