G04 #@! TF.GenerationSoftware,KiCad,Pcbnew,5.1.5-52549c5~84~ubuntu18.04.1*
G04 #@! TF.CreationDate,2020-06-19T14:53:48+02:00*
G04 #@! TF.ProjectId,astabile-kippstufe,61737461-6269-46c6-952d-6b6970707374,V19.0.1*
G04 #@! TF.SameCoordinates,PX754d4c0PY5f5e100*
G04 #@! TF.FileFunction,Copper,L2,Bot*
G04 #@! TF.FilePolarity,Positive*
%FSLAX46Y46*%
G04 Gerber Fmt 4.6, Leading zero omitted, Abs format (unit mm)*
G04 Created by KiCad (PCBNEW 5.1.5-52549c5~84~ubuntu18.04.1) date 2020-06-19 14:53:48*
%MOMM*%
%LPD*%
G04 APERTURE LIST*
%ADD10C,0.250000*%
%ADD11C,0.300000*%
%ADD12C,0.400000*%
%ADD13C,0.050000*%
%ADD14C,0.075000*%
%ADD15C,0.150000*%
%ADD16C,0.100000*%
%ADD17R,3.000000X2.000000*%
%ADD18R,3.000000X3.000000*%
%ADD19C,3.000000*%
%ADD20C,2.500000*%
%ADD21C,1.000000*%
G04 APERTURE END LIST*
D10*
X48071428Y3321429D02*
X47571428Y1821429D01*
X47071428Y3321429D01*
X45785714Y1821429D02*
X46642857Y1821429D01*
X46214285Y1821429D02*
X46214285Y3321429D01*
X46357142Y3107143D01*
X46500000Y2964286D01*
X46642857Y2892858D01*
X45071428Y1821429D02*
X44785714Y1821429D01*
X44642857Y1892858D01*
X44571428Y1964286D01*
X44428571Y2178572D01*
X44357142Y2464286D01*
X44357142Y3035715D01*
X44428571Y3178572D01*
X44500000Y3250000D01*
X44642857Y3321429D01*
X44928571Y3321429D01*
X45071428Y3250000D01*
X45142857Y3178572D01*
X45214285Y3035715D01*
X45214285Y2678572D01*
X45142857Y2535715D01*
X45071428Y2464286D01*
X44928571Y2392858D01*
X44642857Y2392858D01*
X44500000Y2464286D01*
X44428571Y2535715D01*
X44357142Y2678572D01*
X43714285Y1964286D02*
X43642857Y1892858D01*
X43714285Y1821429D01*
X43785714Y1892858D01*
X43714285Y1964286D01*
X43714285Y1821429D01*
X42714285Y3321429D02*
X42571428Y3321429D01*
X42428571Y3250000D01*
X42357142Y3178572D01*
X42285714Y3035715D01*
X42214285Y2750000D01*
X42214285Y2392858D01*
X42285714Y2107143D01*
X42357142Y1964286D01*
X42428571Y1892858D01*
X42571428Y1821429D01*
X42714285Y1821429D01*
X42857142Y1892858D01*
X42928571Y1964286D01*
X43000000Y2107143D01*
X43071428Y2392858D01*
X43071428Y2750000D01*
X43000000Y3035715D01*
X42928571Y3178572D01*
X42857142Y3250000D01*
X42714285Y3321429D01*
X41571428Y1964286D02*
X41500000Y1892858D01*
X41571428Y1821429D01*
X41642857Y1892858D01*
X41571428Y1964286D01*
X41571428Y1821429D01*
X40928571Y3178572D02*
X40857142Y3250000D01*
X40714285Y3321429D01*
X40357142Y3321429D01*
X40214285Y3250000D01*
X40142857Y3178572D01*
X40071428Y3035715D01*
X40071428Y2892858D01*
X40142857Y2678572D01*
X41000000Y1821429D01*
X40071428Y1821429D01*
D11*
X52714285Y3721429D02*
X52571428Y3721429D01*
X52428571Y3650000D01*
X52357142Y3578572D01*
X52285714Y3435715D01*
X52214285Y3150000D01*
X52214285Y2792858D01*
X52285714Y2507143D01*
X52357142Y2364286D01*
X52428571Y2292858D01*
X52571428Y2221429D01*
X52714285Y2221429D01*
X52857142Y2292858D01*
X52928571Y2364286D01*
X53000000Y2507143D01*
X53071428Y2792858D01*
X53071428Y3150000D01*
X53000000Y3435715D01*
X52928571Y3578572D01*
X52857142Y3650000D01*
X52714285Y3721429D01*
X51785714Y3721429D02*
X51285714Y2221429D01*
X50785714Y3721429D01*
X54028571Y28992858D02*
X52885714Y28992858D01*
X53457142Y28421429D02*
X53457142Y29564286D01*
X52100000Y28421429D02*
X51814285Y28421429D01*
X51671428Y28492858D01*
X51600000Y28564286D01*
X51457142Y28778572D01*
X51385714Y29064286D01*
X51385714Y29635715D01*
X51457142Y29778572D01*
X51528571Y29850000D01*
X51671428Y29921429D01*
X51957142Y29921429D01*
X52100000Y29850000D01*
X52171428Y29778572D01*
X52242857Y29635715D01*
X52242857Y29278572D01*
X52171428Y29135715D01*
X52100000Y29064286D01*
X51957142Y28992858D01*
X51671428Y28992858D01*
X51528571Y29064286D01*
X51457142Y29135715D01*
X51385714Y29278572D01*
X50957142Y29921429D02*
X50457142Y28421429D01*
X49957142Y29921429D01*
D12*
X41245238Y10419048D02*
X43245238Y10419048D01*
X42292857Y10419048D02*
X42292857Y11561905D01*
X41245238Y11561905D02*
X43245238Y11561905D01*
X43245238Y12228572D02*
X43245238Y13371429D01*
X41245238Y12800000D02*
X43245238Y12800000D01*
X41245238Y14990477D02*
X41245238Y14038096D01*
X43245238Y14038096D01*
X41340476Y17085715D02*
X41245238Y17371429D01*
X41245238Y17847620D01*
X41340476Y18038096D01*
X41435714Y18133334D01*
X41626190Y18228572D01*
X41816666Y18228572D01*
X42007142Y18133334D01*
X42102380Y18038096D01*
X42197619Y17847620D01*
X42292857Y17466667D01*
X42388095Y17276191D01*
X42483333Y17180953D01*
X42673809Y17085715D01*
X42864285Y17085715D01*
X43054761Y17180953D01*
X43150000Y17276191D01*
X43245238Y17466667D01*
X43245238Y17942858D01*
X43150000Y18228572D01*
X43245238Y18800000D02*
X43245238Y19942858D01*
X41245238Y19371429D02*
X43245238Y19371429D01*
X42292857Y20609524D02*
X42292857Y21276191D01*
X41245238Y21561905D02*
X41245238Y20609524D01*
X43245238Y20609524D01*
X43245238Y21561905D01*
X42197619Y22800000D02*
X41245238Y22800000D01*
X43245238Y22133334D02*
X42197619Y22800000D01*
X43245238Y23466667D01*
X41245238Y25276191D02*
X42197619Y24609524D01*
X41245238Y24133334D02*
X43245238Y24133334D01*
X43245238Y24895239D01*
X43150000Y25085715D01*
X43054761Y25180953D01*
X42864285Y25276191D01*
X42578571Y25276191D01*
X42388095Y25180953D01*
X42292857Y25085715D01*
X42197619Y24895239D01*
X42197619Y24133334D01*
D13*
X0Y0D02*
X0Y32000000D01*
X57000000Y0D02*
X0Y0D01*
X57000000Y8000000D02*
X57000000Y0D01*
X57000000Y8000000D02*
X57000000Y25000000D01*
X57000000Y32000000D02*
X0Y32000000D01*
X57000000Y25000000D02*
X57000000Y32000000D01*
D14*
X53031666Y14944667D02*
X53031666Y15294667D01*
X53031666Y15128000D02*
X52831666Y15128000D01*
X52831666Y14944667D02*
X52831666Y15294667D01*
X52715000Y15294667D02*
X52515000Y15294667D01*
X52615000Y14944667D02*
X52615000Y15294667D01*
X52231666Y14944667D02*
X52398333Y14944667D01*
X52398333Y15294667D01*
X51865000Y14961334D02*
X51815000Y14944667D01*
X51731666Y14944667D01*
X51698333Y14961334D01*
X51681666Y14978000D01*
X51665000Y15011334D01*
X51665000Y15044667D01*
X51681666Y15078000D01*
X51698333Y15094667D01*
X51731666Y15111334D01*
X51798333Y15128000D01*
X51831666Y15144667D01*
X51848333Y15161334D01*
X51865000Y15194667D01*
X51865000Y15228000D01*
X51848333Y15261334D01*
X51831666Y15278000D01*
X51798333Y15294667D01*
X51715000Y15294667D01*
X51665000Y15278000D01*
X51565000Y15178000D02*
X51431666Y15178000D01*
X51515000Y15294667D02*
X51515000Y14994667D01*
X51498333Y14961334D01*
X51465000Y14944667D01*
X51431666Y14944667D01*
X51181666Y14961334D02*
X51215000Y14944667D01*
X51281666Y14944667D01*
X51315000Y14961334D01*
X51331666Y14994667D01*
X51331666Y15128000D01*
X51315000Y15161334D01*
X51281666Y15178000D01*
X51215000Y15178000D01*
X51181666Y15161334D01*
X51165000Y15128000D01*
X51165000Y15094667D01*
X51331666Y15061334D01*
X51048333Y15178000D02*
X50965000Y14944667D01*
X50881666Y15178000D02*
X50965000Y14944667D01*
X50998333Y14861334D01*
X51015000Y14844667D01*
X51048333Y14828000D01*
X50748333Y14944667D02*
X50748333Y15178000D01*
X50748333Y15111334D02*
X50731666Y15144667D01*
X50715000Y15161334D01*
X50681666Y15178000D01*
X50648333Y15178000D01*
D15*
G36*
X50200000Y18800000D02*
G01*
X50200000Y14800000D01*
X53500000Y14800000D01*
X50280000Y14800000D01*
X50280000Y15450000D01*
X53500000Y15450000D01*
X53500000Y14800000D01*
X54200000Y14800000D01*
X50200000Y18800000D01*
G37*
X50200000Y18800000D02*
X50200000Y14800000D01*
X53500000Y14800000D01*
X50280000Y14800000D01*
X50280000Y15450000D01*
X53500000Y15450000D01*
X53500000Y14800000D01*
X54200000Y14800000D01*
X50200000Y18800000D01*
X50500000Y18500000D02*
X54500000Y18500000D01*
X54500000Y18500000D02*
X54500000Y14500000D01*
X54500000Y14500000D02*
X50500000Y14500000D01*
X50500000Y14500000D02*
X50500000Y14800000D01*
G04 #@! TA.AperFunction,ComponentPad*
D16*
G36*
X29823513Y8996389D02*
G01*
X29896318Y8985589D01*
X29967714Y8967705D01*
X30037013Y8942910D01*
X30103548Y8911441D01*
X30166678Y8873602D01*
X30225795Y8829758D01*
X30280330Y8780330D01*
X30329758Y8725795D01*
X30373602Y8666678D01*
X30411441Y8603548D01*
X30442910Y8537013D01*
X30467705Y8467714D01*
X30485589Y8396318D01*
X30496389Y8323513D01*
X30500000Y8250000D01*
X30500000Y6750000D01*
X30496389Y6676487D01*
X30485589Y6603682D01*
X30467705Y6532286D01*
X30442910Y6462987D01*
X30411441Y6396452D01*
X30373602Y6333322D01*
X30329758Y6274205D01*
X30280330Y6219670D01*
X30225795Y6170242D01*
X30166678Y6126398D01*
X30103548Y6088559D01*
X30037013Y6057090D01*
X29967714Y6032295D01*
X29896318Y6014411D01*
X29823513Y6003611D01*
X29750000Y6000000D01*
X28250000Y6000000D01*
X28176487Y6003611D01*
X28103682Y6014411D01*
X28032286Y6032295D01*
X27962987Y6057090D01*
X27896452Y6088559D01*
X27833322Y6126398D01*
X27774205Y6170242D01*
X27719670Y6219670D01*
X27670242Y6274205D01*
X27626398Y6333322D01*
X27588559Y6396452D01*
X27557090Y6462987D01*
X27532295Y6532286D01*
X27514411Y6603682D01*
X27503611Y6676487D01*
X27500000Y6750000D01*
X27500000Y8250000D01*
X27503611Y8323513D01*
X27514411Y8396318D01*
X27532295Y8467714D01*
X27557090Y8537013D01*
X27588559Y8603548D01*
X27626398Y8666678D01*
X27670242Y8725795D01*
X27719670Y8780330D01*
X27774205Y8829758D01*
X27833322Y8873602D01*
X27896452Y8911441D01*
X27962987Y8942910D01*
X28032286Y8967705D01*
X28103682Y8985589D01*
X28176487Y8996389D01*
X28250000Y9000000D01*
X29750000Y9000000D01*
X29823513Y8996389D01*
G37*
G04 #@! TD.AperFunction*
D17*
X29000000Y10500000D03*
D18*
X29000000Y13500000D03*
G04 #@! TA.AperFunction,ComponentPad*
D16*
G36*
X29823513Y26996389D02*
G01*
X29896318Y26985589D01*
X29967714Y26967705D01*
X30037013Y26942910D01*
X30103548Y26911441D01*
X30166678Y26873602D01*
X30225795Y26829758D01*
X30280330Y26780330D01*
X30329758Y26725795D01*
X30373602Y26666678D01*
X30411441Y26603548D01*
X30442910Y26537013D01*
X30467705Y26467714D01*
X30485589Y26396318D01*
X30496389Y26323513D01*
X30500000Y26250000D01*
X30500000Y24750000D01*
X30496389Y24676487D01*
X30485589Y24603682D01*
X30467705Y24532286D01*
X30442910Y24462987D01*
X30411441Y24396452D01*
X30373602Y24333322D01*
X30329758Y24274205D01*
X30280330Y24219670D01*
X30225795Y24170242D01*
X30166678Y24126398D01*
X30103548Y24088559D01*
X30037013Y24057090D01*
X29967714Y24032295D01*
X29896318Y24014411D01*
X29823513Y24003611D01*
X29750000Y24000000D01*
X28250000Y24000000D01*
X28176487Y24003611D01*
X28103682Y24014411D01*
X28032286Y24032295D01*
X27962987Y24057090D01*
X27896452Y24088559D01*
X27833322Y24126398D01*
X27774205Y24170242D01*
X27719670Y24219670D01*
X27670242Y24274205D01*
X27626398Y24333322D01*
X27588559Y24396452D01*
X27557090Y24462987D01*
X27532295Y24532286D01*
X27514411Y24603682D01*
X27503611Y24676487D01*
X27500000Y24750000D01*
X27500000Y26250000D01*
X27503611Y26323513D01*
X27514411Y26396318D01*
X27532295Y26467714D01*
X27557090Y26537013D01*
X27588559Y26603548D01*
X27626398Y26666678D01*
X27670242Y26725795D01*
X27719670Y26780330D01*
X27774205Y26829758D01*
X27833322Y26873602D01*
X27896452Y26911441D01*
X27962987Y26942910D01*
X28032286Y26967705D01*
X28103682Y26985589D01*
X28176487Y26996389D01*
X28250000Y27000000D01*
X29750000Y27000000D01*
X29823513Y26996389D01*
G37*
G04 #@! TD.AperFunction*
D17*
X29000000Y22500000D03*
D18*
X29000000Y19500000D03*
G04 #@! TA.AperFunction,ComponentPad*
D16*
G36*
X15951756Y26498194D02*
G01*
X15988159Y26492794D01*
X16023857Y26483853D01*
X16058506Y26471455D01*
X16091774Y26455720D01*
X16123339Y26436801D01*
X16152897Y26414879D01*
X16180165Y26390165D01*
X16204879Y26362897D01*
X16226801Y26333339D01*
X16245720Y26301774D01*
X16261455Y26268506D01*
X16273853Y26233857D01*
X16282794Y26198159D01*
X16288194Y26161756D01*
X16290000Y26125000D01*
X16290000Y23875000D01*
X16288194Y23838244D01*
X16282794Y23801841D01*
X16273853Y23766143D01*
X16261455Y23731494D01*
X16245720Y23698226D01*
X16226801Y23666661D01*
X16204879Y23637103D01*
X16180165Y23609835D01*
X16152897Y23585121D01*
X16123339Y23563199D01*
X16091774Y23544280D01*
X16058506Y23528545D01*
X16023857Y23516147D01*
X15988159Y23507206D01*
X15951756Y23501806D01*
X15915000Y23500000D01*
X15165000Y23500000D01*
X15128244Y23501806D01*
X15091841Y23507206D01*
X15056143Y23516147D01*
X15021494Y23528545D01*
X14988226Y23544280D01*
X14956661Y23563199D01*
X14927103Y23585121D01*
X14899835Y23609835D01*
X14875121Y23637103D01*
X14853199Y23666661D01*
X14834280Y23698226D01*
X14818545Y23731494D01*
X14806147Y23766143D01*
X14797206Y23801841D01*
X14791806Y23838244D01*
X14790000Y23875000D01*
X14790000Y26125000D01*
X14791806Y26161756D01*
X14797206Y26198159D01*
X14806147Y26233857D01*
X14818545Y26268506D01*
X14834280Y26301774D01*
X14853199Y26333339D01*
X14875121Y26362897D01*
X14899835Y26390165D01*
X14927103Y26414879D01*
X14956661Y26436801D01*
X14988226Y26455720D01*
X15021494Y26471455D01*
X15056143Y26483853D01*
X15091841Y26492794D01*
X15128244Y26498194D01*
X15165000Y26500000D01*
X15915000Y26500000D01*
X15951756Y26498194D01*
G37*
G04 #@! TD.AperFunction*
G04 #@! TA.AperFunction,ComponentPad*
G36*
X10871756Y26498194D02*
G01*
X10908159Y26492794D01*
X10943857Y26483853D01*
X10978506Y26471455D01*
X11011774Y26455720D01*
X11043339Y26436801D01*
X11072897Y26414879D01*
X11100165Y26390165D01*
X11124879Y26362897D01*
X11146801Y26333339D01*
X11165720Y26301774D01*
X11181455Y26268506D01*
X11193853Y26233857D01*
X11202794Y26198159D01*
X11208194Y26161756D01*
X11210000Y26125000D01*
X11210000Y23875000D01*
X11208194Y23838244D01*
X11202794Y23801841D01*
X11193853Y23766143D01*
X11181455Y23731494D01*
X11165720Y23698226D01*
X11146801Y23666661D01*
X11124879Y23637103D01*
X11100165Y23609835D01*
X11072897Y23585121D01*
X11043339Y23563199D01*
X11011774Y23544280D01*
X10978506Y23528545D01*
X10943857Y23516147D01*
X10908159Y23507206D01*
X10871756Y23501806D01*
X10835000Y23500000D01*
X10085000Y23500000D01*
X10048244Y23501806D01*
X10011841Y23507206D01*
X9976143Y23516147D01*
X9941494Y23528545D01*
X9908226Y23544280D01*
X9876661Y23563199D01*
X9847103Y23585121D01*
X9819835Y23609835D01*
X9795121Y23637103D01*
X9773199Y23666661D01*
X9754280Y23698226D01*
X9738545Y23731494D01*
X9726147Y23766143D01*
X9717206Y23801841D01*
X9711806Y23838244D01*
X9710000Y23875000D01*
X9710000Y26125000D01*
X9711806Y26161756D01*
X9717206Y26198159D01*
X9726147Y26233857D01*
X9738545Y26268506D01*
X9754280Y26301774D01*
X9773199Y26333339D01*
X9795121Y26362897D01*
X9819835Y26390165D01*
X9847103Y26414879D01*
X9876661Y26436801D01*
X9908226Y26455720D01*
X9941494Y26471455D01*
X9976143Y26483853D01*
X10011841Y26492794D01*
X10048244Y26498194D01*
X10085000Y26500000D01*
X10835000Y26500000D01*
X10871756Y26498194D01*
G37*
G04 #@! TD.AperFunction*
G04 #@! TA.AperFunction,ComponentPad*
G36*
X13411756Y26498194D02*
G01*
X13448159Y26492794D01*
X13483857Y26483853D01*
X13518506Y26471455D01*
X13551774Y26455720D01*
X13583339Y26436801D01*
X13612897Y26414879D01*
X13640165Y26390165D01*
X13664879Y26362897D01*
X13686801Y26333339D01*
X13705720Y26301774D01*
X13721455Y26268506D01*
X13733853Y26233857D01*
X13742794Y26198159D01*
X13748194Y26161756D01*
X13750000Y26125000D01*
X13750000Y23875000D01*
X13748194Y23838244D01*
X13742794Y23801841D01*
X13733853Y23766143D01*
X13721455Y23731494D01*
X13705720Y23698226D01*
X13686801Y23666661D01*
X13664879Y23637103D01*
X13640165Y23609835D01*
X13612897Y23585121D01*
X13583339Y23563199D01*
X13551774Y23544280D01*
X13518506Y23528545D01*
X13483857Y23516147D01*
X13448159Y23507206D01*
X13411756Y23501806D01*
X13375000Y23500000D01*
X12625000Y23500000D01*
X12588244Y23501806D01*
X12551841Y23507206D01*
X12516143Y23516147D01*
X12481494Y23528545D01*
X12448226Y23544280D01*
X12416661Y23563199D01*
X12387103Y23585121D01*
X12359835Y23609835D01*
X12335121Y23637103D01*
X12313199Y23666661D01*
X12294280Y23698226D01*
X12278545Y23731494D01*
X12266147Y23766143D01*
X12257206Y23801841D01*
X12251806Y23838244D01*
X12250000Y23875000D01*
X12250000Y26125000D01*
X12251806Y26161756D01*
X12257206Y26198159D01*
X12266147Y26233857D01*
X12278545Y26268506D01*
X12294280Y26301774D01*
X12313199Y26333339D01*
X12335121Y26362897D01*
X12359835Y26390165D01*
X12387103Y26414879D01*
X12416661Y26436801D01*
X12448226Y26455720D01*
X12481494Y26471455D01*
X12516143Y26483853D01*
X12551841Y26492794D01*
X12588244Y26498194D01*
X12625000Y26500000D01*
X13375000Y26500000D01*
X13411756Y26498194D01*
G37*
G04 #@! TD.AperFunction*
G04 #@! TA.AperFunction,ComponentPad*
G36*
X10871756Y9498194D02*
G01*
X10908159Y9492794D01*
X10943857Y9483853D01*
X10978506Y9471455D01*
X11011774Y9455720D01*
X11043339Y9436801D01*
X11072897Y9414879D01*
X11100165Y9390165D01*
X11124879Y9362897D01*
X11146801Y9333339D01*
X11165720Y9301774D01*
X11181455Y9268506D01*
X11193853Y9233857D01*
X11202794Y9198159D01*
X11208194Y9161756D01*
X11210000Y9125000D01*
X11210000Y6875000D01*
X11208194Y6838244D01*
X11202794Y6801841D01*
X11193853Y6766143D01*
X11181455Y6731494D01*
X11165720Y6698226D01*
X11146801Y6666661D01*
X11124879Y6637103D01*
X11100165Y6609835D01*
X11072897Y6585121D01*
X11043339Y6563199D01*
X11011774Y6544280D01*
X10978506Y6528545D01*
X10943857Y6516147D01*
X10908159Y6507206D01*
X10871756Y6501806D01*
X10835000Y6500000D01*
X10085000Y6500000D01*
X10048244Y6501806D01*
X10011841Y6507206D01*
X9976143Y6516147D01*
X9941494Y6528545D01*
X9908226Y6544280D01*
X9876661Y6563199D01*
X9847103Y6585121D01*
X9819835Y6609835D01*
X9795121Y6637103D01*
X9773199Y6666661D01*
X9754280Y6698226D01*
X9738545Y6731494D01*
X9726147Y6766143D01*
X9717206Y6801841D01*
X9711806Y6838244D01*
X9710000Y6875000D01*
X9710000Y9125000D01*
X9711806Y9161756D01*
X9717206Y9198159D01*
X9726147Y9233857D01*
X9738545Y9268506D01*
X9754280Y9301774D01*
X9773199Y9333339D01*
X9795121Y9362897D01*
X9819835Y9390165D01*
X9847103Y9414879D01*
X9876661Y9436801D01*
X9908226Y9455720D01*
X9941494Y9471455D01*
X9976143Y9483853D01*
X10011841Y9492794D01*
X10048244Y9498194D01*
X10085000Y9500000D01*
X10835000Y9500000D01*
X10871756Y9498194D01*
G37*
G04 #@! TD.AperFunction*
G04 #@! TA.AperFunction,ComponentPad*
G36*
X15951756Y9498194D02*
G01*
X15988159Y9492794D01*
X16023857Y9483853D01*
X16058506Y9471455D01*
X16091774Y9455720D01*
X16123339Y9436801D01*
X16152897Y9414879D01*
X16180165Y9390165D01*
X16204879Y9362897D01*
X16226801Y9333339D01*
X16245720Y9301774D01*
X16261455Y9268506D01*
X16273853Y9233857D01*
X16282794Y9198159D01*
X16288194Y9161756D01*
X16290000Y9125000D01*
X16290000Y6875000D01*
X16288194Y6838244D01*
X16282794Y6801841D01*
X16273853Y6766143D01*
X16261455Y6731494D01*
X16245720Y6698226D01*
X16226801Y6666661D01*
X16204879Y6637103D01*
X16180165Y6609835D01*
X16152897Y6585121D01*
X16123339Y6563199D01*
X16091774Y6544280D01*
X16058506Y6528545D01*
X16023857Y6516147D01*
X15988159Y6507206D01*
X15951756Y6501806D01*
X15915000Y6500000D01*
X15165000Y6500000D01*
X15128244Y6501806D01*
X15091841Y6507206D01*
X15056143Y6516147D01*
X15021494Y6528545D01*
X14988226Y6544280D01*
X14956661Y6563199D01*
X14927103Y6585121D01*
X14899835Y6609835D01*
X14875121Y6637103D01*
X14853199Y6666661D01*
X14834280Y6698226D01*
X14818545Y6731494D01*
X14806147Y6766143D01*
X14797206Y6801841D01*
X14791806Y6838244D01*
X14790000Y6875000D01*
X14790000Y9125000D01*
X14791806Y9161756D01*
X14797206Y9198159D01*
X14806147Y9233857D01*
X14818545Y9268506D01*
X14834280Y9301774D01*
X14853199Y9333339D01*
X14875121Y9362897D01*
X14899835Y9390165D01*
X14927103Y9414879D01*
X14956661Y9436801D01*
X14988226Y9455720D01*
X15021494Y9471455D01*
X15056143Y9483853D01*
X15091841Y9492794D01*
X15128244Y9498194D01*
X15165000Y9500000D01*
X15915000Y9500000D01*
X15951756Y9498194D01*
G37*
G04 #@! TD.AperFunction*
G04 #@! TA.AperFunction,ComponentPad*
G36*
X13411756Y9498194D02*
G01*
X13448159Y9492794D01*
X13483857Y9483853D01*
X13518506Y9471455D01*
X13551774Y9455720D01*
X13583339Y9436801D01*
X13612897Y9414879D01*
X13640165Y9390165D01*
X13664879Y9362897D01*
X13686801Y9333339D01*
X13705720Y9301774D01*
X13721455Y9268506D01*
X13733853Y9233857D01*
X13742794Y9198159D01*
X13748194Y9161756D01*
X13750000Y9125000D01*
X13750000Y6875000D01*
X13748194Y6838244D01*
X13742794Y6801841D01*
X13733853Y6766143D01*
X13721455Y6731494D01*
X13705720Y6698226D01*
X13686801Y6666661D01*
X13664879Y6637103D01*
X13640165Y6609835D01*
X13612897Y6585121D01*
X13583339Y6563199D01*
X13551774Y6544280D01*
X13518506Y6528545D01*
X13483857Y6516147D01*
X13448159Y6507206D01*
X13411756Y6501806D01*
X13375000Y6500000D01*
X12625000Y6500000D01*
X12588244Y6501806D01*
X12551841Y6507206D01*
X12516143Y6516147D01*
X12481494Y6528545D01*
X12448226Y6544280D01*
X12416661Y6563199D01*
X12387103Y6585121D01*
X12359835Y6609835D01*
X12335121Y6637103D01*
X12313199Y6666661D01*
X12294280Y6698226D01*
X12278545Y6731494D01*
X12266147Y6766143D01*
X12257206Y6801841D01*
X12251806Y6838244D01*
X12250000Y6875000D01*
X12250000Y9125000D01*
X12251806Y9161756D01*
X12257206Y9198159D01*
X12266147Y9233857D01*
X12278545Y9268506D01*
X12294280Y9301774D01*
X12313199Y9333339D01*
X12335121Y9362897D01*
X12359835Y9390165D01*
X12387103Y9414879D01*
X12416661Y9436801D01*
X12448226Y9455720D01*
X12481494Y9471455D01*
X12516143Y9483853D01*
X12551841Y9492794D01*
X12588244Y9498194D01*
X12625000Y9500000D01*
X13375000Y9500000D01*
X13411756Y9498194D01*
G37*
G04 #@! TD.AperFunction*
D19*
X52000000Y8000000D03*
X52000000Y25000000D03*
D20*
X13000000Y13000000D03*
X20620000Y13000000D03*
X13000000Y20000000D03*
X20620000Y20000000D03*
X47000000Y8000000D03*
X36840000Y8000000D03*
X47000000Y13000000D03*
X36840000Y13000000D03*
X47000000Y20000000D03*
X36840000Y20000000D03*
X47000000Y25000000D03*
X36840000Y25000000D03*
G04 #@! TA.AperFunction,ComponentPad*
D16*
G36*
X6549009Y12647592D02*
G01*
X6597545Y12640393D01*
X6645142Y12628470D01*
X6691342Y12611940D01*
X6735698Y12590961D01*
X6777785Y12565735D01*
X6817197Y12536505D01*
X6853553Y12503553D01*
X6886505Y12467197D01*
X6915735Y12427785D01*
X6940961Y12385698D01*
X6961940Y12341342D01*
X6978470Y12295142D01*
X6990393Y12247545D01*
X6997592Y12199009D01*
X7000000Y12150000D01*
X7000000Y10850000D01*
X6997592Y10800991D01*
X6990393Y10752455D01*
X6978470Y10704858D01*
X6961940Y10658658D01*
X6940961Y10614302D01*
X6915735Y10572215D01*
X6886505Y10532803D01*
X6853553Y10496447D01*
X6817197Y10463495D01*
X6777785Y10434265D01*
X6735698Y10409039D01*
X6691342Y10388060D01*
X6645142Y10371530D01*
X6597545Y10359607D01*
X6549009Y10352408D01*
X6500000Y10350000D01*
X5500000Y10350000D01*
X5450991Y10352408D01*
X5402455Y10359607D01*
X5354858Y10371530D01*
X5308658Y10388060D01*
X5264302Y10409039D01*
X5222215Y10434265D01*
X5182803Y10463495D01*
X5146447Y10496447D01*
X5113495Y10532803D01*
X5084265Y10572215D01*
X5059039Y10614302D01*
X5038060Y10658658D01*
X5021530Y10704858D01*
X5009607Y10752455D01*
X5002408Y10800991D01*
X5000000Y10850000D01*
X5000000Y12150000D01*
X5002408Y12199009D01*
X5009607Y12247545D01*
X5021530Y12295142D01*
X5038060Y12341342D01*
X5059039Y12385698D01*
X5084265Y12427785D01*
X5113495Y12467197D01*
X5146447Y12503553D01*
X5182803Y12536505D01*
X5222215Y12565735D01*
X5264302Y12590961D01*
X5308658Y12611940D01*
X5354858Y12628470D01*
X5402455Y12640393D01*
X5450991Y12647592D01*
X5500000Y12650000D01*
X6500000Y12650000D01*
X6549009Y12647592D01*
G37*
G04 #@! TD.AperFunction*
G04 #@! TA.AperFunction,ComponentPad*
G36*
X6549009Y9107592D02*
G01*
X6597545Y9100393D01*
X6645142Y9088470D01*
X6691342Y9071940D01*
X6735698Y9050961D01*
X6777785Y9025735D01*
X6817197Y8996505D01*
X6853553Y8963553D01*
X6886505Y8927197D01*
X6915735Y8887785D01*
X6940961Y8845698D01*
X6961940Y8801342D01*
X6978470Y8755142D01*
X6990393Y8707545D01*
X6997592Y8659009D01*
X7000000Y8610000D01*
X7000000Y7310000D01*
X6997592Y7260991D01*
X6990393Y7212455D01*
X6978470Y7164858D01*
X6961940Y7118658D01*
X6940961Y7074302D01*
X6915735Y7032215D01*
X6886505Y6992803D01*
X6853553Y6956447D01*
X6817197Y6923495D01*
X6777785Y6894265D01*
X6735698Y6869039D01*
X6691342Y6848060D01*
X6645142Y6831530D01*
X6597545Y6819607D01*
X6549009Y6812408D01*
X6500000Y6810000D01*
X5500000Y6810000D01*
X5450991Y6812408D01*
X5402455Y6819607D01*
X5354858Y6831530D01*
X5308658Y6848060D01*
X5264302Y6869039D01*
X5222215Y6894265D01*
X5182803Y6923495D01*
X5146447Y6956447D01*
X5113495Y6992803D01*
X5084265Y7032215D01*
X5059039Y7074302D01*
X5038060Y7118658D01*
X5021530Y7164858D01*
X5009607Y7212455D01*
X5002408Y7260991D01*
X5000000Y7310000D01*
X5000000Y8610000D01*
X5002408Y8659009D01*
X5009607Y8707545D01*
X5021530Y8755142D01*
X5038060Y8801342D01*
X5059039Y8845698D01*
X5084265Y8887785D01*
X5113495Y8927197D01*
X5146447Y8963553D01*
X5182803Y8996505D01*
X5222215Y9025735D01*
X5264302Y9050961D01*
X5308658Y9071940D01*
X5354858Y9088470D01*
X5402455Y9100393D01*
X5450991Y9107592D01*
X5500000Y9110000D01*
X6500000Y9110000D01*
X6549009Y9107592D01*
G37*
G04 #@! TD.AperFunction*
G04 #@! TA.AperFunction,ComponentPad*
G36*
X6549009Y22647592D02*
G01*
X6597545Y22640393D01*
X6645142Y22628470D01*
X6691342Y22611940D01*
X6735698Y22590961D01*
X6777785Y22565735D01*
X6817197Y22536505D01*
X6853553Y22503553D01*
X6886505Y22467197D01*
X6915735Y22427785D01*
X6940961Y22385698D01*
X6961940Y22341342D01*
X6978470Y22295142D01*
X6990393Y22247545D01*
X6997592Y22199009D01*
X7000000Y22150000D01*
X7000000Y20850000D01*
X6997592Y20800991D01*
X6990393Y20752455D01*
X6978470Y20704858D01*
X6961940Y20658658D01*
X6940961Y20614302D01*
X6915735Y20572215D01*
X6886505Y20532803D01*
X6853553Y20496447D01*
X6817197Y20463495D01*
X6777785Y20434265D01*
X6735698Y20409039D01*
X6691342Y20388060D01*
X6645142Y20371530D01*
X6597545Y20359607D01*
X6549009Y20352408D01*
X6500000Y20350000D01*
X5500000Y20350000D01*
X5450991Y20352408D01*
X5402455Y20359607D01*
X5354858Y20371530D01*
X5308658Y20388060D01*
X5264302Y20409039D01*
X5222215Y20434265D01*
X5182803Y20463495D01*
X5146447Y20496447D01*
X5113495Y20532803D01*
X5084265Y20572215D01*
X5059039Y20614302D01*
X5038060Y20658658D01*
X5021530Y20704858D01*
X5009607Y20752455D01*
X5002408Y20800991D01*
X5000000Y20850000D01*
X5000000Y22150000D01*
X5002408Y22199009D01*
X5009607Y22247545D01*
X5021530Y22295142D01*
X5038060Y22341342D01*
X5059039Y22385698D01*
X5084265Y22427785D01*
X5113495Y22467197D01*
X5146447Y22503553D01*
X5182803Y22536505D01*
X5222215Y22565735D01*
X5264302Y22590961D01*
X5308658Y22611940D01*
X5354858Y22628470D01*
X5402455Y22640393D01*
X5450991Y22647592D01*
X5500000Y22650000D01*
X6500000Y22650000D01*
X6549009Y22647592D01*
G37*
G04 #@! TD.AperFunction*
G04 #@! TA.AperFunction,ComponentPad*
G36*
X6549009Y26187592D02*
G01*
X6597545Y26180393D01*
X6645142Y26168470D01*
X6691342Y26151940D01*
X6735698Y26130961D01*
X6777785Y26105735D01*
X6817197Y26076505D01*
X6853553Y26043553D01*
X6886505Y26007197D01*
X6915735Y25967785D01*
X6940961Y25925698D01*
X6961940Y25881342D01*
X6978470Y25835142D01*
X6990393Y25787545D01*
X6997592Y25739009D01*
X7000000Y25690000D01*
X7000000Y24390000D01*
X6997592Y24340991D01*
X6990393Y24292455D01*
X6978470Y24244858D01*
X6961940Y24198658D01*
X6940961Y24154302D01*
X6915735Y24112215D01*
X6886505Y24072803D01*
X6853553Y24036447D01*
X6817197Y24003495D01*
X6777785Y23974265D01*
X6735698Y23949039D01*
X6691342Y23928060D01*
X6645142Y23911530D01*
X6597545Y23899607D01*
X6549009Y23892408D01*
X6500000Y23890000D01*
X5500000Y23890000D01*
X5450991Y23892408D01*
X5402455Y23899607D01*
X5354858Y23911530D01*
X5308658Y23928060D01*
X5264302Y23949039D01*
X5222215Y23974265D01*
X5182803Y24003495D01*
X5146447Y24036447D01*
X5113495Y24072803D01*
X5084265Y24112215D01*
X5059039Y24154302D01*
X5038060Y24198658D01*
X5021530Y24244858D01*
X5009607Y24292455D01*
X5002408Y24340991D01*
X5000000Y24390000D01*
X5000000Y25690000D01*
X5002408Y25739009D01*
X5009607Y25787545D01*
X5021530Y25835142D01*
X5038060Y25881342D01*
X5059039Y25925698D01*
X5084265Y25967785D01*
X5113495Y26007197D01*
X5146447Y26043553D01*
X5182803Y26076505D01*
X5222215Y26105735D01*
X5264302Y26130961D01*
X5308658Y26151940D01*
X5354858Y26168470D01*
X5402455Y26180393D01*
X5450991Y26187592D01*
X5500000Y26190000D01*
X6500000Y26190000D01*
X6549009Y26187592D01*
G37*
G04 #@! TD.AperFunction*
D21*
X36840000Y20000000D02*
X29000000Y20000000D01*
X19720001Y13899999D02*
X20620000Y13000000D01*
X25500000Y20000000D02*
X22500000Y23000000D01*
X29000000Y20000000D02*
X25500000Y20000000D01*
X22500000Y23000000D02*
X19000000Y23000000D01*
X17500000Y16120000D02*
X19720001Y13899999D01*
X19000000Y23000000D02*
X17500000Y21500000D01*
X17500000Y21500000D02*
X17500000Y16120000D01*
X29000000Y20000000D02*
X29000000Y22500000D01*
X15540000Y25000000D02*
X29000000Y25000000D01*
X7700000Y22000000D02*
X8600000Y22900000D01*
X13840000Y27800000D02*
X15540000Y26100000D01*
X8600000Y22900000D02*
X8600000Y27200000D01*
X8600000Y27200000D02*
X9200000Y27800000D01*
X15540000Y26100000D02*
X15540000Y25000000D01*
X6000000Y22000000D02*
X7700000Y22000000D01*
X9200000Y27800000D02*
X13840000Y27800000D01*
X36840000Y13000000D02*
X29000000Y13000000D01*
X22000000Y20000000D02*
X20620000Y20000000D01*
X29000000Y13000000D02*
X22000000Y20000000D01*
X29000000Y13000000D02*
X29000000Y10500000D01*
X10460000Y6500000D02*
X10460000Y8000000D01*
X11559989Y5400011D02*
X10460000Y6500000D01*
X29000000Y8000000D02*
X26400011Y5400011D01*
X26400011Y5400011D02*
X11559989Y5400011D01*
X7750000Y11500000D02*
X10460000Y8790000D01*
X6000000Y11000000D02*
X6500000Y11500000D01*
X10460000Y8790000D02*
X10460000Y8000000D01*
X6500000Y11500000D02*
X7750000Y11500000D01*
X13000000Y25000000D02*
X13000000Y20000000D01*
X13000000Y13000000D02*
X13000000Y8000000D01*
X32040000Y29800000D02*
X36040001Y25799999D01*
X8200000Y29800000D02*
X32040000Y29800000D01*
X6000000Y24540000D02*
X6000000Y27600000D01*
X36040001Y25799999D02*
X36840000Y25000000D01*
X6000000Y27600000D02*
X8200000Y29800000D01*
X36040001Y7200001D02*
X36840000Y8000000D01*
X32840000Y4000000D02*
X36040001Y7200001D01*
X9750000Y4000000D02*
X32840000Y4000000D01*
X6000000Y8460000D02*
X6000000Y7750000D01*
X6000000Y7750000D02*
X9750000Y4000000D01*
X47000000Y25000000D02*
X47000000Y20000000D01*
X47000000Y20000000D02*
X47000000Y13000000D01*
X47000000Y13000000D02*
X47000000Y8000000D01*
X47000000Y25000000D02*
X52000000Y25000000D01*
X10350000Y23790000D02*
X10350000Y19070002D01*
X10460000Y23900000D02*
X10350000Y23790000D01*
X10460000Y25000000D02*
X10460000Y23900000D01*
X15500000Y8040000D02*
X15540000Y8000000D01*
X10350000Y19070002D02*
X15500000Y13920002D01*
X15500000Y13920002D02*
X15500000Y8040000D01*
X49000000Y5000000D02*
X38750000Y5000000D01*
X10320002Y19070002D02*
X10350000Y19070002D01*
X36250000Y2500000D02*
X6750000Y2500000D01*
X52000000Y8000000D02*
X49000000Y5000000D01*
X3500000Y12250000D02*
X10320002Y19070002D01*
X3500000Y5750000D02*
X3500000Y12250000D01*
X38750000Y5000000D02*
X36250000Y2500000D01*
X6750000Y2500000D02*
X3500000Y5750000D01*
M02*
