M48
; DRILL file {KiCad 5.1.5-52549c5~84~ubuntu18.04.1} date 2020-06-19T14:54:16 CEST
; FORMAT={-:-/ absolute / metric / decimal}
; #@! TF.CreationDate,2020-06-19T14:54:16+02:00
; #@! TF.GenerationSoftware,Kicad,Pcbnew,5.1.5-52549c5~84~ubuntu18.04.1
FMAT,2
METRIC
T1C0.750
T2C0.800
T3C0.900
T4C1.000
%
G90
G05
T1
X10.46Y8.0
X13.0Y8.0
X15.54Y8.0
X10.46Y25.0
X13.0Y25.0
X15.54Y25.0
T2
X36.84Y25.0
X47.0Y25.0
X36.84Y8.0
X47.0Y8.0
X36.84Y20.0
X47.0Y20.0
X36.84Y13.0
X47.0Y13.0
T3
X13.0Y20.0
X20.62Y20.0
X13.0Y13.0
X20.62Y13.0
X6.0Y11.0
X6.0Y8.46
X6.0Y24.54
X6.0Y22.0
T4
X52.0Y8.0
X52.0Y25.0
X29.0Y13.0
X29.0Y10.5
X29.0Y8.0
X29.0Y25.0
X29.0Y22.5
X29.0Y20.0
T0
M30
