G04 #@! TF.GenerationSoftware,KiCad,Pcbnew,5.1.5-52549c5~84~ubuntu18.04.1*
G04 #@! TF.CreationDate,2020-06-19T14:53:48+02:00*
G04 #@! TF.ProjectId,astabile-kippstufe,61737461-6269-46c6-952d-6b6970707374,V19.0.1*
G04 #@! TF.SameCoordinates,PX754d4c0PY5f5e100*
G04 #@! TF.FileFunction,Soldermask,Top*
G04 #@! TF.FilePolarity,Negative*
%FSLAX46Y46*%
G04 Gerber Fmt 4.6, Leading zero omitted, Abs format (unit mm)*
G04 Created by KiCad (PCBNEW 5.1.5-52549c5~84~ubuntu18.04.1) date 2020-06-19 14:53:48*
%MOMM*%
%LPD*%
G04 APERTURE LIST*
%ADD10C,0.050000*%
%ADD11C,0.100000*%
G04 APERTURE END LIST*
D10*
X0Y0D02*
X0Y32000000D01*
X57000000Y0D02*
X0Y0D01*
X57000000Y8000000D02*
X57000000Y0D01*
X57000000Y8000000D02*
X57000000Y25000000D01*
X57000000Y32000000D02*
X0Y32000000D01*
X57000000Y25000000D02*
X57000000Y32000000D01*
D11*
G36*
X29976979Y9036707D02*
G01*
X30110625Y8996166D01*
X30233784Y8930336D01*
X30341740Y8841740D01*
X30430336Y8733784D01*
X30496166Y8610625D01*
X30536707Y8476979D01*
X30551000Y8331860D01*
X30551000Y6668140D01*
X30536707Y6523021D01*
X30496166Y6389375D01*
X30430336Y6266216D01*
X30341740Y6158260D01*
X30233784Y6069664D01*
X30110625Y6003834D01*
X29976979Y5963293D01*
X29831860Y5949000D01*
X28168140Y5949000D01*
X28023021Y5963293D01*
X27889375Y6003834D01*
X27766216Y6069664D01*
X27658260Y6158260D01*
X27569664Y6266216D01*
X27503834Y6389375D01*
X27463293Y6523021D01*
X27449000Y6668140D01*
X27449000Y8331860D01*
X27463293Y8476979D01*
X27503834Y8610625D01*
X27569664Y8733784D01*
X27658260Y8841740D01*
X27766216Y8930336D01*
X27889375Y8996166D01*
X28023021Y9036707D01*
X28168140Y9051000D01*
X29831860Y9051000D01*
X29976979Y9036707D01*
G37*
G36*
X52284909Y9524714D02*
G01*
X52452410Y9491396D01*
X52734674Y9374479D01*
X52988705Y9204741D01*
X53204741Y8988705D01*
X53374479Y8734674D01*
X53491396Y8452410D01*
X53551000Y8152760D01*
X53551000Y7847240D01*
X53491396Y7547590D01*
X53374479Y7265326D01*
X53204741Y7011295D01*
X52988705Y6795259D01*
X52734674Y6625521D01*
X52452410Y6508604D01*
X52306024Y6479486D01*
X52152761Y6449000D01*
X51847239Y6449000D01*
X51693976Y6479486D01*
X51547590Y6508604D01*
X51265326Y6625521D01*
X51011295Y6795259D01*
X50795259Y7011295D01*
X50625521Y7265326D01*
X50508604Y7547590D01*
X50449000Y7847240D01*
X50449000Y8152760D01*
X50508604Y8452410D01*
X50625521Y8734674D01*
X50795259Y8988705D01*
X51011295Y9204741D01*
X51265326Y9374479D01*
X51547590Y9491396D01*
X51715091Y9524714D01*
X51847239Y9551000D01*
X52152761Y9551000D01*
X52284909Y9524714D01*
G37*
G36*
X13528823Y9543913D02*
G01*
X13592111Y9524714D01*
X13650449Y9493532D01*
X13701575Y9451575D01*
X13743532Y9400449D01*
X13774714Y9342111D01*
X13793913Y9278823D01*
X13801000Y9206862D01*
X13801000Y6793138D01*
X13793913Y6721177D01*
X13774714Y6657889D01*
X13743532Y6599551D01*
X13701575Y6548425D01*
X13650449Y6506468D01*
X13592111Y6475286D01*
X13528823Y6456087D01*
X13456862Y6449000D01*
X12543138Y6449000D01*
X12471177Y6456087D01*
X12407889Y6475286D01*
X12349551Y6506468D01*
X12298425Y6548425D01*
X12256468Y6599551D01*
X12225286Y6657889D01*
X12206087Y6721177D01*
X12199000Y6793138D01*
X12199000Y9206862D01*
X12206087Y9278823D01*
X12225286Y9342111D01*
X12256468Y9400449D01*
X12298425Y9451575D01*
X12349551Y9493532D01*
X12407889Y9524714D01*
X12471177Y9543913D01*
X12543138Y9551000D01*
X13456862Y9551000D01*
X13528823Y9543913D01*
G37*
G36*
X16068823Y9543913D02*
G01*
X16132111Y9524714D01*
X16190449Y9493532D01*
X16241575Y9451575D01*
X16283532Y9400449D01*
X16314714Y9342111D01*
X16333913Y9278823D01*
X16341000Y9206862D01*
X16341000Y6793138D01*
X16333913Y6721177D01*
X16314714Y6657889D01*
X16283532Y6599551D01*
X16241575Y6548425D01*
X16190449Y6506468D01*
X16132111Y6475286D01*
X16068823Y6456087D01*
X15996862Y6449000D01*
X15083138Y6449000D01*
X15011177Y6456087D01*
X14947889Y6475286D01*
X14889551Y6506468D01*
X14838425Y6548425D01*
X14796468Y6599551D01*
X14765286Y6657889D01*
X14746087Y6721177D01*
X14739000Y6793138D01*
X14739000Y9206862D01*
X14746087Y9278823D01*
X14765286Y9342111D01*
X14796468Y9400449D01*
X14838425Y9451575D01*
X14889551Y9493532D01*
X14947889Y9524714D01*
X15011177Y9543913D01*
X15083138Y9551000D01*
X15996862Y9551000D01*
X16068823Y9543913D01*
G37*
G36*
X10988823Y9543913D02*
G01*
X11052111Y9524714D01*
X11110449Y9493532D01*
X11161575Y9451575D01*
X11203532Y9400449D01*
X11234714Y9342111D01*
X11253913Y9278823D01*
X11261000Y9206862D01*
X11261000Y6793138D01*
X11253913Y6721177D01*
X11234714Y6657889D01*
X11203532Y6599551D01*
X11161575Y6548425D01*
X11110449Y6506468D01*
X11052111Y6475286D01*
X10988823Y6456087D01*
X10916862Y6449000D01*
X10003138Y6449000D01*
X9931177Y6456087D01*
X9867889Y6475286D01*
X9809551Y6506468D01*
X9758425Y6548425D01*
X9716468Y6599551D01*
X9685286Y6657889D01*
X9666087Y6721177D01*
X9659000Y6793138D01*
X9659000Y9206862D01*
X9666087Y9278823D01*
X9685286Y9342111D01*
X9716468Y9400449D01*
X9758425Y9451575D01*
X9809551Y9493532D01*
X9867889Y9524714D01*
X9931177Y9543913D01*
X10003138Y9551000D01*
X10916862Y9551000D01*
X10988823Y9543913D01*
G37*
G36*
X37219487Y9251004D02*
G01*
X37436775Y9161000D01*
X37456255Y9152931D01*
X37561707Y9082470D01*
X37669339Y9010553D01*
X37850553Y8829339D01*
X37992932Y8616253D01*
X38091004Y8379487D01*
X38141000Y8128139D01*
X38141000Y7871861D01*
X38091004Y7620513D01*
X38060798Y7547590D01*
X37992931Y7383745D01*
X37850553Y7170661D01*
X37669339Y6989447D01*
X37456255Y6847069D01*
X37456254Y6847068D01*
X37456253Y6847068D01*
X37219487Y6748996D01*
X36968139Y6699000D01*
X36711861Y6699000D01*
X36460513Y6748996D01*
X36223747Y6847068D01*
X36223746Y6847068D01*
X36223745Y6847069D01*
X36010661Y6989447D01*
X35829447Y7170661D01*
X35687069Y7383745D01*
X35619202Y7547590D01*
X35588996Y7620513D01*
X35539000Y7871861D01*
X35539000Y8128139D01*
X35588996Y8379487D01*
X35687068Y8616253D01*
X35829447Y8829339D01*
X36010661Y9010553D01*
X36118293Y9082470D01*
X36223745Y9152931D01*
X36243225Y9161000D01*
X36460513Y9251004D01*
X36711861Y9301000D01*
X36968139Y9301000D01*
X37219487Y9251004D01*
G37*
G36*
X47379487Y9251004D02*
G01*
X47596775Y9161000D01*
X47616255Y9152931D01*
X47721707Y9082470D01*
X47829339Y9010553D01*
X48010553Y8829339D01*
X48152932Y8616253D01*
X48251004Y8379487D01*
X48301000Y8128139D01*
X48301000Y7871861D01*
X48251004Y7620513D01*
X48220798Y7547590D01*
X48152931Y7383745D01*
X48010553Y7170661D01*
X47829339Y6989447D01*
X47616255Y6847069D01*
X47616254Y6847068D01*
X47616253Y6847068D01*
X47379487Y6748996D01*
X47128139Y6699000D01*
X46871861Y6699000D01*
X46620513Y6748996D01*
X46383747Y6847068D01*
X46383746Y6847068D01*
X46383745Y6847069D01*
X46170661Y6989447D01*
X45989447Y7170661D01*
X45847069Y7383745D01*
X45779202Y7547590D01*
X45748996Y7620513D01*
X45699000Y7871861D01*
X45699000Y8128139D01*
X45748996Y8379487D01*
X45847068Y8616253D01*
X45989447Y8829339D01*
X46170661Y9010553D01*
X46278293Y9082470D01*
X46383745Y9152931D01*
X46403225Y9161000D01*
X46620513Y9251004D01*
X46871861Y9301000D01*
X47128139Y9301000D01*
X47379487Y9251004D01*
G37*
G36*
X6678210Y9151511D02*
G01*
X6764950Y9125198D01*
X6844889Y9082470D01*
X6914962Y9024962D01*
X6972470Y8954889D01*
X7015198Y8874950D01*
X7041511Y8788210D01*
X7051000Y8691860D01*
X7051000Y7228140D01*
X7041511Y7131790D01*
X7015198Y7045050D01*
X6972470Y6965111D01*
X6914962Y6895038D01*
X6844889Y6837530D01*
X6764950Y6794802D01*
X6678210Y6768489D01*
X6581860Y6759000D01*
X5418140Y6759000D01*
X5321790Y6768489D01*
X5235050Y6794802D01*
X5155111Y6837530D01*
X5085038Y6895038D01*
X5027530Y6965111D01*
X4984802Y7045050D01*
X4958489Y7131790D01*
X4949000Y7228140D01*
X4949000Y8691860D01*
X4958489Y8788210D01*
X4984802Y8874950D01*
X5027530Y8954889D01*
X5085038Y9024962D01*
X5155111Y9082470D01*
X5235050Y9125198D01*
X5321790Y9151511D01*
X5418140Y9161000D01*
X6581860Y9161000D01*
X6678210Y9151511D01*
G37*
G36*
X30551000Y9449000D02*
G01*
X27449000Y9449000D01*
X27449000Y11551000D01*
X30551000Y11551000D01*
X30551000Y9449000D01*
G37*
G36*
X6678210Y12691511D02*
G01*
X6764950Y12665198D01*
X6844889Y12622470D01*
X6914962Y12564962D01*
X6972470Y12494889D01*
X7015198Y12414950D01*
X7041511Y12328210D01*
X7051000Y12231860D01*
X7051000Y10768140D01*
X7041511Y10671790D01*
X7015198Y10585050D01*
X6972470Y10505111D01*
X6914962Y10435038D01*
X6844889Y10377530D01*
X6764950Y10334802D01*
X6678210Y10308489D01*
X6581860Y10299000D01*
X5418140Y10299000D01*
X5321790Y10308489D01*
X5235050Y10334802D01*
X5155111Y10377530D01*
X5085038Y10435038D01*
X5027530Y10505111D01*
X4984802Y10585050D01*
X4958489Y10671790D01*
X4949000Y10768140D01*
X4949000Y12231860D01*
X4958489Y12328210D01*
X4984802Y12414950D01*
X5027530Y12494889D01*
X5085038Y12564962D01*
X5155111Y12622470D01*
X5235050Y12665198D01*
X5321790Y12691511D01*
X5418140Y12701000D01*
X6581860Y12701000D01*
X6678210Y12691511D01*
G37*
G36*
X13379487Y14251004D02*
G01*
X13616253Y14152932D01*
X13616255Y14152931D01*
X13829339Y14010553D01*
X14010553Y13829339D01*
X14152932Y13616253D01*
X14251004Y13379487D01*
X14301000Y13128139D01*
X14301000Y12871861D01*
X14251004Y12620513D01*
X14187604Y12467452D01*
X14152931Y12383745D01*
X14010553Y12170661D01*
X13829339Y11989447D01*
X13616255Y11847069D01*
X13616254Y11847068D01*
X13616253Y11847068D01*
X13379487Y11748996D01*
X13128139Y11699000D01*
X12871861Y11699000D01*
X12620513Y11748996D01*
X12383747Y11847068D01*
X12383746Y11847068D01*
X12383745Y11847069D01*
X12170661Y11989447D01*
X11989447Y12170661D01*
X11847069Y12383745D01*
X11812396Y12467452D01*
X11748996Y12620513D01*
X11699000Y12871861D01*
X11699000Y13128139D01*
X11748996Y13379487D01*
X11847068Y13616253D01*
X11989447Y13829339D01*
X12170661Y14010553D01*
X12383745Y14152931D01*
X12383747Y14152932D01*
X12620513Y14251004D01*
X12871861Y14301000D01*
X13128139Y14301000D01*
X13379487Y14251004D01*
G37*
G36*
X20999487Y14251004D02*
G01*
X21236253Y14152932D01*
X21236255Y14152931D01*
X21449339Y14010553D01*
X21630553Y13829339D01*
X21772932Y13616253D01*
X21871004Y13379487D01*
X21921000Y13128139D01*
X21921000Y12871861D01*
X21871004Y12620513D01*
X21807604Y12467452D01*
X21772931Y12383745D01*
X21630553Y12170661D01*
X21449339Y11989447D01*
X21236255Y11847069D01*
X21236254Y11847068D01*
X21236253Y11847068D01*
X20999487Y11748996D01*
X20748139Y11699000D01*
X20491861Y11699000D01*
X20240513Y11748996D01*
X20003747Y11847068D01*
X20003746Y11847068D01*
X20003745Y11847069D01*
X19790661Y11989447D01*
X19609447Y12170661D01*
X19467069Y12383745D01*
X19432396Y12467452D01*
X19368996Y12620513D01*
X19319000Y12871861D01*
X19319000Y13128139D01*
X19368996Y13379487D01*
X19467068Y13616253D01*
X19609447Y13829339D01*
X19790661Y14010553D01*
X20003745Y14152931D01*
X20003747Y14152932D01*
X20240513Y14251004D01*
X20491861Y14301000D01*
X20748139Y14301000D01*
X20999487Y14251004D01*
G37*
G36*
X37219487Y14251004D02*
G01*
X37456253Y14152932D01*
X37456255Y14152931D01*
X37669339Y14010553D01*
X37850553Y13829339D01*
X37992932Y13616253D01*
X38091004Y13379487D01*
X38141000Y13128139D01*
X38141000Y12871861D01*
X38091004Y12620513D01*
X38027604Y12467452D01*
X37992931Y12383745D01*
X37850553Y12170661D01*
X37669339Y11989447D01*
X37456255Y11847069D01*
X37456254Y11847068D01*
X37456253Y11847068D01*
X37219487Y11748996D01*
X36968139Y11699000D01*
X36711861Y11699000D01*
X36460513Y11748996D01*
X36223747Y11847068D01*
X36223746Y11847068D01*
X36223745Y11847069D01*
X36010661Y11989447D01*
X35829447Y12170661D01*
X35687069Y12383745D01*
X35652396Y12467452D01*
X35588996Y12620513D01*
X35539000Y12871861D01*
X35539000Y13128139D01*
X35588996Y13379487D01*
X35687068Y13616253D01*
X35829447Y13829339D01*
X36010661Y14010553D01*
X36223745Y14152931D01*
X36223747Y14152932D01*
X36460513Y14251004D01*
X36711861Y14301000D01*
X36968139Y14301000D01*
X37219487Y14251004D01*
G37*
G36*
X47379487Y14251004D02*
G01*
X47616253Y14152932D01*
X47616255Y14152931D01*
X47829339Y14010553D01*
X48010553Y13829339D01*
X48152932Y13616253D01*
X48251004Y13379487D01*
X48301000Y13128139D01*
X48301000Y12871861D01*
X48251004Y12620513D01*
X48187604Y12467452D01*
X48152931Y12383745D01*
X48010553Y12170661D01*
X47829339Y11989447D01*
X47616255Y11847069D01*
X47616254Y11847068D01*
X47616253Y11847068D01*
X47379487Y11748996D01*
X47128139Y11699000D01*
X46871861Y11699000D01*
X46620513Y11748996D01*
X46383747Y11847068D01*
X46383746Y11847068D01*
X46383745Y11847069D01*
X46170661Y11989447D01*
X45989447Y12170661D01*
X45847069Y12383745D01*
X45812396Y12467452D01*
X45748996Y12620513D01*
X45699000Y12871861D01*
X45699000Y13128139D01*
X45748996Y13379487D01*
X45847068Y13616253D01*
X45989447Y13829339D01*
X46170661Y14010553D01*
X46383745Y14152931D01*
X46383747Y14152932D01*
X46620513Y14251004D01*
X46871861Y14301000D01*
X47128139Y14301000D01*
X47379487Y14251004D01*
G37*
G36*
X30551000Y11949000D02*
G01*
X27449000Y11949000D01*
X27449000Y15051000D01*
X30551000Y15051000D01*
X30551000Y11949000D01*
G37*
G36*
X30551000Y17949000D02*
G01*
X27449000Y17949000D01*
X27449000Y21051000D01*
X30551000Y21051000D01*
X30551000Y17949000D01*
G37*
G36*
X37219487Y21251004D02*
G01*
X37456253Y21152932D01*
X37456255Y21152931D01*
X37669339Y21010553D01*
X37850553Y20829339D01*
X37955824Y20671790D01*
X37992932Y20616253D01*
X38091004Y20379487D01*
X38141000Y20128139D01*
X38141000Y19871861D01*
X38091004Y19620513D01*
X37992932Y19383747D01*
X37992931Y19383745D01*
X37850553Y19170661D01*
X37669339Y18989447D01*
X37456255Y18847069D01*
X37456254Y18847068D01*
X37456253Y18847068D01*
X37219487Y18748996D01*
X36968139Y18699000D01*
X36711861Y18699000D01*
X36460513Y18748996D01*
X36223747Y18847068D01*
X36223746Y18847068D01*
X36223745Y18847069D01*
X36010661Y18989447D01*
X35829447Y19170661D01*
X35687069Y19383745D01*
X35687068Y19383747D01*
X35588996Y19620513D01*
X35539000Y19871861D01*
X35539000Y20128139D01*
X35588996Y20379487D01*
X35687068Y20616253D01*
X35724177Y20671790D01*
X35829447Y20829339D01*
X36010661Y21010553D01*
X36223745Y21152931D01*
X36223747Y21152932D01*
X36460513Y21251004D01*
X36711861Y21301000D01*
X36968139Y21301000D01*
X37219487Y21251004D01*
G37*
G36*
X47379487Y21251004D02*
G01*
X47616253Y21152932D01*
X47616255Y21152931D01*
X47829339Y21010553D01*
X48010553Y20829339D01*
X48115824Y20671790D01*
X48152932Y20616253D01*
X48251004Y20379487D01*
X48301000Y20128139D01*
X48301000Y19871861D01*
X48251004Y19620513D01*
X48152932Y19383747D01*
X48152931Y19383745D01*
X48010553Y19170661D01*
X47829339Y18989447D01*
X47616255Y18847069D01*
X47616254Y18847068D01*
X47616253Y18847068D01*
X47379487Y18748996D01*
X47128139Y18699000D01*
X46871861Y18699000D01*
X46620513Y18748996D01*
X46383747Y18847068D01*
X46383746Y18847068D01*
X46383745Y18847069D01*
X46170661Y18989447D01*
X45989447Y19170661D01*
X45847069Y19383745D01*
X45847068Y19383747D01*
X45748996Y19620513D01*
X45699000Y19871861D01*
X45699000Y20128139D01*
X45748996Y20379487D01*
X45847068Y20616253D01*
X45884177Y20671790D01*
X45989447Y20829339D01*
X46170661Y21010553D01*
X46383745Y21152931D01*
X46383747Y21152932D01*
X46620513Y21251004D01*
X46871861Y21301000D01*
X47128139Y21301000D01*
X47379487Y21251004D01*
G37*
G36*
X20999487Y21251004D02*
G01*
X21236253Y21152932D01*
X21236255Y21152931D01*
X21449339Y21010553D01*
X21630553Y20829339D01*
X21735824Y20671790D01*
X21772932Y20616253D01*
X21871004Y20379487D01*
X21921000Y20128139D01*
X21921000Y19871861D01*
X21871004Y19620513D01*
X21772932Y19383747D01*
X21772931Y19383745D01*
X21630553Y19170661D01*
X21449339Y18989447D01*
X21236255Y18847069D01*
X21236254Y18847068D01*
X21236253Y18847068D01*
X20999487Y18748996D01*
X20748139Y18699000D01*
X20491861Y18699000D01*
X20240513Y18748996D01*
X20003747Y18847068D01*
X20003746Y18847068D01*
X20003745Y18847069D01*
X19790661Y18989447D01*
X19609447Y19170661D01*
X19467069Y19383745D01*
X19467068Y19383747D01*
X19368996Y19620513D01*
X19319000Y19871861D01*
X19319000Y20128139D01*
X19368996Y20379487D01*
X19467068Y20616253D01*
X19504177Y20671790D01*
X19609447Y20829339D01*
X19790661Y21010553D01*
X20003745Y21152931D01*
X20003747Y21152932D01*
X20240513Y21251004D01*
X20491861Y21301000D01*
X20748139Y21301000D01*
X20999487Y21251004D01*
G37*
G36*
X13379487Y21251004D02*
G01*
X13616253Y21152932D01*
X13616255Y21152931D01*
X13829339Y21010553D01*
X14010553Y20829339D01*
X14115824Y20671790D01*
X14152932Y20616253D01*
X14251004Y20379487D01*
X14301000Y20128139D01*
X14301000Y19871861D01*
X14251004Y19620513D01*
X14152932Y19383747D01*
X14152931Y19383745D01*
X14010553Y19170661D01*
X13829339Y18989447D01*
X13616255Y18847069D01*
X13616254Y18847068D01*
X13616253Y18847068D01*
X13379487Y18748996D01*
X13128139Y18699000D01*
X12871861Y18699000D01*
X12620513Y18748996D01*
X12383747Y18847068D01*
X12383746Y18847068D01*
X12383745Y18847069D01*
X12170661Y18989447D01*
X11989447Y19170661D01*
X11847069Y19383745D01*
X11847068Y19383747D01*
X11748996Y19620513D01*
X11699000Y19871861D01*
X11699000Y20128139D01*
X11748996Y20379487D01*
X11847068Y20616253D01*
X11884177Y20671790D01*
X11989447Y20829339D01*
X12170661Y21010553D01*
X12383745Y21152931D01*
X12383747Y21152932D01*
X12620513Y21251004D01*
X12871861Y21301000D01*
X13128139Y21301000D01*
X13379487Y21251004D01*
G37*
G36*
X6678210Y22691511D02*
G01*
X6764950Y22665198D01*
X6844889Y22622470D01*
X6914962Y22564962D01*
X6972470Y22494889D01*
X7015198Y22414950D01*
X7041511Y22328210D01*
X7051000Y22231860D01*
X7051000Y20768140D01*
X7041511Y20671790D01*
X7015198Y20585050D01*
X6972470Y20505111D01*
X6914962Y20435038D01*
X6844889Y20377530D01*
X6764950Y20334802D01*
X6678210Y20308489D01*
X6581860Y20299000D01*
X5418140Y20299000D01*
X5321790Y20308489D01*
X5235050Y20334802D01*
X5155111Y20377530D01*
X5085038Y20435038D01*
X5027530Y20505111D01*
X4984802Y20585050D01*
X4958489Y20671790D01*
X4949000Y20768140D01*
X4949000Y22231860D01*
X4958489Y22328210D01*
X4984802Y22414950D01*
X5027530Y22494889D01*
X5085038Y22564962D01*
X5155111Y22622470D01*
X5235050Y22665198D01*
X5321790Y22691511D01*
X5418140Y22701000D01*
X6581860Y22701000D01*
X6678210Y22691511D01*
G37*
G36*
X30551000Y21449000D02*
G01*
X27449000Y21449000D01*
X27449000Y23551000D01*
X30551000Y23551000D01*
X30551000Y21449000D01*
G37*
G36*
X13528823Y26543913D02*
G01*
X13592111Y26524714D01*
X13650449Y26493532D01*
X13701575Y26451575D01*
X13743532Y26400449D01*
X13774714Y26342111D01*
X13793913Y26278823D01*
X13801000Y26206862D01*
X13801000Y23793138D01*
X13793913Y23721177D01*
X13774714Y23657889D01*
X13743532Y23599551D01*
X13701575Y23548425D01*
X13650449Y23506468D01*
X13592111Y23475286D01*
X13528823Y23456087D01*
X13456862Y23449000D01*
X12543138Y23449000D01*
X12471177Y23456087D01*
X12407889Y23475286D01*
X12349551Y23506468D01*
X12298425Y23548425D01*
X12256468Y23599551D01*
X12225286Y23657889D01*
X12206087Y23721177D01*
X12199000Y23793138D01*
X12199000Y26206862D01*
X12206087Y26278823D01*
X12225286Y26342111D01*
X12256468Y26400449D01*
X12298425Y26451575D01*
X12349551Y26493532D01*
X12407889Y26524714D01*
X12471177Y26543913D01*
X12543138Y26551000D01*
X13456862Y26551000D01*
X13528823Y26543913D01*
G37*
G36*
X52284909Y26524714D02*
G01*
X52452410Y26491396D01*
X52734674Y26374479D01*
X52988705Y26204741D01*
X53204741Y25988705D01*
X53374479Y25734674D01*
X53491396Y25452410D01*
X53551000Y25152760D01*
X53551000Y24847240D01*
X53491396Y24547590D01*
X53374479Y24265326D01*
X53204741Y24011295D01*
X52988705Y23795259D01*
X52734674Y23625521D01*
X52452410Y23508604D01*
X52306024Y23479486D01*
X52152761Y23449000D01*
X51847239Y23449000D01*
X51693976Y23479486D01*
X51547590Y23508604D01*
X51265326Y23625521D01*
X51011295Y23795259D01*
X50795259Y24011295D01*
X50625521Y24265326D01*
X50508604Y24547590D01*
X50449000Y24847240D01*
X50449000Y25152760D01*
X50508604Y25452410D01*
X50625521Y25734674D01*
X50795259Y25988705D01*
X51011295Y26204741D01*
X51265326Y26374479D01*
X51547590Y26491396D01*
X51715091Y26524714D01*
X51847239Y26551000D01*
X52152761Y26551000D01*
X52284909Y26524714D01*
G37*
G36*
X10988823Y26543913D02*
G01*
X11052111Y26524714D01*
X11110449Y26493532D01*
X11161575Y26451575D01*
X11203532Y26400449D01*
X11234714Y26342111D01*
X11253913Y26278823D01*
X11261000Y26206862D01*
X11261000Y23793138D01*
X11253913Y23721177D01*
X11234714Y23657889D01*
X11203532Y23599551D01*
X11161575Y23548425D01*
X11110449Y23506468D01*
X11052111Y23475286D01*
X10988823Y23456087D01*
X10916862Y23449000D01*
X10003138Y23449000D01*
X9931177Y23456087D01*
X9867889Y23475286D01*
X9809551Y23506468D01*
X9758425Y23548425D01*
X9716468Y23599551D01*
X9685286Y23657889D01*
X9666087Y23721177D01*
X9659000Y23793138D01*
X9659000Y26206862D01*
X9666087Y26278823D01*
X9685286Y26342111D01*
X9716468Y26400449D01*
X9758425Y26451575D01*
X9809551Y26493532D01*
X9867889Y26524714D01*
X9931177Y26543913D01*
X10003138Y26551000D01*
X10916862Y26551000D01*
X10988823Y26543913D01*
G37*
G36*
X16068823Y26543913D02*
G01*
X16132111Y26524714D01*
X16190449Y26493532D01*
X16241575Y26451575D01*
X16283532Y26400449D01*
X16314714Y26342111D01*
X16333913Y26278823D01*
X16341000Y26206862D01*
X16341000Y23793138D01*
X16333913Y23721177D01*
X16314714Y23657889D01*
X16283532Y23599551D01*
X16241575Y23548425D01*
X16190449Y23506468D01*
X16132111Y23475286D01*
X16068823Y23456087D01*
X15996862Y23449000D01*
X15083138Y23449000D01*
X15011177Y23456087D01*
X14947889Y23475286D01*
X14889551Y23506468D01*
X14838425Y23548425D01*
X14796468Y23599551D01*
X14765286Y23657889D01*
X14746087Y23721177D01*
X14739000Y23793138D01*
X14739000Y26206862D01*
X14746087Y26278823D01*
X14765286Y26342111D01*
X14796468Y26400449D01*
X14838425Y26451575D01*
X14889551Y26493532D01*
X14947889Y26524714D01*
X15011177Y26543913D01*
X15083138Y26551000D01*
X15996862Y26551000D01*
X16068823Y26543913D01*
G37*
G36*
X37219487Y26251004D02*
G01*
X37433226Y26162470D01*
X37456255Y26152931D01*
X37669339Y26010553D01*
X37850553Y25829339D01*
X37992932Y25616253D01*
X38091004Y25379487D01*
X38141000Y25128139D01*
X38141000Y24871861D01*
X38091004Y24620513D01*
X38060798Y24547590D01*
X37992931Y24383745D01*
X37850553Y24170661D01*
X37669339Y23989447D01*
X37456255Y23847069D01*
X37456254Y23847068D01*
X37456253Y23847068D01*
X37219487Y23748996D01*
X36968139Y23699000D01*
X36711861Y23699000D01*
X36460513Y23748996D01*
X36223747Y23847068D01*
X36223746Y23847068D01*
X36223745Y23847069D01*
X36010661Y23989447D01*
X35829447Y24170661D01*
X35687069Y24383745D01*
X35619202Y24547590D01*
X35588996Y24620513D01*
X35539000Y24871861D01*
X35539000Y25128139D01*
X35588996Y25379487D01*
X35687068Y25616253D01*
X35829447Y25829339D01*
X36010661Y26010553D01*
X36223745Y26152931D01*
X36246774Y26162470D01*
X36460513Y26251004D01*
X36711861Y26301000D01*
X36968139Y26301000D01*
X37219487Y26251004D01*
G37*
G36*
X47379487Y26251004D02*
G01*
X47593226Y26162470D01*
X47616255Y26152931D01*
X47829339Y26010553D01*
X48010553Y25829339D01*
X48152932Y25616253D01*
X48251004Y25379487D01*
X48301000Y25128139D01*
X48301000Y24871861D01*
X48251004Y24620513D01*
X48220798Y24547590D01*
X48152931Y24383745D01*
X48010553Y24170661D01*
X47829339Y23989447D01*
X47616255Y23847069D01*
X47616254Y23847068D01*
X47616253Y23847068D01*
X47379487Y23748996D01*
X47128139Y23699000D01*
X46871861Y23699000D01*
X46620513Y23748996D01*
X46383747Y23847068D01*
X46383746Y23847068D01*
X46383745Y23847069D01*
X46170661Y23989447D01*
X45989447Y24170661D01*
X45847069Y24383745D01*
X45779202Y24547590D01*
X45748996Y24620513D01*
X45699000Y24871861D01*
X45699000Y25128139D01*
X45748996Y25379487D01*
X45847068Y25616253D01*
X45989447Y25829339D01*
X46170661Y26010553D01*
X46383745Y26152931D01*
X46406774Y26162470D01*
X46620513Y26251004D01*
X46871861Y26301000D01*
X47128139Y26301000D01*
X47379487Y26251004D01*
G37*
G36*
X6678210Y26231511D02*
G01*
X6764950Y26205198D01*
X6844889Y26162470D01*
X6914962Y26104962D01*
X6972470Y26034889D01*
X7015198Y25954950D01*
X7041511Y25868210D01*
X7051000Y25771860D01*
X7051000Y24308140D01*
X7041511Y24211790D01*
X7015198Y24125050D01*
X6972470Y24045111D01*
X6914962Y23975038D01*
X6844889Y23917530D01*
X6764950Y23874802D01*
X6678210Y23848489D01*
X6581860Y23839000D01*
X5418140Y23839000D01*
X5321790Y23848489D01*
X5235050Y23874802D01*
X5155111Y23917530D01*
X5085038Y23975038D01*
X5027530Y24045111D01*
X4984802Y24125050D01*
X4958489Y24211790D01*
X4949000Y24308140D01*
X4949000Y25771860D01*
X4958489Y25868210D01*
X4984802Y25954950D01*
X5027530Y26034889D01*
X5085038Y26104962D01*
X5155111Y26162470D01*
X5235050Y26205198D01*
X5321790Y26231511D01*
X5418140Y26241000D01*
X6581860Y26241000D01*
X6678210Y26231511D01*
G37*
G36*
X29976979Y27036707D02*
G01*
X30110625Y26996166D01*
X30233784Y26930336D01*
X30341740Y26841740D01*
X30430336Y26733784D01*
X30496166Y26610625D01*
X30536707Y26476979D01*
X30551000Y26331860D01*
X30551000Y24668140D01*
X30536707Y24523021D01*
X30496166Y24389375D01*
X30430336Y24266216D01*
X30341740Y24158260D01*
X30233784Y24069664D01*
X30110625Y24003834D01*
X29976979Y23963293D01*
X29831860Y23949000D01*
X28168140Y23949000D01*
X28023021Y23963293D01*
X27889375Y24003834D01*
X27766216Y24069664D01*
X27658260Y24158260D01*
X27569664Y24266216D01*
X27503834Y24389375D01*
X27463293Y24523021D01*
X27449000Y24668140D01*
X27449000Y26331860D01*
X27463293Y26476979D01*
X27503834Y26610625D01*
X27569664Y26733784D01*
X27658260Y26841740D01*
X27766216Y26930336D01*
X27889375Y26996166D01*
X28023021Y27036707D01*
X28168140Y27051000D01*
X29831860Y27051000D01*
X29976979Y27036707D01*
G37*
M02*
